<?xml version="1.0" encoding="UTF-8" standalone="no"?>
<svg
   id="emoji"
   viewBox="0 0 400 400"
   version="1.1"
   sodipodi:docname="berry_icon.svg"
   inkscape:version="1.2.1 (9c6d41e, 2022-07-14)"
   xmlns:inkscape="http://www.inkscape.org/namespaces/inkscape"
   xmlns:sodipodi="http://sodipodi.sourceforge.net/DTD/sodipodi-0.dtd"
   xmlns="http://www.w3.org/2000/svg"
   xmlns:svg="http://www.w3.org/2000/svg">
  <defs
     id="defs15" />
  <sodipodi:namedview
     id="namedview13"
     pagecolor="#505050"
     bordercolor="#eeeeee"
     borderopacity="1"
     inkscape:showpageshadow="0"
     inkscape:pageopacity="0"
     inkscape:pagecheckerboard="0"
     inkscape:deskcolor="#505050"
     showgrid="false"
     inkscape:zoom="1.6433766"
     inkscape:cx="109.53058"
     inkscape:cy="191.98277"
     inkscape:window-width="1393"
     inkscape:window-height="847"
     inkscape:window-x="47"
     inkscape:window-y="25"
     inkscape:window-maximized="1"
     inkscape:current-layer="line" />
  <g
     id="color">
    <circle
       cx="200"
       cy="200"
       r="180"
       fill="#1e50a0"
       id="circle2" />
    <path
       fill="#4285a9"
       d="M45.8609,40.3086a6.83,6.83,0,0,1,3.1626-.4173,6.8188,6.8188,0,0,1,1.3688-2.88l.0962-.0884.0962.0884a7.1959,7.1959,0,0,1,1.3688,2.88,6.83,6.83,0,0,1,3.1626.4173l.1132.0651-.0552.1183a7.1677,7.1677,0,0,1-2.3152,2.1859,6.8412,6.8412,0,0,1,.6005,3.1348l-.0268.1278-.13-.0158A7.2429,7.2429,0,0,1,50.4885,44.4a7.1092,7.1092,0,0,1-2.7793,1.5246l-.13.0158-.0269-.1278a6.8058,6.8058,0,0,1,.5654-3.1348,7.1688,7.1688,0,0,1-2.3152-2.1859l-.0552-.1183Z"
       id="path4"
       style="fill:#92d3f5;fill-opacity:0" />
  </g>
  <g
     id="line">
    <path
       fill="none"
       stroke="#000000"
       stroke-linecap="round"
       stroke-linejoin="round"
       stroke-width="7"
       d="m 261.29952,100.01458 a 43.88958,43.88958 0 0 1 20.3229,-2.681576 43.81761,43.81761 0 0 1 8.79588,-18.506877 l 0.61818,-0.5682 0.61818,0.5682 a 46.240854,46.240854 0 0 1 8.79594,18.506877 43.88958,43.88958 0 0 1 20.32284,2.681576 l 0.72744,0.4182 -0.3546,0.7602 a 46.059639,46.059639 0 0 1 -14.87748,14.0466 43.96155,43.96155 0 0 1 3.85884,20.14422 l -0.1722,0.82122 -0.83538,-0.1014 a 46.542876,46.542876 0 0 1 -18.08346,-9.7977 45.683718,45.683718 0 0 1 -17.85978,9.79704 l -0.83538,0.1014 -0.1728,-0.82128 a 43.734072,43.734072 0 0 1 3.6333,-20.14422 46.06671,46.06671 0 0 1 -14.87748,-14.0466 l -0.3546,-0.7602 z"
       id="path7"
       style="fill:#1e8da0;fill-opacity:1" />
    <circle
       cx="200"
       cy="200"
       r="180"
       fill="none"
       stroke="#000"
       stroke-linecap="round"
       stroke-linejoin="round"
       stroke-width="7"
       id="circle9" />
  </g>
</svg>
