<?xml version="1.0" encoding="UTF-8" standalone="no"?>
<svg
   id="svg4"
   viewBox="0 0 379.862 379.88907"
   version="1.1"
   height="379.88907pt"
   width="379.862pt"
   xmlns="http://www.w3.org/2000/svg"
   xmlns:svg="http://www.w3.org/2000/svg">
  <defs
     id="defs8">
    <linearGradient
       id="linearGradient1900">
      <stop
         style="stop-color:#0951a9;stop-opacity:1"
         offset="0"
         id="stop1898" />
    </linearGradient>
  </defs>
  <path
     d="m 374.62759,185.46118 c 2.6172,0 4.7344,-2.1172 4.7344,-4.7344 v -59.441 c 0,-2.6172 -2.1172,-4.7344 -4.7344,-4.7344 h -7 c -1.3633,-25.827997 -18.707,-47.491997 -42.43,-55.401997 l 7.9688,-7.9883 c 4.3008,2.9727 9.3711,4.6016 14.711,4.6016 h 0.004 c 6.9492,0 13.477,-2.7148 18.383,-7.6328 16.957,-16.996 11.262,-43.1879996 11.012,-44.2929996 -0.37109,-1.6211 -1.5547,-2.9258 -3.1289,-3.4531 -1.0391,-0.34766 -25.594,-8.1875 -44.66,10.9219996 -8.9844,9.0078 -9.9609,23 -2.9961,33.141 l -12.133,12.16 c -0.40625,-0.0586 -0.81641,-0.13281 -1.2266,-0.18359 -2.1133,-32.27 -29.176,-57.89799964 -62.242,-57.89799964 -26.008,0 -48.328,15.85899964 -57.711,38.33199964 -9.375,-22.473 -31.695,-38.33199964 -57.707,-38.33199964 -32.898,0 -59.874997,25.37899964 -62.214997,57.42199964 -2.8008,0.0586 -5.5352,0.31641 -8.2344,0.73047 l -12.203,-12.234 c 6.957,-10.141 5.9844,-24.133 -2.9961,-33.141 C 30.764293,-5.8103366 6.1982933,2.0406634 5.1632933,2.3806634 c -1.5781,0.51953 -2.7617,1.832 -3.1289,3.4531 -0.25,1.1016 -5.9492,27.2969996 11.0119997,44.2929996 4.9102,4.9258 11.441,7.6328 18.391,7.6328 h 0.004 c 5.3359,0 10.406,-1.6289 14.703,-4.6016 l 8.1172,8.1367 c -23.512,8.0273 -40.672,29.574 -42.027,55.257997 H 5.2345933 c -2.6172,0 -4.73440003,2.1172 -4.73440003,4.7344 v 59.445 c 0,2.6172 2.11720003,4.7344 4.73440003,4.7344 H 15.543593 v 28.051 H 5.2345933 c -2.6172,0 -4.73440003,2.1172 -4.73440003,4.7344 v 59.445 c 0,2.6172 2.11720003,4.7344 4.73440003,4.7344 H 15.543593 v 28.051 H 5.2345933 c -2.6172,0 -4.73440003,2.1172 -4.73440003,4.7344 v 59.438 c 0,2.6172 2.11720003,4.7344 4.73440003,4.7344 H 374.62459 c 2.6172,0 4.7344,-2.1172 4.7344,-4.7344 v -59.441 c 0,-2.6172 -2.1172,-4.7344 -4.7344,-4.7344 h -10.523 v -28.051 h 10.523 c 2.6172,0 4.7344,-2.1172 4.7344,-4.7344 v -59.445 c 0,-2.6172 -2.1172,-4.7344 -4.7344,-4.7344 h -10.523 v -28.051 z m -38.434,-165.469997 c 8.1211,-8.1406 17.578,-10.0309996 24.613,-10.0309996 3.1602,0 5.8281,0.3789096 7.6719,0.7499996 0.79688,6.3789 1.5078,22.277 -8.9219,32.73 -6.2422,6.25 -17.121,6.25 -23.367,0 -6.4492,-6.4688 -6.4492,-16.988 0.004,-23.449 z m -316.449997,23.445 c -10.4219997,-10.445 -9.7188,-26.336 -8.9219,-32.715 5.9453,-1.1561996 20.586,-2.4608996 32.285,9.2695 6.4492,6.4648 6.4492,16.984 0,23.445 -6.2383,6.25 -17.117,6.25 -23.363,0 z M 358.15359,116.55318 h -105.61 c 1.7148,-27.401997 24.711,-49.194997 52.809,-49.194997 28.098,0 51.094,21.793 52.805,49.194997 z m -168.23,-49.194997 c 28.102,0 51.094,21.793 52.805,49.194997 h -105.61 c 1.7109,-27.401997 24.703,-49.194997 52.805,-49.194997 z m 60.961,-57.3629996 c 27.684,0 50.441,21.1449996 52.746,47.9729996 -25.27,0.6875 -46.832,16.273 -56,38.242 -8.3711,-20.066 -27.09,-34.793 -49.52,-37.73 2.0664,-27.07 24.918,-48.4839996 52.773,-48.4839996 z m -115.42,0 c 27.684,0 50.438,21.1449996 52.742,47.9729996 -25.266,0.6875 -46.828,16.273 -55.996,38.242 -8.3711,-20.066 -27.09,-34.793 -49.519997,-37.73 2.0703,-27.07 24.917997,-48.4839996 52.772997,-48.4839996 z M 74.503593,67.358183 c 28.101997,0 51.097997,21.793 52.808997,49.194997 H 21.702593 c 1.707,-27.401997 24.699,-49.194997 52.805,-49.194997 z M 9.9605933,126.02218 H 369.88059 v 49.973 H 9.9605933 Z m 359.9199967,243.89 H 9.9605933 v -49.965 H 369.88059 Z m -15.258,-59.438 H 25.002593 v -28.051 H 354.62259 Z m 15.258,-37.523 H 9.9605933 v -49.973 H 369.88059 Z m -15.258,-59.441 H 25.002593 v -28.051 H 354.62259 Z"
     id="path2"
     style="fill:#0951a9;fill-opacity:1;stroke:#0951a9;stroke-opacity:1" />
  <path
     style="fill:#0951a9;fill-opacity:1;stroke:#000000;stroke-width:1.59322;stroke-opacity:1"
     d="m 254.45301,111.34125 c 0,-6.53805 9.42067,-22.963317 16.99397,-29.629607 25.08758,-22.08297 64.75463,-14.42791 79.99045,15.43677 1.71734,3.366257 3.62056,8.775677 4.22937,12.020937 l 1.10693,5.90048 h -51.16035 -51.16037 z"
     id="path2892" />
  <path
     style="fill:#0951a9;fill-opacity:1;stroke:#000000;stroke-width:1.59322;stroke-opacity:1"
     d="m 139.08998,110.68847 c 3.63064,-15.863227 13.79009,-29.065397 28.18747,-36.629547 7.27244,-3.82082 10.10321,-4.36654 22.65014,-4.36654 12.54693,0 15.3777,0.54572 22.65014,4.36654 14.39738,7.56415 24.55683,20.76632 28.18746,36.629547 l 1.00277,4.38136 h -51.84037 -51.84037 z"
     id="path2894" />
  <path
     style="fill:#0951a9;fill-opacity:1;stroke:#000000;stroke-width:1.59322;stroke-opacity:1"
     d="m 244.19042,87.154913 c -6.29539,-11.68985 -25.22256,-25.65455 -38.72893,-28.57469 -4.3007,-0.92984 -5.17797,-1.85485 -5.17797,-5.45976 0,-7.07028 7.64696,-20.31588 16.13416,-27.94659 20.95638,-18.8415896 51.26367,-18.0443096 71.18049,1.87252 7.26915,7.26914 12.4787,17.04411 13.34354,25.03723 0.49024,4.53097 0.193,4.77261 -7.21504,5.86518 -15.7125,2.31736 -34.03612,14.4876 -41.8261,27.78021 -2.26777,3.86965 -4.25053,7.03573 -4.40613,7.03573 -0.15561,0 -1.64241,-2.52443 -3.30402,-5.60983 z"
     id="path2896" />
  <path
     style="fill:#0951a9;fill-opacity:1;stroke:#000000;stroke-width:1.59322;stroke-opacity:1"
     d="m 129.55445,88.312353 c -6.48873,-12.54783 -23.16594,-25.45732 -37.698957,-29.18202 -7.76797,-1.99088 -7.96371,-2.18415 -6.99861,-6.91027 6.10321,-29.88768 39.658297,-48.2725596 68.346057,-37.4469 11.79016,4.44916 23.3168,14.94675 28.86606,26.28904 6.01793,12.30019 5.06895,15.20866 -5.68378,17.42004 -16.08439,3.30788 -31.09,13.68306 -39.9867,27.64759 l -4.4007,6.90747 z"
     id="path2898" />
  <path
     style="fill:#0951a9;fill-opacity:1;stroke:#000000;stroke-width:1.59322;stroke-opacity:1"
     d="m 24.188383,109.16935 c 2.64175,-14.081767 13.75843,-28.254797 27.39463,-34.926367 18.70248,-9.15027 41.3226,-6.17726 56.825187,7.46866 7.5733,6.6663 16.99397,23.091557 16.99397,29.629607 v 3.72858 H 74.241803 23.081443 Z"
     id="path2900" />
  <path
     style="fill:#000000;fill-opacity:1;stroke:#000000;stroke-width:1.59322;stroke-opacity:1"
     d="m 1.8444733,375.91925 c -0.43162,-1.12477 -0.58949,-16.00441 -0.35082,-33.06587 l 0.43394,-31.02084 6.77119,-0.48992 6.7711797,-0.48991 v -14.24738 -14.24737 h -5.25763 c -2.8916897,0 -6.1179597,-0.86034 -7.1694897,-1.91187 -2.69759003,-2.69759 -2.69759003,-61.98715 0,-64.68474 1.05153,-1.05153 4.2778,-1.91187 7.1694897,-1.91187 h 5.25763 V 199.5105 185.17152 h -5.25763 c -2.8916897,0 -6.1179597,-0.86034 -7.1694897,-1.91187 -1.35408,-1.35408 -1.91186,-10.82595 -1.91186,-32.46593 0,-32.49818 0.1837,-33.29471 7.92789,-34.37632 3.2769797,-0.45769 4.1429297,-1.7172 5.1149297,-7.43958 2.98784,-17.590067 16.38899,-35.459577 32.66463,-43.556037 l 8.26677,-4.11237 -4.55256,-4.36164 c -2.66844,-2.55652 -5.34328,-3.87293 -6.46316,-3.18081 -1.05083,0.64945 -4.5146,1.77527 -7.69727,2.50182 C 18.126373,60.438553 2.4226133,43.173333 2.0835033,18.548643 1.8738433,3.3242034 3.1673633,1.9468834 17.656573,1.9667434 c 26.67353,0.0365 45.10331,19.5046496 36.9461,39.0275996 l -2.56856,6.14742 6.0095,6.15429 c 4.70521,4.81857 7.02387,6.05229 10.68321,5.68437 4.20569,-0.42286 4.85392,-1.27425 6.47325,-8.50206 4.21863,-18.82962 16.74717,-34.83972 33.795987,-43.1875896 8.35588,-4.09142 10.83175,-4.52363 25.96543,-4.53282 14.7974,-0.009 17.77272,0.4792 25.77058,4.22845 10.80024,5.0629796 22.33315,15.3045196 27.86625,24.7460196 2.21202,3.77456 4.2441,6.86282 4.51571,6.86282 0.27161,0 2.30368,-3.08826 4.51571,-6.86282 5.5331,-9.4415 17.066,-19.68304 27.86625,-24.7460196 7.99123,-3.74613 10.98545,-4.23861 25.77058,-4.23861 15.16448,0 17.59304,0.42436 25.97072,4.53811 17.42969,8.5585996 31.68506,27.1664296 33.96207,44.3313496 0.56105,4.22942 1.4383,7.68986 1.94945,7.68986 0.51114,0 3.92404,-2.93906 7.58421,-6.53124 6.34383,-6.22601 6.55188,-6.7286 4.45147,-10.75424 -3.21787,-6.1674 -2.73164,-16.1149 1.0945,-22.39095 7.31728,-12.0025996 18.16144,-17.5945596 34.21697,-17.6445096 16.22441,-0.0505 17.2364,1.04196 16.32711,17.6252596 -0.8296,15.13022 -4.38521,23.91263 -12.41746,30.67133 -8.43611,7.09851 -15.19687,7.89175 -29.53018,3.46477 -2.24821,-0.69438 -4.37632,0.23404 -7.043,3.0726 -2.10175,2.2372 -3.51981,4.2497 -3.15123,4.47222 0.36857,0.22253 4.25487,2.19306 8.63622,4.37897 16.07935,8.02219 29.39773,25.84362 32.36396,43.306497 0.97199,5.72238 1.83794,6.98189 5.11492,7.43958 7.7442,1.08161 7.9279,1.87814 7.9279,34.37632 0,21.63998 -0.55779,31.11185 -1.91187,32.46593 -1.05152,1.05153 -4.63627,1.91187 -7.96609,1.91187 H 362.792 v 14.33898 14.33898 h 6.05424 c 3.32982,0 6.91457,0.86034 7.96609,1.91187 2.6976,2.69759 2.6976,61.98715 0,64.68474 -1.05152,1.05153 -4.63627,1.91187 -7.96609,1.91187 H 362.792 v 14.25169 14.25169 l 7.56779,0.48559 7.5678,0.48561 v 32.66101 32.66102 l -187.64918,0.40487 C 38.717813,377.88643 2.4783033,377.57104 1.8444733,375.91925 Z M 370.7581,344.49355 V 319.00203 H 189.92759 9.0970833 v 25.49152 25.49153 H 189.92759 370.7581 Z M 354.82589,296.69694 V 282.35796 H 189.92759 25.029293 v 14.33898 14.33898 h 164.898297 164.8983 z m 15.57336,-48.99153 0.43778,-25.88982 H 189.96705 9.0970833 v 25.22598 c 0,13.87431 0.48103,25.70703 1.0689497,26.29494 0.58793,0.58793 81.78242,0.88665 180.432207,0.66384 l 179.36325,-0.4051 z M 354.82589,199.5105 V 185.17152 H 189.92759 25.029293 v 14.33898 14.33898 H 189.92759 354.82589 Z M 370.7581,150.91728 V 124.62915 H 189.92759 9.0970833 v 26.28813 26.28813 H 189.92759 370.7581 Z M 126.81099,109.34999 C 117.69647,60.562303 49.047323,51.578463 26.723713,96.251973 c -2.68448,5.372107 -4.88087,12.162287 -4.88087,15.089277 v 5.32179 h 53.16719 53.167187 z m 115.74428,1.33848 c -2.91636,-15.842477 -13.84275,-30.435497 -28.72938,-38.370187 -7.10128,-3.78505 -9.69573,-4.246 -23.8983,-4.246 -14.20257,0 -16.79702,0.46095 -23.8983,4.246 -14.88662,7.93469 -25.81303,22.52771 -28.72938,38.370187 l -1.09983,5.97457 h 53.72751 53.7275 z m 115.45707,0.65278 c 0,-7.9428 -8.69475,-23.917557 -16.99398,-31.222827 -19.52271,-17.18457 -51.53202,-17.28128 -70.9212,-0.21425 -8.21243,7.22888 -15.13578,19.18362 -17.05297,29.445817 l -1.36623,7.31305 h 53.16719 53.16719 z M 137.08737,89.088353 c 8.78508,-14.9906 28.30689,-27.90585 44.53799,-29.46545 l 7.77925,-0.74749 -1.01707,-5.75873 c -2.97605,-16.85043 -17.35506,-33.8084 -33.98616,-40.08177 -12.02295,-4.5351296 -30.86671,-3.8100896 -42.23702,1.62515 -14.629297,6.99308 -26.714437,22.63698 -29.081127,37.64476 l -1.03135,6.54008 7.55028,1.90118 c 15.673747,3.9467 30.737667,15.16145 37.508197,27.92403 2.12444,4.00458 4.33343,7.28107 4.90886,7.28107 0.57545,0 2.85612,-3.08828 5.06815,-6.86283 z m 115.65744,-0.41825 c 7.61378,-14.35209 26.34745,-26.87549 43.18616,-28.86979 l 8.26627,-0.97901 -0.81856,-6.10289 c -1.98384,-14.79055 -14.30775,-30.8983 -29.01042,-37.91758 -11.89432,-5.6785296 -30.35547,-6.3621296 -43.0052,-1.59246 -14.30994,5.39568 -26.53612,18.22159 -30.92995,32.44715 -1.83482,5.94043 -3.33603,11.36243 -3.33603,12.04888 0,0.68645 2.33009,1.69287 5.17797,2.2365 14.6784,2.80194 34.81158,17.45724 41.20861,29.99649 1.68741,3.30758 3.59237,6.01379 4.23328,6.01379 0.6409,0 2.90344,-3.27649 5.02787,-7.28108 z M 42.351893,44.815143 c 14.96276,-13.93994 0.82763,-34.8978596 -23.53695,-34.8978596 -9.5490297,0 -10.6792097,2.0460896 -8.28477,14.9987896 1.76499,9.5477 7.1114,19.02545 12.10929,21.46651 5.82077,2.84299 15.83292,2.04687 19.71243,-1.56744 z m 318.045367,-1.9133 c 5.88875,-5.88874 8.74553,-14.17881 8.75873,-25.41676 l 0.009,-7.5677996 h -8.56815 c -13.83777,0 -26.65975,7.3452196 -28.98343,16.6034996 -3.0297,12.07122 4.22708,21.63379 16.41729,21.63379 5.92248,0 7.99369,-0.87976 12.36667,-5.25273 z"
     id="path2906" />
  <path
     style="fill:#008080;fill-opacity:1;stroke:#000000;stroke-width:1.59322;stroke-opacity:1"
     d="m 21.198083,42.579493 c -5.81113,-5.38558 -8.91456,-13.41057 -8.91456,-23.05171 v -8.01728 l 6.77119,0.0349 c 12.14375,0.0628 24.97102,8.26866 27.19352,17.39633 0.52167,2.14249 -0.12954,6.15744 -1.45008,8.94028 -4.34534,9.15711 -16.23452,11.52356 -23.60007,4.69739 z"
     id="path3046" />
  <path
     style="fill:#008000;fill-opacity:1;stroke:#000000;stroke-width:1.59322;stroke-opacity:1"
     d="m 342.08013,45.431063 c -8.03753,-2.95535 -11.50682,-12.78733 -7.34912,-20.82743 3.62159,-7.00338 12.19846,-11.66392 23.32141,-12.67251 l 9.51924,-0.86318 -0.009,6.19586 c -0.0142,9.90367 -3.1064,18.39249 -8.75873,24.04483 -5.1175,5.11749 -10.44569,6.43089 -16.72391,4.12243 z"
     id="path3048" />
  <path
     style="fill:#483737;fill-opacity:1;stroke:#000000;stroke-width:1.59322;stroke-opacity:1"
     d="M 10.690303,248.10372 V 225.00203 H 189.92759 369.16487 v 23.10169 23.1017 H 189.92759 10.690303 Z"
     id="path3261" />
  <path
     style="fill:#483737;fill-opacity:1;stroke:#000000;stroke-width:1.59322;stroke-opacity:1"
     d="M 10.690303,150.91728 V 127.81559 H 189.92759 369.16487 v 23.10169 23.1017 H 189.92759 10.690303 Z"
     id="path3263" />
  <path
     style="fill:#483737;fill-opacity:1;stroke:#000000;stroke-width:1.59322;stroke-opacity:1"
     d="M 10.690303,344.49355 V 320.59524 H 189.92759 369.16487 v 23.89831 23.89831 H 189.92759 10.690303 Z"
     id="path3265" />
  <path
     style="fill:#483737;fill-opacity:1;stroke:#000000;stroke-width:1.59322;stroke-opacity:1"
     d="M 26.622503,199.5105 V 186.76474 H 189.92759 353.23268 v 12.74576 12.74577 H 189.92759 26.622503 Z"
     id="path3267" />
  <path
     style="fill:#483737;fill-opacity:1;stroke:#000000;stroke-width:1.59322;stroke-opacity:1"
     d="M 26.622503,296.69694 V 283.95118 H 189.92759 353.23268 v 12.74576 12.74577 H 189.92759 26.622503 Z"
     id="path3269" />
  <path
     style="fill:#782121;fill-opacity:1;stroke:#000000;stroke-width:1.59322;stroke-opacity:1"
     d="m 141.23315,109.04988 c 4.05624,-14.143257 15.05885,-27.554297 27.57805,-33.614737 5.83427,-2.82432 10.1109,-3.54159 21.11639,-3.54159 11.00549,0 15.28211,0.71727 21.11638,3.54159 12.5192,6.06044 23.52182,19.47148 27.57806,33.614737 l 1.26957,4.42672 h -49.96401 -49.96401 z"
     id="path7506" />
  <path
     style="fill:#ffc600;fill-opacity:1;stroke:#000000;stroke-width:1.59322;stroke-opacity:1"
     d="m 25.745453,109.09524 c 3.2955,-13.600967 15.6398,-28.323927 28.60097,-34.112157 11.41159,-5.09622 28.8158,-5.05831 40.34969,0.0879 9.688667,4.32289 19.242647,14.04218 25.030107,25.463167 7.0539,13.92021 10.48971,12.94246 -45.479827,12.94246 h -49.56254 z"
     id="path7508" />
  <path
     style="fill:#ffffff;fill-opacity:1;stroke:#000000;stroke-width:1.59322;stroke-opacity:1"
     d="m 245.87086,86.960743 c -2.73169,-8.60678 -26.83932,-26.77047 -39.61277,-29.84589 -5.77975,-1.39158 -5.70877,-5.7973 0.26109,-16.20521 10.0971,-17.60334 25.60898,-26.94339 44.74739,-26.94339 13.64553,0 22.65145,3.30844 32.46808,11.92756 7.16498,6.29092 15.29265,19.83924 15.31358,25.52674 0.0136,3.6762 -0.87321,4.24604 -9.32338,5.99139 -14.57975,3.0114 -30.93022,14.7938 -40.22566,28.98721 -2.52477,3.85513 -2.58028,3.86371 -3.62833,0.56159 z"
     id="path7648" />
  <path
     style="fill:#916f6f;stroke:#000000;stroke-width:1.59322"
     d="M 11.949152,150.55932 V 129.05085 H 189.59322 367.23729 v 21.50847 21.50848 H 189.59322 11.949152 Z"
     id="path874" />
  <path
     style="fill:#916f6f;stroke:#000000;stroke-width:1.59322"
     d="M 27.881356,199.15254 V 188 H 189.59322 351.30508 v 11.15254 11.15254 H 189.59322 27.881356 Z"
     id="path876" />
  <path
     style="fill:#916f6f;stroke:#000000;stroke-width:1.59322"
     d="M 11.949152,247.74576 V 226.23729 H 189.59322 367.23729 v 21.50847 21.50848 H 189.59322 11.949152 Z"
     id="path878" />
  <path
     style="fill:#916f6f;stroke:#000000;stroke-width:1.59322"
     d="m 108.85887,307.89009 c 44.97577,-0.2352 118.10458,-0.23514 162.50847,1.3e-4 44.4039,0.23528 7.60554,0.42771 -81.77412,0.42763 -89.37966,-7e-5 -125.710119,-0.19257 -80.73435,-0.42776 z"
     id="path880" />
  <path
     style="fill:#916f6f;stroke:#000000;stroke-width:1.59322"
     d="M 11.949152,344.13559 V 321.83051 H 189.59322 367.23729 v 22.30508 22.30509 H 189.59322 11.949152 Z"
     id="path882" />
  <path
     style="fill:#ac9393;stroke:#000000;stroke-width:1.59322"
     d="M 27.881356,295.94068 V 285.18644 H 189.59322 351.30508 v 10.75424 10.75423 H 189.59322 27.881356 Z"
     id="path884" />
  <path
     style="fill:#ac9393;stroke:#000000;stroke-width:1.59322"
     d="M 13.542373,344.13559 V 323.42373 H 189.59322 365.64406 v 20.71186 20.71187 H 189.59322 13.542373 Z"
     id="path955" />
  <path
     style="fill:#ac9393;stroke:#000000;stroke-width:1.59322"
     d="M 13.542373,247.74576 V 227.83051 H 189.59322 365.64406 v 19.91525 19.91526 H 189.59322 13.542373 Z"
     id="path957" />
  <path
     style="fill:#ac9393;stroke:#000000;stroke-width:1.59322"
     d="m 29.474576,199.15254 v -9.55932 H 189.59322 349.71187 v 9.55932 9.55933 H 189.59322 29.474576 Z"
     id="path959" />
  <path
     style="fill:#ac9393;stroke:#000000;stroke-width:1.59322"
     d="M 13.542373,150.55932 V 130.64407 H 189.59322 365.64406 v 19.91525 19.91526 H 189.59322 13.542373 Z"
     id="path961" />
  <path
     style="fill:#0951a9;fill-opacity:1;stroke:#000000;stroke-width:1.59322"
     d="m 28.156915,106.64013 c 2.707712,-7.767345 11.376726,-19.3686 18.624273,-24.923813 8.221422,-6.30168 15.479211,-8.412385 28.896774,-8.403732 13.163295,0.0085 23.814855,4.764702 32.946138,14.711345 7.36535,8.023012 13.90212,19.57592 12.42687,21.96292 -0.5765,0.93282 -19.38578,1.53858 -47.773982,1.53858 H 26.453893 Z"
     id="path1860" />
  <path
     style="fill:#0951a9;fill-opacity:1;stroke:#000000;stroke-width:1.59322"
     d="m 243.29074,79.759365 c -4.62629,-6.257381 -22.48798,-18.856568 -31.83304,-22.454209 -9.25834,-3.564259 -9.36384,-6.374465 -0.71588,-19.067868 6.63018,-9.731728 17.9075,-18.139223 27.99056,-20.867604 9.28119,-2.5114 25.97478,-1.016499 33.91257,3.036851 10.41094,5.316238 24.49064,23.15339 24.49064,31.026464 0,1.474584 -2.75959,3.053088 -7.36475,4.212679 -12.05253,3.034864 -22.95368,9.468684 -32.90603,19.421027 -5.15568,5.155687 -9.54025,9.373972 -9.7435,9.373972 -0.20324,0 -1.927,-2.106592 -3.83057,-4.681312 z"
     id="path1862" />
  <path
     style="fill:#0951a9;fill-opacity:1;stroke:#000000;stroke-width:1.59322"
     d="m 143.48689,107.94067 c 4.07546,-13.180675 19.13254,-29.324275 30.53778,-32.741365 7.82104,-2.34324 23.07443,-2.46369 31.06221,-0.245286 11.63632,3.231696 26.60609,18.419713 31.23078,31.686111 l 1.70302,4.8853 h -47.82109 -47.8211 z"
     id="path1864" />
</svg>
