<?xml version="1.0" encoding="UTF-8"?>
<svg version="1.1" xmlns="http://www.w3.org/2000/svg" width="512" height="512">
<path d="M0 0 C8.89516301 7.52842862 16.91253287 15.62097502 23.05078125 25.58203125 C23.63214844 26.48050781 24.21351563 27.37898438 24.8125 28.3046875 C39.77586564 52.42134839 43.47769025 81.60716296 37.64160156 109.15283203 C33.49492907 126.20216728 25.45963569 141.30669756 14.05078125 154.58203125 C13.27541016 155.57396484 13.27541016 155.57396484 12.484375 156.5859375 C-4.08162155 177.13773774 -30.97188104 188.55450887 -56.64013672 191.37988281 C-65.85384049 192.18649592 -74.74844191 191.60433979 -83.94921875 190.58203125 C-83.94921875 197.18203125 -83.94921875 203.78203125 -83.94921875 210.58203125 C-81.30921875 210.91203125 -78.66921875 211.24203125 -75.94921875 211.58203125 C-73.70703125 212.81640625 -73.70703125 212.81640625 -72.07421875 214.33203125 C-71.51992188 214.821875 -70.965625 215.31171875 -70.39453125 215.81640625 C-66.78419382 220.22687252 -66.65592002 224.94072591 -66.640625 230.42578125 C-66.61798136 231.98788121 -66.59485083 233.54997417 -66.57128906 235.11206055 C-66.56214478 235.92411957 -66.55300049 236.73617859 -66.5435791 237.57284546 C-66.05812067 275.80548697 -58.71204866 311.91725817 -32.94921875 341.58203125 C-31.93794922 342.77505859 -31.93794922 342.77505859 -30.90625 343.9921875 C-26.61640053 348.92277951 -22.05512372 353.35153094 -17.19921875 357.70703125 C-8.63734107 365.4614612 -3.74879151 373.18651728 -2.62890625 384.9453125 C-2.24826181 396.55496789 -5.04425147 405.95670724 -12.94921875 414.58203125 C-18.62654669 420.3395097 -25.80168899 425.22981077 -34.09685135 425.70507908 C-34.87484463 425.70415729 -35.65283791 425.70323549 -36.45440674 425.70228577 C-37.35180573 425.70366043 -38.24920471 425.7050351 -39.17379761 425.70645142 C-40.15059479 425.70285614 -41.12739197 425.69926086 -42.13378906 425.69555664 C-43.16825165 425.69570267 -44.20271423 425.69584869 -45.26852417 425.69599915 C-48.68815202 425.69530242 -52.10772541 425.68752119 -55.52734375 425.6796875 C-57.89817271 425.67782247 -60.26900206 425.67639897 -62.63983154 425.67539978 C-68.88038191 425.67158131 -75.12090902 425.6617567 -81.3614502 425.6506958 C-87.72924485 425.64046731 -94.09704325 425.63589907 -100.46484375 425.63085938 C-112.95964564 425.62013387 -125.45443026 425.60306544 -137.94921875 425.58203125 C-138.14763115 426.60889793 -138.14763115 426.60889793 -138.35005188 427.6565094 C-138.52626572 428.55562546 -138.70247955 429.45474152 -138.8840332 430.38110352 C-139.05755814 431.2719313 -139.23108307 432.16275909 -139.40986633 433.08058167 C-143.41731431 451.66662812 -157.12072539 467.47692027 -172.70703125 477.6171875 C-192.51239446 489.61971484 -215.29431573 493.4931641 -238.07421875 488.08203125 C-250.25632224 484.13708554 -261.49551995 478.26921393 -270.94921875 469.58203125 C-271.65433594 468.94523437 -272.35945312 468.3084375 -273.0859375 467.65234375 C-283.21234901 458.04671912 -290.1461972 446.02898784 -294.125 432.6953125 C-294.47087158 431.54458252 -294.81674316 430.39385254 -295.1730957 429.20825195 C-295.42921631 428.34159912 -295.68533691 427.47494629 -295.94921875 426.58203125 C-297.88575066 426.57656281 -297.88575066 426.57656281 -299.86140442 426.57098389 C-312.05781188 426.53396244 -324.25396852 426.47611141 -336.45018482 426.39812851 C-342.71964848 426.35870376 -348.98897272 426.32649056 -355.25854492 426.31103516 C-361.31470091 426.29583592 -367.3704735 426.26133164 -373.42645836 426.21372223 C-375.73114365 426.19894223 -378.03588369 426.19099219 -380.34061623 426.1901474 C-383.5814106 426.18776588 -386.82115555 426.16058971 -390.06176758 426.12792969 C-391.00404709 426.13296005 -391.9463266 426.13799042 -392.91716003 426.14317322 C-403.02297099 425.98670864 -412.6617808 422.77702812 -419.94921875 415.58203125 C-428.90975001 404.99886857 -431.02302965 395.08864634 -430.16064453 381.54394531 C-428.94466526 370.26033169 -420.73188894 361.94326629 -412.63671875 354.76953125 C-406.44998844 349.12077749 -400.90970774 343.36474069 -395.94921875 336.58203125 C-395.55428223 336.04562012 -395.1593457 335.50920898 -394.75244141 334.95654297 C-372.2398215 304.00059349 -366.95229325 269.4638671 -366.640625 232.08984375 C-366.63364153 231.26881416 -366.62665806 230.44778458 -366.61946297 229.60187531 C-366.55778894 221.90101521 -366.52035727 214.20007439 -366.49291992 206.49902344 C-366.47685484 202.23833274 -366.44647588 197.97791837 -366.40815544 193.71737289 C-366.3967063 192.12378791 -366.3905769 190.53015336 -366.39047432 188.93652725 C-366.38920964 174.54797054 -364.59930919 160.64420324 -360.38671875 146.83203125 C-360.13841309 146.01476562 -359.89010742 145.1975 -359.63427734 144.35546875 C-354.99394055 129.8416643 -348.11585329 115.77309511 -338.94921875 103.58203125 C-338.32660156 102.75058594 -337.70398438 101.91914062 -337.0625 101.0625 C-314.8950573 72.51011437 -286.17773154 53.31804367 -250.94921875 44.58203125 C-250.27600586 44.40559082 -249.60279297 44.22915039 -248.90917969 44.04736328 C-238.82498715 41.48181858 -228.67763827 41.25468391 -218.32421875 41.14453125 C-216.36572998 41.11093506 -216.36572998 41.11093506 -214.36767578 41.07666016 C-207.38064397 41.09385399 -202.54486795 41.21837868 -196.94921875 45.58203125 C-192.95127037 50.21123463 -192.56250684 53.73775654 -191.94921875 59.58203125 C-189.34609883 60.25303109 -186.74186477 60.91898463 -184.13671875 61.58203125 C-183.39873047 61.7728125 -182.66074219 61.96359375 -181.90039062 62.16015625 C-178.84386534 62.93466039 -176.11548397 63.58203125 -172.94921875 63.58203125 C-172.74167969 62.68484375 -172.53414063 61.78765625 -172.3203125 60.86328125 C-165.04765622 31.40750184 -148.08123441 7.35242443 -121.9987793 -8.52075195 C-83.84167531 -30.97525573 -34.80180841 -27.05782985 0 0 Z " fill="#FEC006" transform="translate(450.94921875,22.41796875)"/>
<path d="M0 0 C1.30565918 -0.02239746 2.61131836 -0.04479492 3.95654297 -0.06787109 C10.94357478 -0.05067726 15.7793508 0.07384743 21.375 4.4375 C25.08441885 8.73261656 26.6477153 12.80865615 26.375 18.4375 C24.60624187 24.23509608 21.77563393 28.39219443 16.52075195 31.55273438 C14.04549719 32.57336508 12.15320007 32.72227961 9.48046875 32.78125 C8.0584314 32.82330566 8.0584314 32.82330566 6.60766602 32.86621094 C5.60276123 32.88973633 4.59785645 32.91326172 3.5625 32.9375 C-30.30227024 34.12878929 -61.0070732 45.42638089 -84.625 70.4375 C-106.28005708 94.76832563 -114.7264944 123.69204633 -114.79366493 155.68808365 C-114.80093954 158.44275355 -114.81668987 161.1972562 -114.83500671 163.95187378 C-114.88692968 171.77892589 -114.93525893 179.60588528 -114.95092773 187.43310547 C-115.0129222 214.31657183 -115.4296064 239.84680051 -124.625 265.4375 C-125.05960642 266.724919 -125.4931852 268.01268533 -125.92578125 269.30078125 C-135.25423669 296.32344829 -153.34514294 325.53801318 -176.6875 342.6875 C-178.88261216 344.3055783 -178.88261216 344.3055783 -179.0625 347.0625 C-178.82420496 349.61649853 -178.82420496 349.61649853 -176.625 351.4375 C-173.97839304 351.74185979 -173.97839304 351.74185979 -170.82750034 351.68918228 C-169.58527952 351.69439778 -168.34305869 351.69961327 -167.06319481 351.70498681 C-165.67197651 351.70066202 -164.28075878 351.69614868 -162.88954163 351.69146729 C-161.42152309 351.69376965 -159.9535057 351.69694466 -158.48549074 351.70092177 C-154.43680993 351.70930938 -150.3882228 351.70512662 -146.33954155 351.69894934 C-141.97887211 351.69444193 -137.61821929 351.70140009 -133.2575531 351.70690918 C-124.70893075 351.71582343 -116.16034343 351.71387209 -107.61171968 351.7080839 C-100.6662324 351.70357508 -93.72075497 351.70295111 -86.77526665 351.70513153 C-85.29492947 351.70559123 -85.29492947 351.70559123 -83.78468649 351.70606022 C-81.78009474 351.70669964 -79.77550301 351.70734807 -77.77091127 351.7080054 C-58.95355983 351.71371472 -40.13622785 351.70714153 -21.3188796 351.69640467 C-5.15959813 351.68747 10.9996546 351.68901934 27.15893555 351.69824219 C45.90540956 351.70893659 64.6518665 351.71316388 83.39834315 351.70701766 C85.39604572 351.70638054 87.3937483 351.70575179 89.39145088 351.70513153 C90.37446203 351.70482298 91.35747317 351.70451443 92.37027253 351.70419653 C99.30991645 351.70246699 106.24954957 351.70539028 113.18919182 351.71009064 C121.64279767 351.71569033 130.09636636 351.71420235 138.54996794 351.70352915 C142.86621724 351.6982599 147.18240452 351.6962369 151.49865341 351.70282745 C155.44572623 351.7087633 159.3926792 351.70555118 163.33974106 351.69487235 C164.77175627 351.69262821 166.2037815 351.69379715 167.63579034 351.69862393 C169.57440645 351.70465976 171.51305071 351.69730453 173.4516592 351.68918228 C175.07048949 351.68869522 175.07048949 351.68869522 176.72202343 351.68819833 C179.60371938 351.62732664 179.60371938 351.62732664 182.375 349.4375 C182.6252157 346.35384129 182.6252157 346.35384129 182.375 343.4375 C181.50584961 343.05295654 181.50584961 343.05295654 180.61914062 342.66064453 C152.49870023 327.33390319 134.2987537 286.66157394 125.5625 257.6875 C120.46851617 239.9344156 119.15728771 222.38738966 119.07983398 203.99291992 C119.06822344 202.0719471 119.04763179 200.15100873 119.01831055 198.23022461 C118.97568307 195.42800402 118.95948433 192.62672294 118.94921875 189.82421875 C118.93171066 188.97099533 118.91420258 188.11777191 118.89616394 187.23869324 C118.91590731 181.80668522 119.77047743 178.75098749 123.375 174.4375 C127.59192462 170.72259022 131.42234882 169.62003586 136.91015625 169.2734375 C142.1219065 169.62033688 145.23799733 172.21073396 148.75 176 C151.59703727 180.27055591 151.53715858 184.13185864 151.5859375 189.0859375 C151.61150967 190.65455418 151.63790899 192.22315754 151.66503906 193.79174805 C151.67829224 194.61202484 151.69154541 195.43230164 151.7052002 196.2774353 C152.3822698 234.59044292 159.53067622 270.67889028 185.375 300.4375 C186.38626953 301.63052734 186.38626953 301.63052734 187.41796875 302.84765625 C191.70781822 307.77824826 196.26909503 312.20699969 201.125 316.5625 C209.68687768 324.31692995 214.57542724 332.04198603 215.6953125 343.80078125 C216.07595694 355.41043664 213.27996728 364.81217599 205.375 373.4375 C199.69767206 379.19497845 192.52252976 384.08527952 184.2273674 384.56054783 C183.44937412 384.55962604 182.67138084 384.55870424 181.86981201 384.55775452 C180.97241302 384.55912918 180.07501404 384.56050385 179.15042114 384.56192017 C178.17362396 384.55832489 177.19682678 384.55472961 176.19042969 384.55102539 C175.1559671 384.55117142 174.12150452 384.55131744 173.05569458 384.5514679 C169.63606673 384.55077117 166.21649334 384.54298994 162.796875 384.53515625 C160.42604604 384.53329122 158.05521669 384.53186772 155.68438721 384.53086853 C149.44383684 384.52705006 143.20330973 384.51722545 136.96276855 384.50616455 C130.5949739 384.49593606 124.2271755 384.49136782 117.859375 384.48632812 C105.36457311 384.47560262 92.86978849 384.45853419 80.375 384.4375 C80.1765876 385.46436668 80.1765876 385.46436668 79.97416687 386.51197815 C79.79795303 387.41109421 79.6217392 388.31021027 79.44018555 389.23657227 C79.26666061 390.12740005 79.09313568 391.01822784 78.91435242 391.93605042 C74.90690444 410.52209687 61.20349336 426.33238902 45.6171875 436.47265625 C25.81182429 448.47518359 3.02990302 452.34863285 -19.75 446.9375 C-31.93210349 442.99255429 -43.1713012 437.12468268 -52.625 428.4375 C-53.33011719 427.80070312 -54.03523437 427.16390625 -54.76171875 426.5078125 C-64.88813026 416.90218787 -71.82197845 404.88445659 -75.80078125 391.55078125 C-76.14665283 390.40005127 -76.49252441 389.24932129 -76.84887695 388.0637207 C-77.10499756 387.19706787 -77.36111816 386.33041504 -77.625 385.4375 C-79.56153191 385.43203156 -79.56153191 385.43203156 -81.53718567 385.42645264 C-93.73359313 385.38943119 -105.92974977 385.33158016 -118.12596607 385.25359726 C-124.39542973 385.21417251 -130.66475397 385.18195931 -136.93432617 385.16650391 C-142.99048216 385.15130467 -149.04625475 385.11680039 -155.10223961 385.06919098 C-157.4069249 385.05441098 -159.71166494 385.04646094 -162.01639748 385.04561615 C-165.25719185 385.04323463 -168.4969368 385.01605846 -171.73754883 384.98339844 C-172.67982834 384.9884288 -173.62210785 384.99345917 -174.59294128 384.99864197 C-184.69875224 384.84217739 -194.33756205 381.63249687 -201.625 374.4375 C-210.58553126 363.85433732 -212.6988109 353.94411509 -211.83642578 340.39941406 C-210.62044651 329.11580044 -202.40767019 320.79873504 -194.3125 313.625 C-188.12576969 307.97624624 -182.58548899 302.22020944 -177.625 295.4375 C-177.23006348 294.90108887 -176.83512695 294.36467773 -176.42822266 293.81201172 C-153.91560275 262.85606224 -148.6280745 228.31933585 -148.31640625 190.9453125 C-148.30942278 190.12428291 -148.30243931 189.30325333 -148.29524422 188.45734406 C-148.23357019 180.75648396 -148.19613852 173.05554314 -148.16870117 165.35449219 C-148.15263609 161.09380149 -148.12225713 156.83338712 -148.08393669 152.57284164 C-148.07248755 150.97925666 -148.06635815 149.38562211 -148.06625557 147.791996 C-148.06499089 133.40343929 -146.27509044 119.49967199 -142.0625 105.6875 C-141.81419434 104.87023437 -141.56588867 104.05296875 -141.31005859 103.2109375 C-136.6697218 88.69713305 -129.79163454 74.62856386 -120.625 62.4375 C-120.00238281 61.60605469 -119.37976563 60.77460937 -118.73828125 59.91796875 C-96.57083855 31.36558312 -67.85351279 12.17351242 -32.625 3.4375 C-31.95178711 3.26105957 -31.27857422 3.08461914 -30.58496094 2.90283203 C-20.5007684 0.33728733 -10.35341952 0.11015266 0 0 Z " fill="#000000" transform="translate(232.625,63.5625)"/>
<path d="M0 0 C10.1348584 7.87968461 19.24457763 16.9124032 26 27.875 C26.58136719 28.77347656 27.16273438 29.67195313 27.76171875 30.59765625 C42.72508439 54.71431714 46.426909 83.90013171 40.59082031 111.44580078 C36.44414782 128.49513603 28.40885444 143.59966631 17 156.875 C16.22462891 157.86693359 16.22462891 157.86693359 15.43359375 158.87890625 C-1.13993571 179.44005182 -28.0340614 190.85017889 -53.71289062 193.66845703 C-80.61295167 196.0977324 -109.08042991 188.28060777 -130 170.875 C-133.41676665 167.95787869 -136.72924554 164.95435059 -140 161.875 C-140.61488281 161.32457031 -141.22976563 160.77414063 -141.86328125 160.20703125 C-160.13132591 143.19885174 -169.93292445 116.69190023 -171.12768555 92.2644043 C-172.03691269 60.73570266 -162.95098446 34.55476717 -141.2578125 11.20703125 C-104.1624214 -27.10775852 -42.90057454 -30.71546371 0 0 Z " fill="#030100" transform="translate(448,20.125)"/>
<path d="M0 0 C12.35679806 10.4310633 21.17690818 22.69550233 25.8125 38.25 C26.16957031 39.42820313 26.52664063 40.60640625 26.89453125 41.8203125 C31.75519201 61.79807416 26.86499088 81.89241511 16.8125 99.25 C14.695377 102.48060986 12.39179647 105.37772057 9.8125 108.25 C9.08417969 109.07113281 8.35585938 109.89226562 7.60546875 110.73828125 C-3.51990744 122.5825832 -20.2270418 132.21782761 -36.79614258 133.44287109 C-50.50511571 133.83932724 -62.4886454 133.70473527 -75.1875 128.25 C-76.26 127.80398437 -77.3325 127.35796875 -78.4375 126.8984375 C-95.40071661 119.1524789 -109.01714971 104.49265296 -116.00146484 87.23925781 C-123.48754588 67.11290251 -123.47892407 46.6320894 -114.50292969 27.00341797 C-105.25461526 7.95297086 -89.91790664 -5.14542353 -70.234375 -12.47753906 C-45.99802718 -20.74104993 -20.16805841 -15.29020242 0 0 Z " fill="#F34235" transform="translate(430.1875,47.75)"/>
<path d="M0 0 C29.7 0 59.4 0 90 0 C88.16260615 9.18696927 81.52655789 17.70776855 73.875 23.0625 C61.32630509 31.03658707 48.41603989 34.2242519 33.671875 31.3515625 C22.08282593 27.802037 11.90542751 21.05847176 5 11 C3.35 7.37 1.7 3.74 0 0 Z " fill="#FC9E00" transform="translate(189,448)"/>
<path d="M0 0 C0.66 0.33 1.32 0.66 2 1 C-3.94 6.94 -9.88 12.88 -16 19 C-16.66 18.67 -17.32 18.34 -18 18 C-12.37361021 11.50903494 -6.55902307 5.55113536 0 0 Z " fill="#4A110E" transform="translate(318,21)"/>
</svg>
