<?xml version="1.0" encoding="UTF-8"?>
<svg version="1.1" xmlns="http://www.w3.org/2000/svg" width="512" height="512">
<path d="M0 0 C1.72751722 1.01192293 3.45504237 2.02383261 5.18304443 3.03492737 C6.96674629 4.07991031 8.74836583 5.12837773 10.52978516 6.17724609 C14.98887514 8.79863012 19.47254499 11.37695124 23.95703125 13.95458984 C27.17663512 15.80625138 30.39129554 17.66627482 33.60546875 19.52734375 C38.03135102 22.08699588 42.47324099 24.61593628 46.92578125 27.12890625 C49.11722989 28.37752977 51.30863767 29.62622502 53.5 30.875 C54.51916504 31.4429126 55.53833008 32.0108252 56.58837891 32.59594727 C57.5272998 33.13405029 58.4662207 33.67215332 59.43359375 34.2265625 C60.6700061 34.92386475 60.6700061 34.92386475 61.93139648 35.63525391 C64.60291303 37.65947322 65.6181662 39.2040536 67.0625 42.25 C67.36106304 45.20179916 67.50013419 47.94497069 67.49487305 50.89575195 C67.51016052 52.18431847 67.51016052 52.18431847 67.52575684 53.49891663 C67.5558694 56.32877133 67.56515013 59.15828742 67.57421875 61.98828125 C67.59106672 63.95412825 67.60921712 65.91996448 67.62861633 67.88578796 C67.67610956 73.05275102 67.70592339 78.21967042 67.73205566 83.38677979 C67.76186452 88.66223775 67.80839377 93.93754534 67.85351562 99.21289062 C67.9395411 109.55851508 68.00688984 119.90417048 68.0625 130.25 C68.57236356 130.53251429 69.08222712 130.81502857 69.60754108 131.1061039 C71.95198596 132.40559491 74.29594188 133.7059655 76.63989258 135.00634766 C77.4417524 135.45063614 78.24361221 135.89492462 79.06977081 136.35267639 C85.68266595 140.02267993 92.23059444 143.791083 98.75 147.625 C100.7537503 148.79974521 102.75765246 149.97423144 104.76171875 151.1484375 C106.04308716 151.90133057 106.04308716 151.90133057 107.3503418 152.66943359 C110.57657227 154.54958627 113.81839415 156.40086716 117.0625 158.25 C117.07708252 157.26193359 117.09166504 156.27386719 117.10668945 155.25585938 C117.16506335 151.55791687 117.24229024 147.86055864 117.32495117 144.16308594 C117.35801798 142.56878202 117.38610559 140.97436617 117.40893555 139.37988281 C117.44282072 137.07569073 117.49514737 134.77250775 117.55078125 132.46875 C117.55717117 131.76633179 117.5635611 131.06391357 117.57014465 130.34020996 C117.80223567 122.36586745 120.29152393 115.89273216 126.0625 110.25 C132.05750603 106.14075534 137.45487226 105.73139779 144.5625 106 C145.4803125 106.01804687 146.398125 106.03609375 147.34375 106.0546875 C149.58446092 106.10136898 151.82289799 106.16681478 154.0625 106.25 C154.05805878 105.18004288 154.05361755 104.11008575 154.04904175 103.00770569 C154.00841316 92.90053109 153.97847605 82.79337317 153.95887566 72.68613529 C153.94846001 67.49051052 153.93434142 62.29495193 153.91162109 57.09936523 C153.88981348 52.08081351 153.8779147 47.06232525 153.87274551 42.04372978 C153.86906395 40.13368163 153.86187489 38.22363677 153.85103989 36.3136158 C153.83641965 33.62835437 153.83452644 30.94335178 153.83544922 28.25805664 C153.82825867 27.47689987 153.82106812 26.6957431 153.81365967 25.89091492 C153.85342954 15.12289554 156.52558534 7.15299166 163.953125 -0.765625 C171.4059239 -7.74895625 178.03749784 -9.25324543 188.12890625 -9.16992188 C198.00215715 -8.80938181 204.3045757 -4.70759025 211.0625 2.25 C219.91513302 12.53819513 218.46582889 27.52791622 218.35546875 40.234375 C218.34986247 42.14536198 218.34559726 44.05635333 218.34260559 45.96734619 C218.33123797 50.95845782 218.3018418 55.94930092 218.26849365 60.94030762 C218.23761701 66.04870981 218.22406292 71.15715607 218.20898438 76.265625 C218.17696318 86.26053362 218.12586647 96.25524434 218.0625 106.25 C219.34125 106.20359375 220.62 106.1571875 221.9375 106.109375 C223.64580979 106.07182973 225.35414508 106.03543255 227.0625 106 C227.90167969 105.96648437 228.74085938 105.93296875 229.60546875 105.8984375 C237.12208949 105.78190074 242.14981611 107.79040027 247.875 112.625 C252.06077181 117.64792618 254.24243201 122.79735519 254.11978149 129.31257629 C254.10789291 130.1125705 254.09600433 130.9125647 254.08375549 131.73680115 C254.05704018 133.04041344 254.05704018 133.04041344 254.02978516 134.37036133 C254.00036106 136.28277083 253.97163636 138.19519118 253.94351196 140.10762024 C253.92748554 141.12099268 253.91145912 142.13436512 253.89494705 143.17844582 C253.80523433 149.69958537 253.78711522 156.22138717 253.75860023 162.7430315 C253.72958777 168.46170852 253.67380676 174.17762585 253.55859375 179.89526367 C253.44833065 185.43808679 253.41278392 190.97708889 253.42609787 196.52094078 C253.41816243 198.6216678 253.38402736 200.722482 253.32191849 202.82230568 C252.82078691 215.65500163 252.82078691 215.65500163 258.38104248 226.79159546 C261.49252675 230.06738864 264.86627564 232.93388269 268.37823105 235.76752281 C271.96132217 238.92132485 274.10553166 242.96294483 276.0625 247.25 C276.38347656 247.94480469 276.70445312 248.63960938 277.03515625 249.35546875 C279.87126721 256.17532628 280.18627984 263.28785689 280.19621277 270.60533142 C280.19847833 271.30002063 280.20074388 271.99470984 280.20307809 272.71045023 C280.20935532 275.0139341 280.20859282 277.31735819 280.20776367 279.62084961 C280.21075903 281.28228327 280.21416242 282.94371625 280.21794128 284.60514832 C280.22674563 289.101007 280.22911785 293.59684664 280.22975707 298.09271312 C280.23046942 300.90498154 280.2326072 303.71724517 280.23525429 306.52951241 C280.2444948 316.35000032 280.24859066 326.17047468 280.24780273 335.9909668 C280.24720178 345.13069834 280.25776036 354.2703709 280.2735464 363.41008753 C280.28663777 371.27104911 280.29198598 379.13199145 280.29134732 386.99296385 C280.29109288 391.6818786 280.29391494 396.37074085 280.30452538 401.0596447 C280.31423366 405.46984022 280.31426686 409.87993331 280.30700874 414.29013252 C280.30596641 415.90375545 280.30830486 417.51738484 280.3143692 419.1309967 C280.38901776 440.37813411 280.38901776 440.37813411 273.78515625 448.5234375 C271.13914312 451.17545066 268.43409553 452.62904061 265.0625 454.25 C264.4025 454.58 263.7425 454.91 263.0625 455.25 C261.04893735 455.35045435 259.03199001 455.38511593 257.01593018 455.39044189 C255.08114304 455.39900711 255.08114304 455.39900711 253.10726929 455.40774536 C251.66949472 455.40899079 250.23172005 455.41011587 248.79394531 455.41113281 C247.28616209 455.41576001 245.77838004 455.42078453 244.27059937 455.42617798 C240.16714047 455.43931528 236.06369794 455.44574976 231.96022129 455.45018864 C229.39692781 455.4531178 226.83363882 455.45722235 224.2703476 455.46169281 C216.25169179 455.47537251 208.23304622 455.48503631 200.21437955 455.4888947 C190.95599229 455.49337391 181.69775278 455.51091339 172.43941045 455.5398953 C165.28519235 455.56151338 158.13101581 455.57159908 150.97676539 455.57293582 C146.70309319 455.57398395 142.42955977 455.57989312 138.15592194 455.59775543 C134.13400138 455.61423788 130.11232392 455.61639084 126.09038162 455.60761642 C124.61579106 455.60684608 123.14118742 455.61118842 121.66662979 455.62107468 C119.65012779 455.63379919 117.63352808 455.62612384 115.61700439 455.61749268 C113.92572355 455.61969252 113.92572355 455.61969252 112.20027542 455.6219368 C106.25420237 454.91711791 101.08259043 451.64378898 97.0625 447.25 C93.06111449 441.10183941 91.93496473 435.04033968 91.94224548 427.74502563 C91.94018349 426.14237854 91.94018349 426.14237854 91.93807983 424.50735474 C91.94167511 423.35073334 91.94527039 422.19411194 91.94897461 421.00244141 C91.94882858 419.77261536 91.94868256 418.54278931 91.9485321 417.2756958 C91.94910798 413.91662978 91.95411148 410.55762578 91.96110606 407.19857073 C91.96737184 403.68319412 91.96794595 400.16781663 91.96913147 396.6524353 C91.97223529 390.00150854 91.98043587 383.35059828 91.99048096 376.69967878 C92.00167159 369.12532087 92.00715998 361.55096215 92.01217639 353.97659802 C92.02261929 338.4010558 92.04020032 322.82553003 92.0625 307.25 C89.20033937 308.82805369 86.34023964 310.40980783 83.48046875 311.9921875 C82.67798706 312.43457764 81.87550537 312.87696777 81.04870605 313.33276367 C75.49284124 316.4100758 70.08125706 319.63497694 64.73828125 323.0703125 C61.27108546 324.59891561 58.83716961 324.51150493 55.0625 324.25 C52.05908203 323.03173828 52.05908203 323.03173828 49.0703125 321.3203125 C47.40826782 320.38251953 47.40826782 320.38251953 45.71264648 319.42578125 C44.5373658 318.7425862 43.36232203 318.05898344 42.1875 317.375 C40.96430569 316.67718745 39.74042207 315.98058187 38.51586914 315.28515625 C35.01963025 313.29337962 31.53963076 311.27495136 28.0625 309.25 C27.23830566 308.77143555 26.41411133 308.29287109 25.56494141 307.79980469 C22.23731331 305.86292917 18.92165916 303.90704419 15.61328125 301.9375 C8.92541573 297.9674063 2.17012059 294.11136669 -4.57424927 290.23828125 C-6.23484681 289.28463988 -7.89477983 288.32984165 -9.5546875 287.375 C-10.52003418 286.82070313 -11.48538086 286.26640625 -12.47998047 285.6953125 C-14.33439593 284.60469661 -16.14746997 283.44335335 -17.9375 282.25 C-22.20247554 282.56166573 -25.22133358 283.69694265 -28.859375 285.8828125 C-29.78903076 286.43404785 -30.71868652 286.9852832 -31.67651367 287.55322266 C-33.1669519 288.45500244 -33.1669519 288.45500244 -34.6875 289.375 C-36.84459316 290.65702248 -39.00216185 291.93824514 -41.16015625 293.21875 C-42.83295654 294.21648437 -42.83295654 294.21648437 -44.53955078 295.234375 C-51.11905646 299.13726327 -57.75555318 302.94179342 -64.39086914 306.7487793 C-69.6174227 309.74930317 -74.82731211 312.77065625 -80 315.86328125 C-80.95108643 316.42515137 -81.90217285 316.98702148 -82.88208008 317.56591797 C-84.65481314 318.61393693 -86.42084064 319.6734201 -88.1784668 320.74658203 C-92.92894818 323.53403457 -96.31210053 325.33273818 -101.9375 324.25 C-105.91852572 322.48649081 -109.62702611 320.33445106 -113.375 318.125 C-114.47465088 317.49263428 -115.57430176 316.86026855 -116.70727539 316.20874023 C-120.12632438 314.23751769 -123.53261807 312.24557322 -126.9375 310.25 C-128.95787084 309.07602662 -130.97868605 307.90281756 -133 306.73046875 C-136.93014681 304.4470515 -140.85363269 302.15268207 -144.7734375 299.8515625 C-149.16059054 297.28017569 -153.56313398 294.73688563 -157.9765625 292.2109375 C-158.85856071 291.70538582 -158.85856071 291.70538582 -159.75837708 291.18962097 C-162.60281488 289.55923388 -165.44893933 287.93207874 -168.29858398 286.31079102 C-183.16859706 277.78780588 -183.16859706 277.78780588 -184.9375 274.25 C-185.05721545 271.19502468 -185.11592757 268.16218537 -185.13037109 265.10620117 C-185.14263733 263.68403542 -185.14263733 263.68403542 -185.15515137 262.23313904 C-185.18002346 259.08642209 -185.19652542 255.93975028 -185.2109375 252.79296875 C-185.21626118 251.71985254 -185.22158485 250.64673634 -185.22706985 249.54110146 C-185.25380843 243.86196227 -185.2731817 238.18284512 -185.28759766 232.50366211 C-185.30425359 226.63214143 -185.34903768 220.76118117 -185.3999691 214.88987255 C-185.43359251 210.3800236 -185.4451697 205.87030852 -185.45082474 201.36034584 C-185.45755001 199.19576036 -185.47280499 197.03118407 -185.49671555 194.8667202 C-185.52826611 191.83800689 -185.52841888 188.81081631 -185.52099609 185.78198242 C-185.53740143 184.88672852 -185.55380676 183.99147461 -185.57070923 183.0690918 C-185.52581211 178.59707253 -185.40601867 176.83369023 -182.51597595 173.23321533 C-180.4852666 171.67131055 -178.61324678 170.25838907 -176.35546875 169.06640625 C-175.68402832 168.70401855 -175.01258789 168.34163086 -174.32080078 167.96826172 C-173.23387939 167.39615967 -173.23387939 167.39615967 -172.125 166.8125 C-170.49996386 165.933459 -168.87633709 165.05180907 -167.25390625 164.16796875 C-165.95864014 163.46293213 -165.95864014 163.46293213 -164.63720703 162.74365234 C-159.89699724 160.12106205 -155.23319833 157.36888081 -150.5625 154.625 C-141.9010377 149.55125125 -133.22138786 144.51081951 -124.512146 139.51959229 C-123.26031651 138.80179142 -122.00904861 138.08301024 -120.75836182 137.36322021 C-119.01102926 136.35794011 -117.26142189 135.35661712 -115.51171875 134.35546875 C-114.50713623 133.77949951 -113.50255371 133.20353027 -112.4675293 132.61010742 C-109.9375 131.25 -109.9375 131.25 -106.9375 130.25 C-106.94860306 129.14610428 -106.95970612 128.04220856 -106.97114563 126.90486145 C-107.07249965 116.50219607 -107.14745493 106.09963084 -107.19656086 95.69658375 C-107.22265559 90.34821305 -107.25805188 85.00024092 -107.31469727 79.65209961 C-107.36902072 74.49088817 -107.39892146 69.33006009 -107.41188622 64.16858482 C-107.42112545 62.19935762 -107.43916769 60.23015143 -107.46615028 58.26108742 C-107.50244513 55.5027799 -107.50744519 52.74605669 -107.50512695 49.98754883 C-107.52310333 49.17330948 -107.54107971 48.35907013 -107.55960083 47.52015686 C-107.52134764 43.31415604 -107.3264181 41.73610369 -104.60783386 38.33818054 C-101.47000156 35.88441981 -98.21116482 33.82750538 -94.75 31.875 C-93.65836548 31.24597778 -93.65836548 31.24597778 -92.54467773 30.60424805 C-90.91254162 29.66466562 -89.27838895 28.72858023 -87.64257812 27.79541016 C-84.74051326 26.13746154 -81.84623271 24.4664962 -78.953125 22.79296875 C-70.49609727 17.90256388 -62.0302901 13.02743239 -53.56071472 8.15879822 C-51.78620926 7.13849575 -50.01206263 6.11757224 -48.23803711 5.09643555 C-46.01432993 3.81666679 -43.78992351 2.53811196 -41.56469727 1.26098633 C-36.51505918 -1.64601629 -31.51812892 -4.580133 -26.66064453 -7.80029297 C-17.71066686 -12.73305199 -7.59452674 -4.5126648 0 0 Z " fill="#1B2C3D" transform="translate(208.9375,32.75)"/>
<path d="M0 0 C2.79605246 0.99617205 5.20761559 2.36147912 7.77929688 3.84619141 C8.89675293 4.48814453 10.01420898 5.13009766 11.16552734 5.79150391 C12.37798409 6.49453509 13.59038506 7.19766247 14.80273438 7.90087891 C16.05525136 8.62266697 17.30802187 9.34401526 18.56103516 10.06494141 C21.79926046 11.92954765 25.03418899 13.79979597 28.26831055 15.67150879 C31.28314951 17.4152275 34.30076116 19.15412854 37.31835938 20.89306641 C41.5829968 23.35121918 45.84589132 25.81234489 50.10742188 28.27587891 C54.58377494 30.86094831 59.06822684 33.4314474 63.55712891 35.99462891 C64.19747574 36.36040039 64.83782257 36.72617188 65.49757385 37.10302734 C67.05756508 37.99408691 68.61764084 38.88499847 70.17773438 39.77587891 C70.5727567 50.29326259 70.87421496 60.80886705 71.0585413 71.3321743 C71.14704889 76.21989361 71.26688312 81.1025189 71.46020508 85.98730469 C71.64585321 90.70809802 71.74672883 95.42401912 71.79064751 100.14818192 C71.82190734 101.94374009 71.88297413 103.73904931 71.97514534 105.53251266 C72.53750474 116.9353857 72.53750474 116.9353857 70.17773438 121.77587891 C66.04733065 126.08523427 60.67160482 128.50210051 55.26396084 130.84203911 C52.27654341 132.17927135 49.54647888 133.81754233 46.74414062 135.50634766 C43.65294551 137.28876759 40.55944634 139.06706359 37.46411133 140.84228516 C32.19550403 143.86745363 26.93885894 146.90574924 21.72358704 150.02180481 C19.34765965 151.44021925 16.96556782 152.84809384 14.58297729 154.25527954 C12.89631198 155.2574141 11.21867701 156.27469765 9.54125977 157.29223633 C8.51766357 157.89527588 7.49406738 158.49831543 6.43945312 159.11962891 C5.09306763 159.9269043 5.09306763 159.9269043 3.71948242 160.75048828 C0.60220709 162.00805781 -0.66159459 161.84877284 -3.82226562 160.77587891 C-5.75753704 159.82133224 -7.65518703 158.788788 -9.52148438 157.70556641 C-10.63579834 157.06361328 -11.7501123 156.42166016 -12.89819336 155.76025391 C-14.10214535 155.05729085 -15.30600042 154.35416177 -16.50976562 153.65087891 C-17.75687488 152.92888878 -19.00435766 152.20754351 -20.25219727 151.48681641 C-22.83033142 149.99649396 -25.40619496 148.50235114 -27.98046875 147.00537109 C-31.64411799 144.8765188 -35.3176333 142.76523905 -38.99414062 140.65869141 C-41.24941586 139.36453715 -43.50462692 138.07027106 -45.75976562 136.77587891 C-47.29153442 135.89778564 -47.29153442 135.89778564 -48.85424805 135.00195312 C-50.78112713 133.89159082 -52.69704874 132.76187304 -54.598526 131.60855103 C-57.78551433 129.71448064 -57.78551433 129.71448064 -61.20465088 128.34216309 C-69.84889398 124.24977627 -69.84889398 124.24977627 -71.54370308 119.94229126 C-72.67742774 114.36962247 -72.31243657 108.70525494 -72.09179688 103.05712891 C-72.06752396 101.2301693 -72.04903131 99.40312458 -72.03605652 97.5760498 C-71.98661519 92.78644659 -71.8591253 88.00203903 -71.71490479 83.21447754 C-71.58146999 78.32159731 -71.52245197 73.4278699 -71.45703125 68.53369141 C-71.31796173 58.94548128 -71.09635759 49.36111342 -70.82226562 39.77587891 C-70.04639603 39.33275864 -69.27052643 38.88963837 -68.47114563 38.43309021 C-65.52005404 36.74752489 -62.56905693 35.06179436 -59.61811829 33.3759613 C-58.35450304 32.65411637 -57.09085296 31.93233241 -55.8271637 31.21061707 C-46.87990877 26.10060615 -37.94089454 20.97652831 -29.00976562 15.83837891 C-27.88354797 15.1906955 -26.75733032 14.54301208 -25.59698486 13.8757019 C-21.02725835 11.24517734 -16.48137764 8.59151519 -12.00585938 5.80322266 C-11.30630127 5.36937256 -10.60674316 4.93552246 -9.88598633 4.48852539 C-8.10979929 3.37754176 -6.34435939 2.24942387 -4.58007812 1.11962891 C-1.82226562 -0.22412109 -1.82226562 -0.22412109 0 0 Z " fill="#EDAD64" transform="translate(110.822265625,177.22412109375)"/>
<path d="M0 0 C3.53746625 1.04559568 6.59115987 2.82304807 9.75390625 4.6953125 C10.67703613 5.23849121 11.60016602 5.78166992 12.55126953 6.34130859 C13.54497559 6.92992676 14.53868164 7.51854492 15.5625 8.125 C24.88169854 13.60476363 34.23355851 19.02030513 43.625 24.375 C44.74849854 25.0158252 45.87199707 25.65665039 47.02954102 26.31689453 C50.35280807 28.21164766 53.67640411 30.10582373 57 32 C61.62 34.64 66.24 37.28 71 40 C71 67.39 71 94.78 71 123 C62.75 127.62 54.5 132.24 46 137 C31.17738635 145.57069713 31.17738635 145.57069713 16.484375 154.359375 C15.61989746 154.87991455 14.75541992 155.4004541 13.86474609 155.93676758 C12.2550294 156.90704886 10.6531158 157.89044844 9.06103516 158.8894043 C8.34737793 159.31648682 7.6337207 159.74356934 6.8984375 160.18359375 C6.28661621 160.56056396 5.67479492 160.93753418 5.04443359 161.32592773 C1.08684963 162.63078674 -2.19228539 161.38246273 -5.83886719 159.65576172 C-6.81500977 159.08615723 -7.79115234 158.51655273 -8.796875 157.9296875 C-9.90796631 157.28773438 -11.01905762 156.64578125 -12.16381836 155.984375 C-13.35932161 155.28143598 -14.55471278 154.5783063 -15.75 153.875 C-16.99241842 153.15278241 -18.2353464 152.43144077 -19.47875977 151.7109375 C-22.04654025 150.22152717 -24.61142412 148.72729713 -27.17431641 147.22949219 C-30.82873424 145.09611858 -34.49609032 142.98595624 -38.16796875 140.8828125 C-40.42450023 139.58857839 -42.6810115 138.29430905 -44.9375 137 C-46.46938965 136.12190674 -46.46938965 136.12190674 -48.03222656 135.22607422 C-49.95915914 134.11559057 -51.87553407 132.98647195 -53.7780304 131.83462524 C-56.96347534 129.94232432 -56.96347534 129.94232432 -60.36631775 128.54870605 C-64.35210939 126.63876965 -66.85054859 125.12852659 -70 122 C-71.96122015 115.9455751 -71.83581856 110.09521737 -71.7265625 103.78125 C-71.73533177 101.99578626 -71.74795867 100.2103377 -71.76425171 98.42492676 C-71.78336742 94.69144227 -71.75575843 90.96201435 -71.69482422 87.22900391 C-71.62071459 82.45799316 -71.66339437 77.69648169 -71.74126625 72.9258194 C-71.78839879 69.24124376 -71.77322975 65.55889761 -71.73960495 61.87425232 C-71.73097368 60.11688593 -71.74143409 58.35931265 -71.77183914 56.60218811 C-71.84583757 51.12455165 -71.69520102 46.24030108 -70 41 C-66.06745782 37.08113397 -62.10275194 35.20501157 -57 33 C-54.82621459 31.77252743 -52.66398375 30.52412169 -50.51953125 29.24609375 C-48.28499672 27.97455254 -46.04928381 26.7050803 -43.8125 25.4375 C-41.37177449 24.04926779 -38.93202866 22.65931697 -36.4921875 21.26953125 C-35.8768364 20.91928894 -35.26148529 20.56904663 -34.62748718 20.20819092 C-28.45965979 16.69631015 -22.3052941 13.16123043 -16.15658569 9.61599731 C-14.46726455 8.6421583 -12.77721772 7.66957851 -11.0871582 6.69702148 C-9.5570813 5.81445679 -9.5570813 5.81445679 -7.99609375 4.9140625 C-7.10075928 4.3979541 -6.2054248 3.8818457 -5.28295898 3.35009766 C-3.48811936 2.28866432 -1.73499745 1.15666497 0 0 Z " fill="#EBC764" transform="translate(188,41)"/>
<path d="M0 0 C2.64548501 1.25280271 5.20120022 2.58473052 7.75439453 4.01635742 C8.74383057 4.57009033 9.7332666 5.12382324 10.75268555 5.69433594 C11.8089917 6.29044678 12.86529785 6.88655762 13.95361328 7.50073242 C15.04923584 8.11682373 16.1448584 8.73291504 17.27368164 9.36767578 C28.79913421 15.86923426 40.29714873 22.43659992 51.64111328 29.25073242 C52.31837967 29.57292755 52.99564606 29.89512268 53.69343567 30.2270813 C59.15626564 33.06357346 59.15626564 33.06357346 60.45280457 36.23817444 C60.85247397 38.70160648 60.98303285 41.05211551 61.02001953 43.54760742 C61.07323868 44.9008889 61.07323868 44.9008889 61.12753296 46.2815094 C61.21127964 49.19038485 61.21748322 52.09077095 61.20361328 55.00073242 C61.20869904 55.98359222 61.21378479 56.96645203 61.21902466 57.97909546 C61.16924236 78.0930015 61.16924236 78.0930015 53.89477539 85.63598633 C50.90892367 88.12047178 47.8243418 90.40725605 44.63671875 92.62524414 C39.13310055 97.10812767 36.81793909 104.72025498 34.64111328 111.25073242 C34.81837421 113.42548325 35.04944953 115.5959901 35.30908203 117.76245117 C36.90616433 138.09395962 36.90616433 138.09395962 32.41241455 143.81500244 C25.88882063 150.03494842 17.02060753 153.62244693 8.76318359 156.93334961 C5.63161496 158.13990389 5.63161496 158.13990389 3.04248047 159.98217773 C0.64111328 161.25073242 0.64111328 161.25073242 -1.85180664 161.10498047 C-4.59619167 160.1698745 -6.94882879 159.01286656 -9.47216797 157.58276367 C-10.95523438 156.74793457 -10.95523438 156.74793457 -12.46826172 155.89624023 C-14.05380859 154.98890137 -14.05380859 154.98890137 -15.67138672 154.06323242 C-16.77353516 153.43900391 -17.87568359 152.81477539 -19.01123047 152.17163086 C-29.59433502 146.15987301 -40.11298633 140.03673795 -50.60546875 133.8684082 C-53.26970131 132.30313023 -55.93686254 130.74296992 -58.60498047 129.18432617 C-60.16886944 128.26911005 -61.73267705 127.35375488 -63.29638672 126.43823242 C-64.00666016 126.02347656 -64.71693359 125.6087207 -65.44873047 125.18139648 C-70.24398383 122.36563531 -70.24398383 122.36563531 -71.35888672 121.25073242 C-71.45394724 118.69483354 -71.48445433 116.16605271 -71.47241211 113.60986328 C-71.47255814 112.80992447 -71.47270416 112.00998566 -71.47285461 111.18580627 C-71.47215527 108.52903577 -71.4643619 105.8723345 -71.45654297 103.21557617 C-71.45467886 101.37854552 -71.45325493 99.54151436 -71.45225525 97.70448303 C-71.44842947 92.8596358 -71.43859868 88.01481834 -71.42755127 83.16998291 C-71.41733844 78.23010664 -71.4127579 73.29022557 -71.40771484 68.3503418 C-71.39697646 58.65045889 -71.37989932 48.95059813 -71.35888672 39.25073242 C-70.58301712 38.80761215 -69.80714752 38.36449188 -69.00776672 37.90794373 C-66.05667513 36.22237841 -63.10567803 34.53664788 -60.15473938 32.85081482 C-58.89112414 32.12896988 -57.62747405 31.40718593 -56.36378479 30.68547058 C-47.41652609 25.57545751 -38.47825997 20.45009222 -29.54638672 15.31323242 C-28.41952957 14.66618851 -27.29267242 14.01914459 -26.13166809 13.35249329 C-21.56139666 10.72639326 -17.02459278 8.07366636 -12.57763672 5.24291992 C-11.88259033 4.80455811 -11.18754395 4.36619629 -10.47143555 3.91455078 C-8.7086088 2.79157313 -6.96065762 1.64533204 -5.21435547 0.49682617 C-2.35888672 -0.74926758 -2.35888672 -0.74926758 0 0 Z " fill="#D78751" transform="translate(268.35888671875,177.749267578125)"/>
<path d="M0 0 C50.82 0 101.64 0 154 0 C154 25.08 154 50.16 154 76 C103.18 76 52.36 76 0 76 C0 50.92 0 25.84 0 0 Z " fill="#D68751" transform="translate(318,332)"/>
<path d="M0 0 C0.92060211 -0.00525696 1.84120422 -0.01051392 2.78970337 -0.01593018 C5.83857091 -0.02915406 8.88691799 -0.02038284 11.93579102 -0.01025391 C14.0518453 -0.01227413 16.16789891 -0.01518513 18.28395081 -0.01895142 C22.7217572 -0.02337816 27.15938259 -0.01693302 31.59716797 -0.00292969 C37.28816629 0.01415185 42.97873987 0.0043296 48.66972256 -0.01364708 C53.04058536 -0.02448431 57.41134738 -0.02103865 61.78221321 -0.0132637 C63.88059603 -0.01126099 65.97898798 -0.01372345 68.07736015 -0.02070236 C71.01015348 -0.02831455 73.94225801 -0.01671516 76.875 0 C77.74422592 -0.00607269 78.61345184 -0.01214539 79.50901794 -0.0184021 C82.82137049 0.01660163 85.43721112 0.17145358 88.54426575 1.36332703 C90.92597579 4.67117871 90.52255499 8.25602116 90.45629883 12.17407227 C90.45678097 13.08635495 90.45726311 13.99863764 90.45775986 14.93856525 C90.45477162 17.89482301 90.42430039 20.85007483 90.39282227 23.80615234 C90.38694193 25.62991856 90.38286072 27.4536915 90.38061523 29.27746582 C90.35963441 36.04364129 90.30378957 42.80967229 90.25219727 49.57568359 C90.16969727 64.69380859 90.08719727 79.81193359 90.00219727 95.38818359 C56.34219727 95.38818359 22.68219727 95.38818359 -11.99780273 95.38818359 C-12.05967773 80.27005859 -12.12155273 65.15193359 -12.18530273 49.57568359 C-12.21261475 44.79994873 -12.23992676 40.02421387 -12.26806641 35.10375977 C-12.28161621 29.27746582 -12.28161621 29.27746582 -12.28413391 26.55097961 C-12.28874437 24.64442344 -12.29930323 22.73787607 -12.31452942 20.83137512 C-12.33642796 17.94545261 -12.33952284 15.06006518 -12.33837891 12.17407227 C-12.34917323 11.32297725 -12.35996756 10.47188223 -12.37108898 9.59499645 C-12.3405149 3.84925093 -12.3405149 3.84925093 -10.72153091 1.67115307 C-7.62986993 -0.62996767 -3.71149649 -0.02586947 0 0 Z " fill="#A16954" transform="translate(355.997802734375,154.61181640625)"/>
<path d="M0 0 C50.82 0 101.64 0 154 0 C154 14.19 154 28.38 154 43 C148.37478593 48.62521407 148.37478593 48.62521407 142.92088318 48.63491821 C141.08916565 48.65606689 141.08916565 48.65606689 139.22044373 48.67764282 C137.875393 48.66792231 136.53034595 48.65768153 135.18530273 48.64697266 C133.76249066 48.65375111 132.33968736 48.66265553 130.91690063 48.67352295 C127.05939383 48.69629451 123.2025565 48.68748989 119.34503818 48.67162752 C115.306998 48.65895965 111.26901474 48.67071086 107.23097229 48.67855835 C100.45115881 48.68765133 93.6716178 48.67567531 86.8918457 48.65185547 C79.05325329 48.62463366 71.21531091 48.63346702 63.3767342 48.6609875 C56.64535979 48.68367467 49.91418109 48.68688098 43.1827808 48.67379415 C39.16291303 48.6659988 35.14335087 48.6649603 31.12350273 48.68147659 C27.34508311 48.69591708 23.56750211 48.68590882 19.78917313 48.65700531 C18.40245138 48.6503925 17.01565908 48.6522957 15.62896538 48.66331863 C13.73671357 48.67697396 11.84430756 48.65681548 9.95213318 48.63491821 C8.89303458 48.63303308 7.83393599 48.63114796 6.74274349 48.6292057 C4 48 4 48 0 43 C0 28.81 0 14.62 0 0 Z " fill="#EBC764" transform="translate(318,424)"/>
<path d="M0 0 C2.45464288 -0.02268629 4.90926498 -0.04773088 7.36386108 -0.07501221 C12.50023438 -0.11819652 17.63453213 -0.11879151 22.77099609 -0.09179688 C29.31356717 -0.06277921 35.84716297 -0.16085511 42.38817787 -0.29429245 C47.45744455 -0.37963751 52.52459601 -0.38542266 57.59446335 -0.36936188 C60.00326994 -0.3730771 62.4122024 -0.40324006 64.82030106 -0.46175385 C76.40606067 -0.70976988 85.74265448 -0.6572882 94.65340233 7.45731735 C108.13818623 21.23896639 108.0234375 30.38210868 108.0234375 51.671875 C57.2034375 51.671875 6.3834375 51.671875 -45.9765625 51.671875 C-45.9765625 22.88740166 -45.9765625 22.88740166 -38.14071655 15.01495361 C-35.9004864 12.69698105 -35.9004864 12.69698105 -34.05776978 9.91546631 C-25.16379681 -1.44922076 -13.45399114 -0.04033006 0 0 Z " fill="#EAC764" transform="translate(363.9765625,264.328125)"/>
<path d="M0 0 C4.14208345 1.89810342 6.11038055 5.35403427 7.8125 9.4375 C8.33781254 12.4093578 8.32089528 15.29871236 8.26660156 18.31030273 C8.26718567 19.16963913 8.26776978 20.02897552 8.26837158 20.91435242 C8.26560142 23.73368784 8.23456058 26.55194474 8.203125 29.37109375 C8.1956588 31.33406497 8.18996766 33.29704367 8.18597412 35.26002502 C8.17074767 40.41076463 8.13149158 45.56104854 8.0871582 50.71160889 C8.04614098 55.97369219 8.02794934 61.23584957 8.0078125 66.49804688 C7.96499432 76.81142969 7.8946689 87.12435555 7.8125 97.4375 C-2.0875 97.4375 -11.9875 97.4375 -22.1875 97.4375 C-22.27790744 85.93697819 -22.3512775 74.43669282 -22.39474869 62.93589592 C-22.4156138 57.59547588 -22.44391212 52.2553118 -22.48925781 46.91503906 C-22.53275346 41.76032117 -22.5566452 36.60584932 -22.56700897 31.45096207 C-22.57439363 29.48537448 -22.5888142 27.51980019 -22.61042023 25.55431747 C-22.63950353 22.79877487 -22.64345393 20.04424588 -22.64160156 17.28857422 C-22.65598267 16.47793015 -22.67036377 15.66728607 -22.68518066 14.83207703 C-22.64694906 9.56798365 -21.62787297 6.642979 -18.1875 2.4375 C-12.70175142 -2.34494748 -6.63565971 -2.83858777 0 0 Z " fill="#D78751" transform="translate(402.1875,41.5625)"/>
</svg>
