<svg xmlns="http://www.w3.org/2000/svg"  viewBox="0 0 64 64" width="64px" height="64px"><path fill="#ced9ed" d="M50 6A4 4 0 1 0 50 14 4 4 0 1 0 50 6zM2 27.5C2 23.91 4.91 21 8.5 21c1.938 0 3.672.852 4.863 2.197C18.313 19.965 24.841 18 32 18s13.687 1.965 18.637 5.197C51.828 21.852 53.562 21 55.5 21c3.59 0 6.5 2.91 6.5 6.5 0 2.312-1.211 4.337-3.029 5.489C59.637 34.742 60 36.589 60 38.5 60 49.843 47.467 59 32 59S4 49.843 4 38.5c0-1.911.363-3.758 1.029-5.511C3.211 31.837 2 29.812 2 27.5z"/><path fill="none" stroke="#e2e9f7" stroke-linecap="round" stroke-miterlimit="10" stroke-width="5" d="M15.538,24.784 C20.148,22.015,25.949,20.5,32,20.5c6.076,0,11.901,1.528,16.52,4.319"/><path fill="#ed7899" d="M43 32A4 4 0 1 0 43 40 4 4 0 1 0 43 32zM21 32A4 4 0 1 0 21 40 4 4 0 1 0 21 32z"/><path fill="none" stroke="#8d6c9f" stroke-miterlimit="10" stroke-width="2" d="M43 32A4 4 0 1 0 43 40 4 4 0 1 0 43 32zM21 32A4 4 0 1 0 21 40 4 4 0 1 0 21 32z"/><path fill="none" stroke="#8d6c9f" stroke-linecap="round" stroke-miterlimit="10" stroke-width="2" d="M20,47c0,0,4,5,12,5 s12-5,12-5"/><path fill="none" stroke="#8d6c9f" stroke-linejoin="round" stroke-miterlimit="10" stroke-width="2" d="M32,18l4.5-13l9.755,3.469"/><path fill="none" stroke="#8d6c9f" stroke-miterlimit="10" stroke-width="2" d="M50 6A4 4 0 1 0 50 14A4 4 0 1 0 50 6Z"/><path fill="none" stroke="#8d6c9f" stroke-linejoin="round" stroke-miterlimit="10" stroke-width="2" d="M2,27.5 C2,23.91,4.91,21,8.5,21c1.938,0,3.672,0.852,4.863,2.197C18.313,19.965,24.841,18,32,18s13.687,1.965,18.637,5.197 C51.828,21.852,53.562,21,55.5,21c3.59,0,6.5,2.91,6.5,6.5c0,2.312-1.211,4.337-3.029,5.489C59.637,34.742,60,36.589,60,38.5 C60,49.843,47.467,59,32,59S4,49.843,4,38.5c0-1.911,0.363-3.758,1.029-5.511C3.211,31.837,2,29.812,2,27.5z"/><path fill="#8d6c9f" d="M46.506 28.695c-.173 0-.348-.044-.507-.139-.476-.281-.634-.894-.354-1.37l1.017-1.723c.281-.476.896-.634 1.369-.353.476.281.634.894.354 1.37l-1.017 1.723C47.182 28.519 46.848 28.695 46.506 28.695zM41.945 26.612c-.107 0-.217-.018-.325-.055-.522-.18-.8-.749-.62-1.271l.649-1.891c.178-.522.742-.801 1.271-.621.522.18.8.749.62 1.271l-.649 1.891C42.749 26.352 42.36 26.612 41.945 26.612zM37.047 25.399c-.052 0-.105-.004-.158-.013-.546-.087-.917-.6-.83-1.145l.315-1.975c.087-.544.601-.917 1.145-.83.546.087.917.6.83 1.145l-.315 1.975C37.955 25.048 37.53 25.399 37.047 25.399zM32 25c-.552 0-1-.448-1-1v-2c0-.552.448-1 1-1s1 .448 1 1v2C33 24.552 32.552 25 32 25zM26.953 25.399c-.483 0-.908-.351-.986-.843l-.315-1.975c-.087-.545.285-1.058.83-1.145.541-.092 1.058.284 1.145.83l.315 1.975c.087.545-.285 1.058-.83 1.145C27.058 25.395 27.005 25.399 26.953 25.399zM22.055 26.612c-.415 0-.803-.261-.946-.675l-.65-1.891c-.18-.522.098-1.091.621-1.271.519-.181 1.091.099 1.271.621l.65 1.891c.18.522-.098 1.091-.621 1.271C22.273 26.595 22.163 26.612 22.055 26.612zM17.494 28.695c-.342 0-.676-.176-.862-.492l-1.016-1.722c-.281-.476-.123-1.089.353-1.37.475-.281 1.088-.123 1.37.354l1.016 1.722c.281.476.123 1.089-.353 1.37C17.842 28.65 17.667 28.695 17.494 28.695z"/></svg>