<?xml version="1.0" encoding="UTF-8"?>
<svg version="1.1" xmlns="http://www.w3.org/2000/svg" width="512" height="512">
<path d="M0 0 C4.24413103 3.17080831 5.5600547 7.30520704 7.25 12.125 C7.6521875 13.21748047 7.6521875 13.21748047 8.0625 14.33203125 C10 19.67992666 10 19.67992666 10 22 C11.00442139 22.07549072 12.00884277 22.15098145 13.04370117 22.22875977 C19.9756302 23.10487739 26.62249546 25.35627631 33.30078125 27.33984375 C34.81958915 27.78585913 36.33856998 28.231286 37.85771179 28.67616272 C41.86862831 29.85227172 45.87739866 31.03553059 49.88568115 32.22058105 C55.39449279 33.84796723 60.90610766 35.46583488 66.41744995 37.08462524 C69.54835458 38.00425698 72.67839759 38.92674666 75.80789185 39.85116577 C83.83986633 42.21976731 91.8824931 44.53937954 99.95068359 46.78173828 C101.56710214 47.2335011 103.18349156 47.68536816 104.79985046 48.13734436 C107.84510341 48.9885416 110.89372043 49.82583974 113.94490051 50.65550232 C115.32433556 51.04007047 116.70363117 51.42513929 118.08276367 51.81079102 C119.87528816 52.30217308 119.87528816 52.30217308 121.70402527 52.80348206 C125.91329448 54.33154782 129.74918281 56.19969087 132.3515625 59.9453125 C133.98616727 65.12484328 133.64949567 70.27883647 131.75 75.3125 C124.92491431 81.98247011 113.3345892 84.42110085 104.46484375 87.6171875 C103.30610245 88.03743195 102.14736115 88.45767639 100.95350647 88.89065552 C97.28247093 90.22145739 93.61004797 91.54837832 89.9375 92.875 C86.30037194 94.19164472 82.66354052 95.50910602 79.02676392 96.82672119 C76.67057785 97.68035591 74.31427675 98.53367319 71.95785522 99.38665771 C62.29160262 102.88771434 52.64102843 106.43012762 43 110 C44.59696419 114.54991448 46.19621277 119.09901797 47.79736328 123.64746094 C48.33897019 125.18696659 48.88000849 126.72667243 49.42041016 128.26660156 C50.20837144 130.51163091 50.99815226 132.75600792 51.7890625 135 C52.18161224 136.11459595 52.18161224 136.11459595 52.58209229 137.25170898 C53.92659824 141.04730762 55.30308554 144.82715365 56.73730469 148.58984375 C57.1553688 149.6871582 57.1553688 149.6871582 57.58187866 150.80664062 C58.11347562 152.19387484 58.64956588 153.57939826 59.19082642 154.96289062 C60.28303417 157.80700534 61 159.92240309 61 163 C84.1 162.67 107.2 162.34 131 162 C130.01 158.04 129.02 154.08 128 150 C125.14205821 129.64915272 129.22045794 110.02013993 141 93 C147.33639653 85.04239931 154.903475 75.88472143 165 73 C169.29560955 72.73666761 171.91699834 73.13141813 175.328125 75.8671875 C179.24055364 80.01994464 181.82538309 85.19690722 184.625 90.125 C185.75881665 92.10917914 186.89667321 94.09105664 188.0390625 96.0703125 C188.53615723 96.94445801 189.03325195 97.81860352 189.54541016 98.71923828 C190.86941889 100.79525198 192.1835791 102.35355239 194 104 C194.268125 103.26136719 194.53625 102.52273437 194.8125 101.76171875 C200.93749831 87.51706808 215.97829936 75.8136173 230.14013672 70.14306641 C239.81325127 66.66457869 251.22424557 62.57095596 261.3125 66.1875 C264.44266002 68.29853816 265.42320768 69.57620004 267 73 C267.41473706 75.94737301 267.37949879 78.85727096 267.34057617 81.8293457 C267.34101425 82.70789719 267.34145233 83.58644867 267.34190369 84.49162292 C267.33981883 87.38657086 267.31650201 90.28093487 267.29296875 93.17578125 C267.28737172 95.1864541 267.28310213 97.19713104 267.28010559 99.20780945 C267.26866527 104.49328965 267.23920494 109.77852154 267.20599365 115.06390381 C267.17527533 120.45988608 267.16159648 125.85590857 267.14648438 131.25195312 C267.11433453 141.83476193 267.0615731 152.41732144 267 163 C274.26 163 281.52 163 289 163 C289.39550049 161.35016113 289.79100098 159.70032227 290.19848633 158.00048828 C292.13913932 150.24736813 294.47339153 142.62755438 296.82421875 134.9921875 C297.29427492 133.45744762 297.76406158 131.92262517 298.2335968 130.38772583 C299.46568985 126.36266576 300.70146803 122.33874657 301.93804932 118.31506348 C303.41161945 113.51741 304.88054078 108.7183308 306.34971809 103.9193306 C307.54424689 100.01893261 308.74161306 96.11945066 309.94528198 92.22186279 C312.10553269 85.22138586 314.24054451 78.21747243 316.27978516 71.18066406 C316.62975052 69.99103058 316.97971588 68.80139709 317.34028625 67.57571411 C317.97528246 65.41130472 318.59773838 63.24315228 319.20402527 61.07052612 C321.43910692 53.51857198 324.69797905 47.97987256 330.5625 42.6875 C340.62237121 37.74901777 352.91521437 36.87728958 363.921875 35.046875 C365.51841314 34.77972931 367.11495039 34.51257832 368.71148682 34.24542236 C372.03223786 33.69104828 375.35358628 33.1404137 378.67529297 32.59179688 C382.91224037 31.89116953 387.14649222 31.17544453 391.3803215 30.45624924 C394.66653848 29.90075075 397.95449777 29.35616447 401.2430191 28.81449127 C402.80484962 28.55535862 404.36602642 28.29225067 405.92647552 28.02492523 C424.65247124 24.82623562 424.65247124 24.82623562 431.875 28.4375 C438.94089543 36.95813861 439.62190199 52.53404446 439.35546875 63.140625 C438.93898037 66.4908392 438.45886161 68.56095221 435.89599609 70.81680298 C428.47783284 75.44611034 417.43373531 75.88469652 408.9375 77.2265625 C407.74318359 77.41971039 406.54886719 77.61285828 405.31835938 77.81185913 C401.54633453 78.4210898 397.77324939 79.02340451 394 79.625 C390.1983937 80.23495024 386.39703141 80.84636845 382.59594727 81.45956421 C380.2413135 81.8390209 377.88634374 82.21639986 375.53100586 82.59146118 C374.46889893 82.76188934 373.40679199 82.9323175 372.3125 83.10791016 C371.38050781 83.25652496 370.44851563 83.40513977 369.48828125 83.55825806 C368.66714844 83.7040329 367.84601563 83.84980774 367 84 C366.28301437 84.03782089 365.56602875 84.07564178 364.82731628 84.11460876 C362.64678495 84.92990392 362.64678495 84.92990392 361.65254211 87.99205017 C361.23439388 89.34220285 360.83515365 90.69829255 360.45043945 92.05834961 C360.22712952 92.79655441 360.00381958 93.53475922 359.77374268 94.29533386 C359.03754142 96.74319234 358.32552914 99.19741906 357.61328125 101.65234375 C357.1072573 103.35051846 356.59968379 105.04823214 356.09062195 106.74549866 C354.75278165 111.2202937 353.4350679 115.70076952 352.1217041 120.18280029 C350.52186204 125.62899669 348.89874072 131.06828876 347.27904797 136.50860691 C346.01938213 140.74127581 344.7632542 144.97489451 343.51741028 149.21165466 C343.28797226 149.98989594 343.05853424 150.76813721 342.82214355 151.56996155 C342.39309504 153.02592653 341.96549471 154.48231934 341.53959656 155.93920898 C340.112165 160.77567 340.112165 160.77567 339 163 C340.23041016 162.98428955 341.46082031 162.9685791 342.72851562 162.95239258 C347.32057067 162.89783738 351.91259741 162.86355719 356.50488281 162.83520508 C358.4873538 162.82017656 360.46979186 162.79974802 362.45214844 162.77368164 C365.31193193 162.73703617 368.17127344 162.72021396 371.03125 162.70703125 C371.90865845 162.69154739 372.78606689 162.67606354 373.69006348 162.66011047 C380.11873291 162.65837687 385.72140252 163.45859955 390.97070312 167.52758789 C394.47711128 171.89557435 396.67834732 176.15030548 398.5 181.4375 C398.78842773 182.250979 399.07685547 183.06445801 399.37402344 183.90258789 C405.17772676 200.80992625 408.92487669 218.26224282 411 236 C411.13148438 237.10730469 411.26296875 238.21460938 411.3984375 239.35546875 C416.64302744 294.14017181 400.55145414 349.99913773 365.75390625 392.72265625 C361.36464741 398.00068153 356.73720577 403.03424483 352 408 C351.20078125 408.85207031 350.4015625 409.70414062 349.578125 410.58203125 C342.93506083 417.47475306 335.63738736 423.2698841 328 429 C327.43796875 429.42812988 326.8759375 429.85625977 326.296875 430.29736328 C286.80506849 460.27376664 236.94517369 474.21226418 187.8125 474.25 C187.01864899 474.25067474 186.22479797 474.25134949 185.40689087 474.25204468 C171.75053225 474.23370157 158.46497253 473.4208834 145 471 C144.05979004 470.83371094 143.11958008 470.66742188 142.15087891 470.49609375 C106.31059687 463.93661153 72.70989957 449.47422636 44 427 C43.03835937 426.25105469 42.07671875 425.50210937 41.0859375 424.73046875 C31.00856041 416.67147122 21.14751018 408.03828259 13 398 C12.11226988 396.94767136 11.22421885 395.89561339 10.3359375 394.84375 C-13.74026958 365.96895775 -28.35985881 331.83632043 -35 295 C-35.13277344 294.2687793 -35.26554687 293.53755859 -35.40234375 292.78417969 C-37.2797398 281.75711468 -37.19967781 270.59117009 -37.25 259.4375 C-37.2554483 258.69253265 -37.26089661 257.94756531 -37.26651001 257.18002319 C-37.35336286 241.22482399 -37.35336286 241.22482399 -35 234 C-32 232 -32 232 -28 232 C-27.54734001 228.92083853 -27.14429289 225.8371341 -26.75 222.75 C-26.62109375 221.87730469 -26.4921875 221.00460938 -26.359375 220.10546875 C-26.06329995 217.68135425 -25.83291903 215.43755108 -26 213 C-27.91668574 210.87495556 -27.91668574 210.87495556 -30 209 C-31.11784112 201.44374067 -28.32173132 194.60245894 -25.9375 187.5 C-25.56689453 186.31535156 -25.19628906 185.13070312 -24.81445312 183.91015625 C-22.01415105 175.46689251 -18.95635105 168.80551994 -11.01318359 164.30932617 C-5.89722422 162.26668744 -0.58508388 162.62921378 4.83984375 162.70703125 C5.96193741 162.71127609 7.08403107 162.71552094 8.24012756 162.71989441 C11.80616767 162.73661903 15.37163215 162.77426078 18.9375 162.8125 C21.36262202 162.82755483 23.78775294 162.84124183 26.21289062 162.85351562 C32.14232455 162.88394378 38.07052177 162.94267959 44 163 C38.39 147.82 32.78 132.64 27 117 C19.32599627 118.6916286 19.32599627 118.6916286 12.015625 121.05957031 C10.92999268 121.46048889 9.84436035 121.86140747 8.72583008 122.2744751 C7.57880615 122.70467957 6.43178223 123.13488403 5.25 123.578125 C3.39659842 124.26475824 1.54319645 124.95139043 -0.31022644 125.63796616 C-2.89152489 126.59586899 -5.47079237 127.55917834 -8.05010986 128.5223999 C-11.26000333 129.72016933 -14.47177551 130.91287217 -17.68359375 132.10546875 C-18.30928757 132.33788017 -18.93498138 132.5702916 -19.57963562 132.80974579 C-24.99591371 134.82100036 -30.41509349 136.82436929 -35.83496094 138.82592773 C-38.66752976 139.87667006 -41.49443555 140.94120023 -44.3203125 142.00976562 C-45.81745779 142.56447875 -47.31483033 143.1185792 -48.8125 143.671875 C-50.03582031 144.13174805 -51.25914063 144.59162109 -52.51953125 145.06542969 C-57.42868001 146.38362704 -61.96639807 146.87814629 -66.75 144.8125 C-72.66676641 140.04621594 -72.66676641 140.04621594 -73.38232422 135.65234375 C-73.70652453 127.64099387 -71.4777232 123.35052931 -66.8125 117 C-65.35916842 114.9229298 -63.90749184 112.84470109 -62.45703125 110.765625 C-61.84554733 109.90109711 -61.84554733 109.90109711 -61.22171021 109.019104 C-55.31220896 100.66133177 -49.64944754 92.13443812 -43.94198608 83.63818359 C-40.23446821 78.12424485 -36.51295815 72.61973127 -32.79182434 67.11497498 C-30.38531184 63.55148738 -27.98202924 59.98701155 -25.62451172 56.39086914 C-22.56413257 51.72734562 -19.45137105 47.24337795 -15.9453125 42.90234375 C-8.84255392 34.50849086 -8.84255392 34.50849086 -6.00927734 24.30615234 C-6.89913213 19.90735508 -8.53397538 16.11835108 -10.48828125 12.1015625 C-11.58459494 9.72890184 -12.09410886 8.53468054 -11.63818359 5.94433594 C-9.11819125 -0.24009943 -6.35940541 -0.5482246 0 0 Z " fill="#010201" transform="translate(73,19)"/>
<path d="M0 0 C17.16 0 34.32 0 52 0 C54.99138008 10.7689683 57.9108294 21.3614668 60.25805664 32.26074219 C60.69110998 34.26672206 61.13512763 36.27006674 61.58007812 38.2734375 C63.4513975 46.80238919 64.88331711 55.33782481 66 64 C66.25293823 65.89878906 66.25293823 65.89878906 66.51098633 67.8359375 C66.95390407 71.17223181 67.38262984 74.51015908 67.80493164 77.84912109 C67.97622458 79.19640908 68.14971682 80.54341932 68.32543945 81.89013672 C69.98943318 94.64793791 70.94111319 107.37223358 71.2109375 120.23828125 C71.22537399 120.90690186 71.23981049 121.57552246 71.25468445 122.2644043 C71.31152378 124.97887808 71.36720597 127.69309135 71.40136719 130.40795898 C71.42883262 132.43495542 71.47582227 134.46165803 71.5234375 136.48828125 C71.5531665 138.26005737 71.5531665 138.26005737 71.58349609 140.06762695 C71.7667605 142.9801782 71.7667605 142.9801782 73.34619141 144.87963867 C75.98459349 146.66700613 77.9049773 146.4421461 81 146 C83.70924604 143.91041218 84.86688887 142.73204435 85.48583984 139.328125 C85.47762207 138.31234375 85.4694043 137.2965625 85.4609375 136.25 C85.45876221 135.09943115 85.45658691 133.9488623 85.4543457 132.76342773 C85.42816162 131.52149658 85.40197754 130.27956543 85.375 129 C85.35848389 127.70199463 85.34196777 126.40398926 85.32495117 125.06665039 C84.76549391 89.27200309 79.63817541 54.27249258 71.76953125 19.4140625 C71.62072006 18.75003922 71.47190887 18.08601593 71.31858826 17.40187073 C70.64966624 14.49709787 69.89887675 11.71879334 68.8894043 8.91162109 C68 6 68 6 68 0 C75.92 0 83.84 0 92 0 C104.79868104 38.39604311 106.80926191 81.87585137 108.30958557 122.04815674 C108.45436706 125.89217349 108.61090838 129.73569284 108.76651001 133.57928467 C108.87277603 136.37890856 108.95695632 139.17860342 109.03979492 141.97900391 C109.10636206 143.71390184 109.17378671 145.44876714 109.2421875 147.18359375 C109.26728645 148.36445305 109.26728645 148.36445305 109.29289246 149.56916809 C109.69299128 158.49573554 114.30585711 163.63993687 120.48828125 169.7890625 C122 172 122 172 121.7421875 174.37695312 C120.99938734 177.00216527 120.08485631 178.87905016 118.63671875 181.1796875 C118.16169922 181.94410156 117.68667969 182.70851563 117.19726562 183.49609375 C116.69904297 184.28113281 116.20082031 185.06617188 115.6875 185.875 C114.22922018 188.20438472 112.77383095 190.53501448 111.33300781 192.87524414 C110.21769414 194.65300511 109.03621923 196.38902942 107.83984375 198.11328125 C104.59841821 203.87360089 104.01377328 210.87624971 102.875 217.3125 C102.62230422 218.68967578 102.36840628 220.06663155 102.11328125 221.44335938 C101.98959167 222.11524796 101.8659021 222.78713654 101.73846436 223.47938538 C101.37348157 225.45422544 101.00367723 227.42817244 100.63378906 229.40209961 C100.24669601 231.59955352 99.90386507 233.80613959 99.63964844 236.02172852 C98.82830806 242.10056638 98.82830806 242.10056638 96.50732422 244.62084961 C94.57215456 246.05040451 92.62701262 247.18957316 90.5 248.3125 C89.78183105 248.72419434 89.06366211 249.13588867 88.32373047 249.56005859 C86.23394062 250.74450739 84.12426565 251.87883102 82 253 C80.41058594 253.86044922 80.41058594 253.86044922 78.7890625 254.73828125 C72.52288732 258 72.52288732 258 70 258 C70.64002276 251.95456766 71.82116746 246.21538836 73.25 240.3125 C83.79905283 204.45367645 83.79905283 204.45367645 81.4375 169.3125 C77.93248628 167.42518492 75.76636515 167.95378746 72 169 C69.81224921 172.28162618 69.59285131 173.88015927 69.17578125 177.73828125 C68.96912842 179.52866821 68.96912842 179.52866821 68.75830078 181.35522461 C68.61118652 182.66112549 68.46407227 183.96702637 68.3125 185.3125 C66.16155408 203.31758186 62.97153823 221.09223817 59.42059326 238.86901855 C59.02167393 240.89018669 58.63724113 242.91347995 58.25830078 244.93847656 C57.61323083 248.32452479 56.91285812 251.69288185 56.1875 255.0625 C56.01234863 256.01890381 55.83719727 256.97530762 55.65673828 257.96069336 C54.78420946 261.70937428 54.05394887 264.156764 50.99243164 266.60620117 C44.76650614 269.95565835 37.90836423 271.5949312 31.0625 273.1875 C30.05509766 273.43435547 29.04769531 273.68121094 28.00976562 273.93554688 C9.57541594 278.3811296 9.57541594 278.3811296 1 278 C-0.09382647 271.01206439 -1.09024237 264.01429235 -2 257 C-2.15879639 255.7934375 -2.15879639 255.7934375 -2.32080078 254.5625 C-3.64544279 243.79715543 -2.40733464 235.90948489 2 226 C5.40601902 215.78194294 0.81764363 205.78622968 -2.7890625 196.24609375 C-3.25783813 194.9782605 -3.25783813 194.9782605 -3.73608398 193.68481445 C-4.34752252 192.03972 -4.97591399 190.40077377 -5.62524414 188.77026367 C-10.11573166 176.67649408 -9.17335663 162.76972201 -9.23828125 150.02734375 C-9.24551618 148.9200035 -9.24551618 148.9200035 -9.25289726 147.79029274 C-9.28898668 142.17270161 -9.30482748 136.55519548 -9.3125 130.9375 C-9.31394516 130.10921188 -9.31539032 129.28092377 -9.31687927 128.42753601 C-9.37747404 85.39147079 -7.08460395 42.50762373 0 0 Z " fill="#A1E42D" transform="translate(286,198)"/>
<path d="M0 0 C17.16 0 34.32 0 52 0 C52 7.91775813 51.66425993 15.62884297 50.89526367 23.49121094 C50.75756202 24.98829167 50.63850798 26.48721321 50.53881836 27.98730469 C49.79997195 38.92943983 47.37699277 45.33235161 39.60473633 53.17675781 C34.87279345 58.30565344 33.4617232 62.89077941 33.5625 69.75 C33.57007324 70.48734375 33.57764648 71.2246875 33.58544922 71.984375 C33.74337553 77.44378379 34.46496996 82.66704322 35.625 88 C35.76494385 88.64936523 35.9048877 89.29873047 36.04907227 89.96777344 C36.91701244 93.56754126 37.92866617 96.84208659 39.45874023 100.22924805 C45.57723132 114.15086191 44.87077999 128.76353457 44.81726074 143.66949463 C44.80937208 147.22050628 44.82967094 150.77131821 44.84960938 154.32226562 C44.85721906 155.71911112 44.86482811 157.11595662 44.87243652 158.51280212 C44.87626846 159.19676497 44.8801004 159.88072781 44.88404846 160.58541679 C44.89447067 162.63263085 44.90166315 164.67983665 44.9083252 166.72706604 C44.9773644 182.37621489 45.83697465 197.86688186 47.375 213.4375 C47.50670443 214.80295198 47.63812653 216.16843122 47.76928711 217.53393555 C49.10530389 231.36344922 50.54226691 245.1828623 52 259 C52.21105443 261.01040439 52.42199848 263.02082038 52.6328125 265.03125 C53.08655751 269.35437803 53.54242643 273.67727559 54 278 C44.63643979 277.5922964 35.99134 276.06170653 26.9375 273.6875 C25.1730957 273.24374023 25.1730957 273.24374023 23.37304688 272.79101562 C21.03980764 272.19384052 18.71186024 271.57554538 16.39013672 270.93505859 C14.1370573 270.31362015 11.87237049 269.73278078 9.59814453 269.19384766 C1.95263267 267.14708163 1.95263267 267.14708163 -0.52978516 264.15795898 C-1.65856208 261.79114293 -2.3595811 259.54248701 -3 257 C-3.25249512 256.10990234 -3.50499023 255.21980469 -3.76513672 254.30273438 C-4.56860045 251.29888151 -5.26526634 248.28585646 -5.9375 245.25 C-6.31708862 243.56185181 -6.31708862 243.56185181 -6.7043457 241.83959961 C-11.33815907 220.77061468 -14.6117836 199.5719495 -16.69140625 178.10498047 C-16.97569501 175.2445497 -17.29478437 172.39058092 -17.625 169.53515625 C-23.85211883 112.54631856 -14.77281397 54.95486798 0 0 Z " fill="#A0E42D" transform="translate(179,198)"/>
<path d="M0 0 C19.47 0 38.94 0 59 0 C62.952476 7.90495201 65.58138975 15.57798358 68 24 C68.36351562 25.24910156 68.72703125 26.49820313 69.1015625 27.78515625 C73.8003314 45.12755903 75.27610045 62.52941223 75.3125 80.4375 C75.31787781 81.49587067 75.31787781 81.49587067 75.32336426 82.57562256 C75.47289544 137.19745508 52.13361865 185.87559809 14.12109375 224.14453125 C12.14222398 225.87558676 10.40413109 226.9696581 8 228 C8.08931543 226.20753162 8.19746087 224.41600143 8.3125 222.625 C8.39951172 221.12839844 8.39951172 221.12839844 8.48828125 219.6015625 C9.77093134 210.57405575 13.06656276 203.57318359 17.9375 195.9375 C26.33328733 183.42032891 26.33328733 183.42032891 28 169 C26.36664081 165.30687369 24.21604996 162.113622 21.23173523 159.38067627 C15.74178312 154.25974763 15.08001353 149.67085809 14.69914246 142.34056091 C14.65966407 140.95101141 14.62063961 139.56144895 14.58203125 138.171875 C14.51662819 136.71157195 14.44802105 135.25140933 14.37641907 133.79139709 C14.23045275 130.70681411 14.10347002 127.62230593 13.99200439 124.5362854 C13.81668338 119.72239402 13.59321125 114.91158634 13.35693359 110.1003418 C13.31800617 109.30751014 13.27907875 108.51467848 13.23897171 107.69782162 C13.16060987 106.10747323 13.08200182 104.51713696 13.00314331 102.92681313 C12.88713927 100.5671477 12.77478888 98.20733044 12.66308594 95.84745789 C12.13361927 84.80071761 11.41760356 73.79889591 10.125 62.8125 C10.04611542 62.13916626 9.96723083 61.46583252 9.88595581 60.77209473 C8.08130535 45.76699243 5.44064417 30.86493245 2.71435547 16.00390625 C1.7639934 10.67720153 0.8895333 5.3371998 0 0 Z " fill="#A1E52D" transform="translate(394,198)"/>
<path d="M0 0 C0.97262787 0.00444122 1.94525574 0.00888245 2.94735718 0.01345825 C4.59884262 0.01368484 4.59884262 0.01368484 6.28369141 0.01391602 C7.4764267 0.02423859 8.66916199 0.03456116 9.89804077 0.04519653 C11.11599335 0.04802643 12.33394592 0.05085632 13.58880615 0.05377197 C17.4914621 0.06499647 21.3938913 0.09010531 25.29647827 0.11550903 C27.93709997 0.12553589 30.57772524 0.13466225 33.21835327 0.14285278 C39.70280607 0.16494322 46.18712598 0.19844311 52.67147827 0.24050903 C52.1812856 5.22018951 51.6176225 10.06353177 50.40194702 14.92800903 C50.15509155 15.94451538 49.90823608 16.96102173 49.65390015 18.0083313 C49.39157593 19.07494995 49.12925171 20.1415686 48.85897827 21.24050903 C46.40544323 31.39193741 44.51362136 41.50018528 43.31674194 51.87918091 C42.2924699 59.46600631 39.73167723 65.29165735 34.1758728 70.69509888 C31.07446519 73.74820138 30.23430702 76.22481469 29.98397827 80.42800903 C30.20157899 85.03261521 31.14425977 88.72499747 32.83119202 93.00289917 C38.05499251 106.74344192 37.47180567 120.93838526 37.37216187 135.40615845 C37.33321027 141.56447746 37.34245721 147.72279194 37.37069702 153.88113403 C37.37311968 154.55329515 37.37554234 155.22545628 37.37803841 155.91798592 C37.48240808 175.69271237 39.15397167 195.63956652 43.12069702 215.02566528 C43.65889407 218.16705656 43.77311512 221.06072761 43.67147827 224.24050903 C17.84469394 202.90533937 -0.18631799 172.98385109 -10.32852173 141.24050903 C-10.56796509 140.49204712 -10.80740845 139.74358521 -11.05410767 138.97244263 C-14.61301126 127.59234243 -16.93193952 116.07969009 -18.32852173 104.24050903 C-18.48187988 102.9503186 -18.48187988 102.9503186 -18.63833618 101.63406372 C-19.2523498 95.5782958 -19.35257366 89.62852179 -19.21524048 83.55300903 C-19.20036591 82.79559418 -19.18549133 82.03817932 -19.17016602 81.2578125 C-19.10685406 78.11665437 -19.04211237 74.97657909 -18.93081665 71.83670044 C-18.85220946 69.51268249 -18.81174034 67.19055074 -18.77774048 64.86550903 C-18.72658333 63.80457031 -18.72658333 63.80457031 -18.6743927 62.72219849 C-18.59714461 60.45537687 -18.59714461 60.45537687 -19.32852173 57.24050903 C-22.2127747 54.71088972 -22.2127747 54.71088972 -25.32852173 53.24050903 C-25.0188731 50.82344599 -24.70591058 48.40689017 -24.39102173 45.99050903 C-24.26050415 44.96763794 -24.26050415 44.96763794 -24.12734985 43.92410278 C-23.69692793 40.64014292 -23.24058042 37.42860609 -22.32852173 34.24050903 C-21.23539673 34.03425903 -20.14227173 33.82800903 -19.01602173 33.61550903 C-15.25117437 32.6337324 -15.25117437 32.6337324 -13.85195923 29.92019653 C-11.24791628 23.63043126 -9.26978106 17.13623552 -7.2015686 10.65457153 C-6.86061157 9.60527466 -6.51965454 8.55597778 -6.16836548 7.47488403 C-5.70998291 6.03967407 -5.70998291 6.03967407 -5.24234009 4.57546997 C-4.06003222 1.55447279 -3.31213562 0.34210483 0 0 Z " fill="#A0E42D" transform="translate(70.32852172851563,197.75949096679688)"/>
<path d="M0 0 C8.25 0 16.5 0 25 0 C24.543311 6.69810528 23.99337204 13.34248105 23.125 20 C18.31877942 57.47277757 16.81810238 94.57669116 16.8125 132.3125 C16.81197758 133.11117619 16.81145515 133.90985237 16.8109169 134.73273087 C16.80811131 139.41569278 16.81217937 144.09856606 16.8260498 148.7815094 C16.82995225 150.22126453 16.83248802 151.66102421 16.83346558 153.1007843 C16.44251106 172.93635897 16.44251106 172.93635897 20.75 192.0625 C21.01369385 192.80290527 21.2773877 193.54331055 21.54907227 194.30615234 C22.34723582 196.54483956 23.17001772 198.77293898 24 201 C28.87975398 214.18533152 29.86893678 220.45762023 24.05859375 233.4609375 C21.47383238 242.10224305 23.35394495 251.39306484 24.4375 260.1875 C24.57220703 261.32380859 24.70691406 262.46011719 24.84570312 263.63085938 C25.49945103 269.10001866 26.22086007 274.54602052 27 280 C18.75 280 10.5 280 2 280 C-2.62534083 250.92642906 -4.9596983 221.73170534 -6.84442139 192.37304688 C-6.98877799 190.17116975 -7.1449318 187.97044147 -7.30322266 185.76953125 C-7.93486244 176.47222495 -8.05941078 167.20858667 -8.0703125 157.890625 C-8.08546289 153.99901978 -8.10180067 150.1074206 -8.11816406 146.21582031 C-8.12270902 143.57909823 -8.11658225 140.94233544 -8.09960938 138.30566406 C-8.00907326 121.77459235 -9.16905446 107.58347432 -15.20030212 92.10595703 C-16.94652842 87.50737341 -18.16982367 82.84153254 -19 78 C-19.18433594 76.96101563 -19.36867187 75.92203125 -19.55859375 74.8515625 C-20.18324945 68.35822792 -19.21065198 64.59169739 -15.15673828 59.60913086 C-12.84757428 56.99485098 -10.42965547 54.5026181 -8 52 C-6.03169859 49.04754789 -5.66783191 47.95919169 -5.25390625 44.58984375 C-5.14022705 43.69402588 -5.02654785 42.79820801 -4.90942383 41.87524414 C-4.79493896 40.90578857 -4.6804541 39.93633301 -4.5625 38.9375 C-4.43834717 37.93775146 -4.31419434 36.93800293 -4.1862793 35.90795898 C-3.7801843 32.60649573 -3.38821889 29.30361148 -3 26 C-2.85884766 24.8027832 -2.71769531 23.60556641 -2.57226562 22.37207031 C-1.69701488 14.91659736 -0.84668293 7.45887341 0 0 Z " fill="#0DCF8E" transform="translate(246,198)"/>
<path d="M0 0 C7.92 0 15.84 0 24 0 C36.79868104 38.39604311 38.80926191 81.87585137 40.30958557 122.04815674 C40.45436706 125.89217349 40.61090838 129.73569284 40.76651001 133.57928467 C40.87277603 136.37890856 40.95695632 139.17860342 41.03979492 141.97900391 C41.10636206 143.71390184 41.17378671 145.44876714 41.2421875 147.18359375 C41.25892014 147.97083328 41.27565277 148.75807281 41.29289246 149.56916809 C41.69299128 158.49573554 46.30585711 163.63993687 52.48828125 169.7890625 C54 172 54 172 53.7421875 174.37695312 C52.99938734 177.00216527 52.08485631 178.87905016 50.63671875 181.1796875 C50.16169922 181.94410156 49.68667969 182.70851563 49.19726562 183.49609375 C48.69904297 184.28113281 48.20082031 185.06617188 47.6875 185.875 C46.22922018 188.20438472 44.77383095 190.53501448 43.33300781 192.87524414 C42.21769414 194.65300511 41.03621923 196.38902942 39.83984375 198.11328125 C36.59841821 203.87360089 36.01377328 210.87624971 34.875 217.3125 C34.62230422 218.68967578 34.36840628 220.06663155 34.11328125 221.44335938 C33.98959167 222.11524796 33.8659021 222.78713654 33.73846436 223.47938538 C33.37348157 225.45422544 33.00367723 227.42817244 32.63378906 229.40209961 C32.24669601 231.59955352 31.90386507 233.80613959 31.63964844 236.02172852 C30.82830806 242.10056638 30.82830806 242.10056638 28.50732422 244.62084961 C26.57215456 246.05040451 24.62701262 247.18957316 22.5 248.3125 C21.78183105 248.72419434 21.06366211 249.13588867 20.32373047 249.56005859 C18.23394062 250.74450739 16.12426565 251.87883102 14 253 C12.94039063 253.57363281 11.88078125 254.14726562 10.7890625 254.73828125 C4.52288732 258 4.52288732 258 2 258 C2.64002276 251.95456766 3.82116746 246.21538836 5.25 240.3125 C14.2729174 206.50519743 14.2729174 206.50519743 15 172 C13.11484777 169.42362529 11.80665143 168.40332572 9 167 C9.33 160.4 9.66 153.8 10 147 C11.98 146.01 13.96 145.02 16 144 C30.44634938 115.10730125 10.67831563 50.02027269 3.76953125 19.4140625 C3.62072006 18.75003922 3.47190887 18.08601593 3.31858826 17.40187073 C2.64966624 14.49709787 1.89887675 11.71879334 0.8894043 8.91162109 C0 6 0 6 0 0 Z " fill="#0DCF8E" transform="translate(354,198)"/>
<path d="M0 0 C8.25 0 16.5 0 25 0 C24.52949219 2.06378906 24.05898437 4.12757813 23.57421875 6.25390625 C23.10703814 8.30938369 22.64052599 10.3650118 22.17407227 12.4206543 C21.85575577 13.82185379 21.53677223 15.22290195 21.21704102 16.6237793 C16.00227888 39.47839825 11.21863684 62.63737159 9 86 C8.90976563 86.94713867 8.81953125 87.89427734 8.7265625 88.87011719 C4.02249896 140.69427662 8.76636559 191.09558139 19 242 C19.32858688 243.65355412 19.65675259 245.30719202 19.984375 246.9609375 C20.64905011 250.30876347 21.32107056 253.65503058 22 257 C13.96041277 253.16962075 6.41187016 248.93373728 -1 244 C-2.04027344 243.53851563 -3.08054688 243.07703125 -4.15234375 242.6015625 C-8.78590934 238.36842851 -8.81992166 233.02390279 -9.6875 227 C-9.88899658 225.73486572 -10.09049316 224.46973145 -10.2980957 223.16625977 C-10.70085156 220.61665838 -11.09252981 218.06528036 -11.47265625 215.51220703 C-11.91717955 212.5515995 -12.39690707 209.6022882 -12.90625 206.65234375 C-16.08550653 187.86210433 -17.12670053 168.79338947 -17.203125 149.7578125 C-17.20963577 148.476147 -17.21614655 147.19448151 -17.22285461 145.87397766 C-17.24354268 140.63682738 -17.25644374 135.40023226 -17.22998047 130.16308594 C-17.16871727 114.16746249 -17.8841619 99.97789457 -23.574646 84.90377808 C-24.09245645 82.58618808 -23.79150461 81.22230139 -23 79 C-21.94314518 77.64911208 -20.83231884 76.33969618 -19.6875 75.0625 C-13.18529775 66.90809882 -11.83895882 57.07305994 -10.55078125 46.98046875 C-8.4616603 31.15588462 -5.05019444 15.15058333 0 0 Z " fill="#0DD08E" transform="translate(139,198)"/>
<path d="M0 0 C7.52593524 1.56923756 14.86789332 3.61076359 22.25 5.75 C24.76040486 6.47269726 27.27082162 7.19535319 29.78125 7.91796875 C31.01101562 8.27294434 32.24078125 8.62791992 33.5078125 8.99365234 C37.41649561 10.12002201 41.32817541 11.23553398 45.24072266 12.34838867 C65.22089205 18.03451394 85.14192208 23.90081326 105 30 C102.57381801 32.42618199 100.60678986 33.01291665 97.37402344 34.16381836 C96.18967712 34.58863998 95.00533081 35.01346161 93.78509521 35.45115662 C92.47654661 35.91412242 91.16797244 36.37701598 89.859375 36.83984375 C88.49901685 37.32576831 87.13885186 37.81223392 85.77886963 38.29920959 C82.1687781 39.59043487 78.55636911 40.87504749 74.94335938 42.15808105 C69.28456071 44.16895758 63.62942795 46.19014428 57.97378349 48.20987129 C56.55673367 48.71584428 55.13961486 49.2216241 53.72242928 49.72721672 C40.06114385 54.60152947 26.44005554 59.58006733 12.82843018 64.59152222 C2.64403108 68.33992441 -7.54814886 72.06721198 -17.74012184 75.79496098 C-21.22837053 77.07085155 -24.71624149 78.34775733 -28.20336914 79.62670898 C-31.6736373 80.89943769 -35.14478124 82.16974972 -38.61654854 83.4383831 C-39.91451692 83.91314163 -41.21217813 84.38874095 -42.50950432 84.86525154 C-54.77051596 89.36763864 -54.77051596 89.36763864 -61 91 C-56.68626121 82.59672331 -51.31856544 74.90725743 -46 67.125 C-44.48403861 64.89812879 -42.96942227 62.67034678 -41.45491028 60.44248962 C-40.37622113 58.85582733 -39.29709972 57.26945883 -38.21757507 55.68336487 C-33.84968543 49.26236654 -29.50887943 42.8234226 -25.17578125 36.37890625 C-24.52108856 35.4056842 -23.86639587 34.43246216 -23.19186401 33.42974854 C-20.58821562 29.55921575 -17.98462763 25.68864844 -15.38452148 21.81573486 C-13.56690964 19.10889988 -11.74660665 16.4038927 -9.92578125 13.69921875 C-9.38504471 12.89231094 -8.84430817 12.08540314 -8.28718567 11.25404358 C-5.66780468 7.36802517 -3.00349003 3.60553792 0 0 Z " fill="#61D9F9" transform="translate(80,56)"/>
<path d="M0 0 C6.93 0 13.86 0 21 0 C24.952476 7.90495201 27.58138975 15.57798358 30 24 C30.36351562 25.24910156 30.72703125 26.49820313 31.1015625 27.78515625 C35.8003314 45.12755903 37.27610045 62.52941223 37.3125 80.4375 C37.31787781 81.49587067 37.31787781 81.49587067 37.32336426 82.57562256 C37.47289544 137.19745508 14.13361865 185.87559809 -23.87890625 224.14453125 C-25.85777602 225.87558676 -27.59586891 226.9696581 -30 228 C-29.91068457 226.20753162 -29.80253913 224.41600143 -29.6875 222.625 C-29.60048828 221.12839844 -29.60048828 221.12839844 -29.51171875 219.6015625 C-28.22906866 210.57405575 -24.93343724 203.57318359 -20.0625 195.9375 C-16.56739481 190.3925049 -13.37525151 185.0191147 -10.95483398 178.91235352 C-9.90877184 176.8172871 -8.65840643 175.63221112 -7 174 C-5.99581724 172.26079589 -5.99581724 172.26079589 -5.203125 170.32421875 C-4.88762695 169.59017822 -4.57212891 168.8561377 -4.24707031 168.09985352 C-3.75352051 166.90573853 -3.75352051 166.90573853 -3.25 165.6875 C-2.90291992 164.85081787 -2.55583984 164.01413574 -2.19824219 163.15209961 C17.73618187 114.03705252 21.42432618 55.00289169 0.85546875 5.23046875 C0 3 0 3 0 0 Z " fill="#95D528" transform="translate(432,198)"/>
<path d="M0 0 C1.27757591 4.3916672 2.05623803 8.08275791 2.02734375 12.66430664 C2.023396 13.47589737 2.01944824 14.2874881 2.01538086 15.12367249 C2.01030518 15.74286057 2.00522949 16.36204865 2 17 C1.15460411 17.14034416 1.15460411 17.14034416 0.29212952 17.28352356 C-5.66340987 18.27237786 -11.61874617 19.26244868 -17.57397461 20.25317383 C-19.78583856 20.62098832 -21.99775126 20.98850978 -24.2097168 21.35571289 C-29.51451005 22.23644074 -34.81840915 23.12182889 -40.12060547 24.01806641 C-43.7928878 24.63759606 -47.46714266 25.23037955 -51.14892578 25.79052734 C-52.3122921 25.97526863 -52.3122921 25.97526863 -53.49916077 26.16374207 C-55.52348554 26.48506458 -57.54987634 26.79329805 -59.57641602 27.1003418 C-64.99685632 28.52473904 -69.08556248 31.16365606 -72 36 C-72.94524797 38.21239623 -72.94524797 38.21239623 -73.6484375 40.60546875 C-74.06923584 41.94424072 -74.06923584 41.94424072 -74.49853516 43.31005859 C-74.78776855 44.25961426 -75.07700195 45.20916992 -75.375 46.1875 C-75.68099121 47.17057129 -75.98698242 48.15364258 -76.30224609 49.16650391 C-78.33948927 55.74352312 -80.30833875 62.34048472 -82.22827148 68.95263672 C-83.57582261 73.59095074 -84.98478108 78.20609382 -86.4375 82.8125 C-88.88941818 90.58992199 -91.23639773 98.39739674 -93.5703125 106.2109375 C-93.91884277 107.37447754 -93.91884277 107.37447754 -94.27441406 108.56152344 C-94.79250452 110.30266997 -95.30416708 112.04573447 -95.81152344 113.79003906 C-96.21032715 115.15080566 -96.21032715 115.15080566 -96.6171875 116.5390625 C-96.85808105 117.36873535 -97.09897461 118.1984082 -97.34716797 119.05322266 C-98 121 -98 121 -99 122 C-101.86267567 122.07325168 -104.700719 122.09238205 -107.5625 122.0625 C-108.36880859 122.05798828 -109.17511719 122.05347656 -110.00585938 122.04882812 C-112.00393756 122.03700518 -114.00197783 122.01906914 -116 122 C-114.60770423 115.33056366 -112.83503872 108.87858563 -110.8125 102.375 C-110.18350225 100.33075732 -109.55459864 98.28648567 -108.92578125 96.2421875 C-108.60561035 95.20545898 -108.28543945 94.16873047 -107.95556641 93.10058594 C-106.45691371 88.23781404 -104.97905382 83.36876105 -103.5 78.5 C-102.91546173 76.57939752 -102.33082612 74.65882465 -101.74609375 72.73828125 C-100.30405248 68.00037544 -98.86388911 63.26190222 -97.42529297 58.52294922 C-96.85227306 56.63979892 -96.27709355 54.75730434 -95.69970703 52.87548828 C-94.07589276 47.57839421 -92.49487491 42.27196703 -90.95703125 36.94921875 C-90.61019287 35.77077393 -90.26335449 34.5923291 -89.90600586 33.37817383 C-89.23376169 31.09400818 -88.5738046 28.8061795 -87.92797852 26.5144043 C-87.61916748 25.47582275 -87.31035645 24.43724121 -86.9921875 23.3671875 C-86.72776855 22.45050293 -86.46334961 21.53381836 -86.19091797 20.58935547 C-84.63884375 17.2147554 -82.8775639 15.34503758 -80 13 C-76.99951172 11.97851562 -76.99951172 11.97851562 -73.5546875 11.40625 C-72.91304657 11.29438354 -72.27140564 11.18251709 -71.61032104 11.06726074 C-69.40987466 10.69031255 -67.20570658 10.3447608 -65 10 C-63.31005279 9.7223783 -61.62028086 9.44368807 -59.93066406 9.1640625 C-54.33319201 8.24738597 -48.72960425 7.37182733 -43.125 6.5 C-39.33560885 5.90833106 -35.54657631 5.31442251 -31.7578125 4.71875 C-30.84469299 4.57566406 -29.93157349 4.43257813 -28.99078369 4.28515625 C-22.40017013 3.24412056 -15.82825359 2.11651123 -9.26980591 0.8885498 C-6.08662422 0.304969 -3.25713488 0 0 0 Z " fill="#F8616C" transform="translate(494,61)"/>
<path d="M0 0 C0 27.39 0 54.78 0 83 C-8.58 83 -17.16 83 -26 83 C-34.37498708 71.90314211 -34.37498708 71.90314211 -36.3515625 66.99609375 C-39.02200638 60.76075621 -42.45512892 55.27044463 -46.19726562 49.63305664 C-49.26298642 44.63718567 -49.35504675 41.72130849 -48 36 C-42.13511395 20.79318832 -29.12892079 10.04991461 -14.80078125 3.22265625 C-9.63681731 0.96837353 -5.74030775 0 0 0 Z " fill="#FBDC2F" transform="translate(325,100)"/>
<path d="M0 0 C1.93994141 0.07983398 1.93994141 0.07983398 4 1 C5.51708984 3.02758789 5.51708984 3.02758789 6.9609375 5.72265625 C7.50766113 6.72393555 8.05438477 7.72521484 8.61767578 8.75683594 C9.48755127 10.39313965 9.48755127 10.39313965 10.375 12.0625 C11.62821477 14.3617648 12.88347602 16.65991517 14.140625 18.95703125 C14.62035263 19.83867447 14.62035263 19.83867447 15.10977173 20.73812866 C18.33009503 26.64551525 21.71380861 32.45145106 25.125 38.25 C26.27646582 40.21589746 27.42751011 42.18204188 28.578125 44.1484375 C29.14080078 45.10975586 29.70347656 46.07107422 30.28320312 47.06152344 C33.16285518 51.99034768 36.0260392 56.92837762 38.875 61.875 C39.39336426 62.76735352 39.91172852 63.65970703 40.44580078 64.57910156 C40.9148584 65.39604492 41.38391602 66.21298828 41.8671875 67.0546875 C42.28081543 67.77124512 42.69444336 68.48780273 43.12060547 69.22607422 C44 71 44 71 44 73 C24.53 73 5.06 73 -15 73 C-21.23619691 57.40950772 -24.17262172 42.18928061 -18.25390625 25.91796875 C-13.80704708 15.56967031 -7.94394995 7.94394995 0 0 Z " fill="#E3B400" transform="translate(237,110)"/>
<path d="M0 0 C7.54629632 1.42085077 14.88029509 3.61435746 22.25 5.75 C24.76040486 6.47269726 27.27082162 7.19535319 29.78125 7.91796875 C31.01101562 8.27294434 32.24078125 8.62791992 33.5078125 8.99365234 C37.41649561 10.12002201 41.32817541 11.23553398 45.24072266 12.34838867 C65.22089205 18.03451394 85.14192208 23.90081326 105 30 C101.69731864 33.30268136 97.34156323 34.32656867 93 35.875 C92.09121094 36.23335937 91.18242187 36.59171875 90.24609375 36.9609375 C85.12328994 38.7681286 81.88970689 39.41756027 76.76953125 37.33203125 C75.17558926 36.56312593 73.58537115 35.78642531 72 35 C69.57523626 34.22953841 67.13728016 33.49928048 64.6875 32.8125 C40.57141353 25.89295317 16.76706486 18.02022687 -7 10 C-6.02223933 8.51990357 -5.0427506 7.04094856 -4.0625 5.5625 C-3.51722656 4.73878906 -2.97195312 3.91507813 -2.41015625 3.06640625 C-1 1 -1 1 0 0 Z " fill="#02BEF7" transform="translate(80,56)"/>
<path d="M0 0 C1.15703002 3.990387 1.36552303 7.19040843 0.50390625 11.26953125 C-2.99121969 17.61522744 -10.7918593 20.72339722 -17 24 C-18.05960937 24.57363281 -19.11921875 25.14726562 -20.2109375 25.73828125 C-26.47711268 29 -26.47711268 29 -29 29 C-28.67 26.36 -28.34 23.72 -28 21 C-27.67 21.66 -27.34 22.32 -27 23 C-17.11679197 16.21015826 -8.42265258 8.52221112 0 0 Z " fill="#00BD81" transform="translate(385,427)"/>
</svg>
