<?xml version="1.0" ?><svg height="512px" version="1.1" viewBox="0 0 512 512" width="512px" xmlns="http://www.w3.org/2000/svg" xmlns:xlink="http://www.w3.org/1999/xlink"><title/><desc/><defs/><g fill="none" fill-rule="evenodd" id="SVG" stroke="none" stroke-width="1"><g id="Coconut-Juice"><g id="CoconutJuice" transform="translate(37.000000, -1.000000)"><path d="M353.125333,119.082949 C353.125333,130.930467 293.7469,140.530066 220.493943,140.530066 C147.240987,140.530066 87.8625532,130.930467 87.8625532,119.082949 C87.8625532,107.235432 147.240987,97.635832 220.493943,97.635832 C293.7469,97.635832 353.125333,107.235432 353.125333,119.082949" fill="#D0BC85" id="Fill-1"/><path d="M106.457099,119.084363 C123.455687,124.117437 161.863306,129.928093 220.49253,129.928093 C279.121753,129.928093 317.529372,124.117437 334.535028,119.084363 C317.529372,114.04422 279.121753,108.233564 220.49253,108.233564 C161.863306,108.233564 123.455687,114.04422 106.457099,119.084363 M220.49253,151.134867 C166.994688,151.134867 77.25911,146.971271 77.25911,119.084363 C77.25911,91.1974555 166.994688,87.0267899 220.49253,87.0267899 C273.983303,87.0267899 363.725949,91.1974555 363.725949,119.084363 C363.725949,146.971271 273.983303,151.134867 220.49253,151.134867" fill="#2E2E30" id="Fill-3"/><path d="M256.487127,140.284068 C255.130067,140.284068 253.737667,140.015449 252.401812,139.457004 C247.001844,137.194948 244.457357,130.988432 246.712056,125.587774 L296.089241,7.52259493 C298.3086,2.1996947 304.358825,-0.345118153 309.709315,1.72607676 L394.525552,34.7591614 C399.989131,36.8869077 402.689115,43.0298032 400.561641,48.487013 C398.441235,53.9512917 392.270854,56.6374831 386.835547,54.5238746 L311.660089,25.2443889 L266.276334,133.766519 C264.58001,137.831151 260.636055,140.284068 256.487127,140.284068" fill="#2E2E30" id="Fill-5"/><path d="M154.979055,131.004691 L130.219782,70.1765944" fill="#D73838" id="Fill-7"/><path d="M154.987536,141.613026 C150.796201,141.613026 146.83811,139.117695 145.155921,135.003581 L120.396648,74.1684161 C118.198494,68.7465509 120.799525,62.5612419 126.227764,60.3557374 C131.684275,58.1219572 137.833453,60.7586661 140.045743,66.1805313 L164.805016,127.008628 C167.00317,132.430493 164.402139,138.622871 158.9739,140.828375 C157.666316,141.358544 156.309256,141.613026 154.987536,141.613026" fill="#2E2E30" id="Fill-9"/><path d="M213.19904,18.1584989 C216.718914,26.7967248 181.654468,49.2334914 134.89245,68.2771743 C88.1304311,87.3137883 47.3691614,95.7399464 43.8563556,87.0946516 L111.087359,23.1562286 L213.19904,18.1584989 Z" fill="#D73838" id="Fill-11"/><path d="M115.53385,33.5532029 L68.6304715,78.1651861 C82.6392866,75.4577879 103.892822,69.449202 130.899725,58.4499553 C156.83229,47.8960509 175.760446,37.759213 187.769012,30.0187406 L115.53385,33.5532029 Z M55.4980909,100.792814 C44.8324491,100.792814 36.8738589,98.0783467 34.039583,91.1013181 C32.3856664,87.0578932 33.3822572,82.4206787 36.541662,79.4163857 L103.772666,15.4708938 C105.617419,13.7178005 108.027613,12.6857375 110.565033,12.5655657 L212.683781,7.56783605 C217.058886,7.32749261 221.335038,9.99247719 223.024294,14.1631427 C232.028951,36.3242213 174.184278,63.730442 138.893656,78.0944968 C114.721028,87.9344399 78.6882636,100.792814 55.4980909,100.792814 L55.4980909,100.792814 Z" fill="#2E2E30" id="Fill-13"/><path d="M353.125333,119.082949 C353.125333,130.930467 293.7469,140.530066 220.493943,140.530066 C147.240987,140.530066 87.8625532,130.930467 87.8625532,119.082949 C87.8625532,119.082949 31.890905,175.330382 13.9310669,222.034767 L220.493943,257.966111 L427.05682,222.034767 C409.096982,175.330382 353.125333,119.082949 353.125333,119.082949" fill="#F6EFD5" id="Fill-15"/><path d="M29.1442725,213.92459 L220.489702,247.205087 L411.849268,213.92459 C396.016904,182.397186 366.175725,148.515831 352.626331,133.92557 C326.962352,148.565313 262.537352,151.138402 220.489702,151.138402 C178.449121,151.138402 114.031189,148.565313 88.3672098,133.932639 C74.817816,148.515831 44.9695687,182.404255 29.1442725,213.92459 M220.489702,268.574446 C219.881853,268.574446 219.274003,268.517895 218.673221,268.411861 L12.117413,232.487586 C8.98628028,231.943279 6.2721607,230.0276 4.71012834,227.27072 C3.14102797,224.513839 2.89364727,221.191444 4.03159845,218.229565 C22.5851502,169.991224 77.9984249,113.962927 80.3450074,111.601906 C83.3842559,108.5552 87.9572646,107.650377 91.9082877,109.283299 C94.7779037,110.470878 96.9336497,112.82483 97.9019684,115.666538 C106.100871,120.982369 147.710303,129.931628 220.489702,129.931628 C293.269102,129.931628 334.89267,120.982369 343.091573,115.666538 C344.059891,112.82483 346.208569,110.470878 349.085253,109.283299 C353.029208,107.650377 357.609285,108.5552 360.641466,111.601906 C362.988048,113.962927 418.401323,169.991224 436.954875,218.229565 C438.092826,221.191444 437.845445,224.513839 436.283413,227.27072 C434.72138,230.0276 432.000193,231.943279 428.876128,232.487586 L222.306184,268.411861 C221.705402,268.517895 221.097552,268.574446 220.489702,268.574446" fill="#2E2E30" id="Fill-17"/><path d="M353.125333,119.082949 C353.125333,130.930467 293.7469,140.530066 220.493943,140.530066 C147.240987,140.530066 87.8625532,130.930467 87.8625532,119.082949 C87.8625532,119.082949 31.890905,175.330382 13.9310669,222.034767 L220.493943,257.966111 L427.05682,222.034767 C409.096982,175.330382 353.125333,119.082949 353.125333,119.082949" fill="#F6EFD5" id="Fill-19"/><path d="M29.1442725,213.92459 L220.489702,247.205087 L411.849268,213.92459 C396.016904,182.397186 366.175725,148.515831 352.626331,133.92557 C326.962352,148.565313 262.537352,151.138402 220.489702,151.138402 C178.449121,151.138402 114.031189,148.565313 88.3672098,133.932639 C74.817816,148.515831 44.9695687,182.404255 29.1442725,213.92459 M220.489702,268.574446 C219.881853,268.574446 219.274003,268.517895 218.673221,268.411861 L12.117413,232.487586 C8.98628028,231.943279 6.2721607,230.0276 4.71012834,227.27072 C3.14102797,224.513839 2.89364727,221.191444 4.03159845,218.229565 C22.5851502,169.991224 77.9984249,113.962927 80.3450074,111.601906 C83.3842559,108.5552 87.9572646,107.650377 91.9082877,109.283299 C94.7779037,110.470878 96.9336497,112.82483 97.9019684,115.666538 C106.100871,120.982369 147.710303,129.931628 220.489702,129.931628 C293.269102,129.931628 334.89267,120.982369 343.091573,115.666538 C344.059891,112.82483 346.208569,110.470878 349.085253,109.283299 C353.029208,107.650377 357.609285,108.5552 360.641466,111.601906 C362.988048,113.962927 418.401323,169.991224 436.954875,218.229565 C438.092826,221.191444 437.845445,224.513839 436.283413,227.27072 C434.72138,230.0276 432.000193,231.943279 428.876128,232.487586 L222.306184,268.411861 C221.705402,268.517895 221.097552,268.574446 220.489702,268.574446" fill="#2E2E30" id="Fill-21"/><path d="M427.058233,222.037595 L220.495357,257.968938 L13.9324805,222.037595 C13.9324805,222.037595 -31.5926346,500.178571 220.495357,500.178571 C472.57628,500.178571 427.058233,222.037595 427.058233,222.037595" fill="#88A451" id="Fill-25"/><g id="Group-29" transform="translate(0.000000, 129.763899)"><path d="M373.955494,105.662239 L420.067255,97.6390094 C403.210028,53.7975391 350.666369,0.992672265 350.666369,0.992672265 C350.666369,6.84574184 335.152066,12.0979528 310.520017,15.7737936 C326.189817,32.7321437 359.628618,71.3143342 373.955494,105.662239" fill="#010201" fill-opacity="0.3" id="Fill-23"/><path d="M420.069375,97.6411301 L374.650281,105.544188 C379.308106,147.441704 390.82191,342.989365 202.93981,357.819969 C210.375366,358.40669 218.093644,358.738929 226.165322,358.738929 C462.802623,358.738929 420.069375,97.6411301 420.069375,97.6411301" fill="#010201" fill-opacity="0.3" id="Fill-30"/><path d="M23.1110109,104.635831 C19.923334,137.04685 15.4563455,236.146104 70.0709339,300.353147 C103.629892,339.804815 154.236913,359.809871 220.49253,359.809871 C286.748147,359.809871 337.362236,339.804815 370.921193,300.346078 C425.535782,236.139035 421.068793,137.04685 417.881116,104.635831 L222.309011,138.651496 C221.107447,138.856495 219.877612,138.856495 218.676049,138.651496 L23.1110109,104.635831 Z M220.49253,381.016645 C147.684859,381.016645 91.6142581,358.473845 53.8427606,314.010309 C-18.2298365,229.169076 2.55014152,96.1813972 3.46898408,90.5616021 C3.92133734,87.7693769 5.4833697,85.2740465 7.78754413,83.634056 C10.0987866,81.9940655 12.9966747,81.3578623 15.7461343,81.8244113 L220.49253,117.444722 L425.245993,81.8244113 C428.009589,81.3578623 430.886273,81.9869966 433.204583,83.634056 C435.508758,85.2740465 437.063722,87.7693769 437.523143,90.5616021 C438.441986,96.1813972 459.214896,229.169076 387.149367,314.010309 C349.370801,358.473845 293.300201,381.016645 220.49253,381.016645 L220.49253,381.016645 Z" fill="#2E2E30" id="Fill-27"/></g></g></g></g></svg>