<?xml version="1.0" encoding="UTF-8"?>
<svg version="1.1" xmlns="http://www.w3.org/2000/svg" width="512" height="512">
<path d="M0 0 C3.77702297 2.63513231 6.60374735 5.7074947 8.6875 9.875 C8.6875 17.465 8.6875 25.055 8.6875 32.875 C26.1775 32.875 43.6675 32.875 61.6875 32.875 C61.6875 25.945 61.6875 19.015 61.6875 11.875 C65.49718929 4.25562143 66.95907711 1.45114096 74.6875 -1.125 C80.4144548 -1.69224124 84.76585594 -1.36881086 89.6875 1.875 C94.06749135 5.55817455 94.77410365 7.13481096 96.6875 12.875 C96.6875 19.475 96.6875 26.075 96.6875 32.875 C113.8475 32.875 131.0075 32.875 148.6875 32.875 C148.6875 26.275 148.6875 19.675 148.6875 12.875 C152.07496439 4.97091643 152.07496439 4.97091643 155.1875 2.5 C155.7753125 2.01789062 156.363125 1.53578125 156.96875 1.0390625 C161.15659752 -1.79725241 165.83355814 -1.68265351 170.6875 -1.125 C176.54199256 0.67243193 179.77389435 3.39742138 182.6875 8.875 C185.2195172 16.47105161 183.6875 24.86805857 183.6875 32.875 C201.1775 32.875 218.6675 32.875 236.6875 32.875 C236.6875 25.285 236.6875 17.695 236.6875 9.875 C242.6875 0.875 242.6875 0.875 248.6875 -1.125 C254.97850748 -1.90718565 259.52729714 -1.29644734 264.8984375 2.09765625 C269.32020364 6.49045886 270.91819778 10.23271073 271.078125 16.37109375 C271.05180143 18.35194226 271.00448394 20.33260937 270.9375 22.3125 C270.91945313 23.33021484 270.90140625 24.34792969 270.8828125 25.39648438 C270.83597997 27.89031655 270.77041427 30.38215047 270.6875 32.875 C271.82703125 32.85405273 272.9665625 32.83310547 274.140625 32.81152344 C278.39716869 32.73873386 282.65365814 32.69305958 286.91064453 32.65527344 C288.74765293 32.63524627 290.58459829 32.60801618 292.42138672 32.57324219 C295.07275002 32.52432935 297.72326541 32.50194237 300.375 32.484375 C301.18678711 32.46372986 301.99857422 32.44308472 302.83496094 32.42181396 C309.62941582 32.4191829 314.72967776 34.3757948 319.9296875 38.76953125 C320.73792969 39.71892578 320.73792969 39.71892578 321.5625 40.6875 C322.11679687 41.31269531 322.67109375 41.93789063 323.2421875 42.58203125 C326.50531111 47.75893276 326.93789732 53.27340042 326.94146729 59.26434326 C326.94458727 59.9746621 326.94770725 60.68498093 326.95092177 61.41682458 C326.95885093 63.77894594 326.95259829 66.14080676 326.94628906 68.50292969 C326.94900109 70.20350799 326.95256321 71.90408512 326.95690918 73.60466003 C326.96600748 78.20970142 326.96250022 82.81465295 326.95615101 87.41969585 C326.95108108 92.24026923 326.95578492 97.06083501 326.95892334 101.88140869 C326.96255868 109.97157165 326.95777374 118.06169806 326.94824219 126.15185547 C326.93734376 135.51038495 326.94089502 144.86882737 326.951895 154.22735476 C326.96096263 162.26315264 326.96225617 170.29892428 326.95701766 178.33472562 C326.95389696 183.13412228 326.95349166 187.93347797 326.96009064 192.73287201 C326.96585635 197.2407166 326.96188147 201.74844851 326.95030212 206.2562809 C326.94765202 207.91273372 326.94842659 209.56919598 326.95282745 211.22564507 C326.9582702 213.4817563 326.95146468 215.73750345 326.94146729 217.99359131 C326.94033621 219.88944788 326.94033621 219.88944788 326.93918228 221.82360458 C326.6875 224.875 326.6875 224.875 324.6875 227.875 C323.6975 227.875 322.7075 227.875 321.6875 227.875 C321.6875 231.175 321.6875 234.475 321.6875 237.875 C323.0075 238.205 324.3275 238.535 325.6875 238.875 C326.3125 241.6875 326.3125 241.6875 326.6875 244.875 C326.0275 245.865 325.3675 246.855 324.6875 247.875 C323.6975 247.875 322.7075 247.875 321.6875 247.875 C321.6875 251.175 321.6875 254.475 321.6875 257.875 C323.0075 258.205 324.3275 258.535 325.6875 258.875 C326.98886256 261.47772511 326.81930411 263.37819155 326.82794189 266.29396057 C326.83365204 267.44485672 326.83936218 268.59575287 326.84524536 269.78152466 C326.84636322 271.05059662 326.84748108 272.31966858 326.84863281 273.62719727 C326.85326049 274.97247962 326.85828508 276.31776066 326.86367798 277.66304016 C326.87681477 281.32456577 326.88325021 284.98607303 326.88768864 288.64761853 C326.89061922 290.93688978 326.89472415 293.22615601 326.89919281 295.51542473 C326.91287533 302.68245882 326.9225365 309.84948146 326.9263947 317.01652771 C326.93086795 325.2804539 326.94837843 333.54421407 326.9773953 341.80808979 C326.99905568 348.19972874 327.00910141 354.59132116 327.01043582 360.9829964 C327.01148136 364.79790338 327.01733468 368.61265445 327.03525543 372.42752266 C327.05181012 376.02183695 327.05385608 379.61587946 327.04511642 383.21021843 C327.04398633 385.14675762 327.05764922 387.08328808 327.0718689 389.01977539 C327.02799771 398.24149011 326.07357055 406.42623374 319.52931213 413.38401794 C312.90933454 418.74301608 304.95136986 419.46852611 296.75390625 419.37109375 C295.75415268 419.37254898 294.75439911 419.37400421 293.72434998 419.37550354 C291.6310634 419.37385574 289.53776328 419.36242147 287.44458008 419.34155273 C284.23402063 419.31235468 281.02509101 419.32101556 277.81445312 419.33398438 C275.77342946 419.32775323 273.73241099 419.3193672 271.69140625 419.30859375 C270.7320668 419.31152939 269.77272736 419.31446503 268.78431702 419.31748962 C267.89586594 419.30480545 267.00741486 419.29212128 266.09204102 419.27905273 C264.92149925 419.27094826 264.92149925 419.27094826 263.72731018 419.26268005 C261.1686547 418.77638986 260.25414856 417.92138503 258.6875 415.875 C258.6875 415.215 258.6875 414.555 258.6875 413.875 C253.7375 413.875 248.7875 413.875 243.6875 413.875 C243.3575 416.185 243.0275 418.495 242.6875 420.875 C242.02661133 422.96386719 242.02661133 422.96386719 241.26953125 424.671875 C240.98803223 425.31479492 240.7065332 425.95771484 240.41650391 426.62011719 C240.11405762 427.28172852 239.81161133 427.94333984 239.5 428.625 C239.18466309 429.3252832 238.86932617 430.02556641 238.54443359 430.74707031 C223.61112063 463.49965104 197.78458963 486.29378072 164.34765625 499.16015625 C132.69737395 509.65703424 98.14106446 506.69918991 68.375 492.0625 C56.05745365 485.74743578 45.5116527 477.56401992 35.6875 467.875 C34.82253906 467.02292969 33.95757812 466.17085938 33.06640625 465.29296875 C21.53678356 453.29568586 5.6875 431.21277025 5.6875 413.875 C-0.5825 413.875 -6.8525 413.875 -13.3125 413.875 C-13.6425 415.195 -13.9725 416.515 -14.3125 417.875 C-16.63249578 419.03499789 -18.01952149 419.01949752 -20.60351562 419.05200195 C-21.49204224 419.06483719 -22.38056885 419.07767242 -23.29602051 419.09089661 C-24.26052124 419.09828354 -25.22502197 419.10567047 -26.21875 419.11328125 C-27.21322144 419.121353 -28.20769287 419.12942474 -29.2322998 419.13774109 C-31.34397637 419.15159347 -33.45567543 419.16231044 -35.56738281 419.17016602 C-38.77192905 419.18728329 -41.97541776 419.23114778 -45.1796875 419.27539062 C-47.23436743 419.28552608 -49.28905613 419.29403951 -51.34375 419.30078125 C-52.29205688 419.31828934 -53.24036377 419.33579742 -54.21740723 419.35383606 C-61.4396204 419.33071243 -68.39906017 418.04382406 -74.1541748 413.38374329 C-81.36466038 405.71953433 -81.75296699 396.42485408 -81.70018005 386.39250183 C-81.70556559 385.15848501 -81.71095113 383.92446819 -81.71649987 382.65305692 C-81.72828544 379.24906887 -81.72673004 375.84557363 -81.71933305 372.44160569 C-81.71458821 368.76269357 -81.72712244 365.08383311 -81.73735046 361.40493774 C-81.75451471 354.20782281 -81.75538388 347.01079526 -81.75013756 339.81366517 C-81.74609227 333.96579273 -81.74754365 328.11794606 -81.75288582 322.27007484 C-81.75363424 321.43706541 -81.75438266 320.60405598 -81.75515376 319.74580384 C-81.75668525 318.05350356 -81.7582236 316.36120329 -81.75976873 314.66890303 C-81.77348372 298.8144173 -81.76806182 282.95998098 -81.75658352 267.10549638 C-81.74663936 252.59460321 -81.75961396 238.08383734 -81.78351771 223.5729638 C-81.80788243 208.67004274 -81.81752386 193.76718105 -81.81086498 178.86424047 C-81.80736856 170.49839116 -81.80963338 162.13263991 -81.82711601 153.76680565 C-81.84180462 146.64990676 -81.84251677 139.53317507 -81.8250451 132.41627958 C-81.81650738 128.7843138 -81.81445282 125.15264715 -81.82969666 121.52069664 C-81.84599971 117.58783629 -81.83145599 113.65544226 -81.81370544 109.72257996 C-81.82331045 108.56919496 -81.83291546 107.41580997 -81.84281152 106.22747391 C-81.83299723 105.17655794 -81.82318294 104.12564197 -81.81307125 103.04288006 C-81.81296391 102.13491104 -81.81285658 101.22694202 -81.81274599 100.29145879 C-81.15992919 97.13800045 -79.65442755 96.00414709 -77.3125 93.875 C-76.62716368 91.53461239 -76.62716368 91.53461239 -76.5625 89.125 C-76.47742188 87.92617187 -76.47742188 87.92617187 -76.390625 86.703125 C-76.36484375 86.09984375 -76.3390625 85.4965625 -76.3125 84.875 C-76.951875 84.59398438 -77.59125 84.31296875 -78.25 84.0234375 C-80.3125 82.875 -80.3125 82.875 -81.3125 80.5 C-81.3125 79.63375 -81.3125 78.7675 -81.3125 77.875 C-80.69375 77.2975 -80.075 76.72 -79.4375 76.125 C-76.29491975 72.79756209 -76.50195965 69.30835571 -76.3125 64.875 C-76.951875 64.58625 -77.59125 64.2975 -78.25 64 C-80.3125 62.875 -80.3125 62.875 -81.3125 60.875 C-82.09663143 53.74241991 -81.18197341 46.70096455 -76.80078125 40.859375 C-72.07415949 35.80348296 -66.93795791 32.77877567 -59.93774414 32.53442383 C-58.32430354 32.53489237 -56.71080721 32.55145674 -55.09765625 32.58203125 C-54.24191513 32.58627609 -53.38617401 32.59052094 -52.50450134 32.59489441 C-49.7943358 32.61157211 -47.08493752 32.64920295 -44.375 32.6875 C-42.5280056 32.70256098 -40.68099944 32.7162469 -38.83398438 32.72851562 C-34.32653116 32.76143974 -29.81964528 32.81314531 -25.3125 32.875 C-25.33344727 32.2452124 -25.35439453 31.6154248 -25.37597656 30.96655273 C-25.45970099 28.08203429 -25.51133621 25.19777232 -25.5625 22.3125 C-25.59601563 21.32185547 -25.62953125 20.33121094 -25.6640625 19.31054688 C-25.74937275 12.89095071 -25.17951331 9.06745604 -21.3125 3.875 C-15.28989747 -2.10815317 -7.77623548 -2.64098564 0 0 Z M16.6875 413.875 C24.8677351 441.97232924 44.08814044 465.8806541 69.6796875 480.171875 C96.62654374 494.48677606 127.62333599 498.45720445 156.984375 489.62109375 C185.95647275 480.3183062 209.99202044 460.5854532 224.6875 433.875 C228.04457097 427.25784011 230.64183183 421.03483861 232.6875 413.875 C223.4475 413.875 214.2075 413.875 204.6875 413.875 C202.955 417.4946875 202.955 417.4946875 201.1875 421.1875 C189.8365095 444.15730289 172.0510674 458.41300783 148.265625 467.12890625 C125.20713128 474.10969496 99.85798466 470.94664667 78.63671875 460.078125 C59.47996398 449.71713254 47.11103765 433.52992117 38.6875 413.875 C31.4275 413.875 24.1675 413.875 16.6875 413.875 Z " fill="#EDEDED" transform="translate(133.3125,4.125)"/>
<path d="M0 0 C3.77702297 2.63513231 6.60374735 5.7074947 8.6875 9.875 C8.6875 17.465 8.6875 25.055 8.6875 32.875 C26.1775 32.875 43.6675 32.875 61.6875 32.875 C61.6875 25.945 61.6875 19.015 61.6875 11.875 C65.49718929 4.25562143 66.95907711 1.45114096 74.6875 -1.125 C80.4144548 -1.69224124 84.76585594 -1.36881086 89.6875 1.875 C94.06749135 5.55817455 94.77410365 7.13481096 96.6875 12.875 C96.6875 19.475 96.6875 26.075 96.6875 32.875 C113.8475 32.875 131.0075 32.875 148.6875 32.875 C148.6875 26.275 148.6875 19.675 148.6875 12.875 C152.07496439 4.97091643 152.07496439 4.97091643 155.1875 2.5 C155.7753125 2.01789062 156.363125 1.53578125 156.96875 1.0390625 C161.15659752 -1.79725241 165.83355814 -1.68265351 170.6875 -1.125 C176.54199256 0.67243193 179.77389435 3.39742138 182.6875 8.875 C185.2195172 16.47105161 183.6875 24.86805857 183.6875 32.875 C201.1775 32.875 218.6675 32.875 236.6875 32.875 C236.6875 25.285 236.6875 17.695 236.6875 9.875 C242.6875 0.875 242.6875 0.875 248.6875 -1.125 C254.97850748 -1.90718565 259.52729714 -1.29644734 264.8984375 2.09765625 C269.32020364 6.49045886 270.91819778 10.23271073 271.078125 16.37109375 C271.05180143 18.35194226 271.00448394 20.33260937 270.9375 22.3125 C270.91945313 23.33021484 270.90140625 24.34792969 270.8828125 25.39648438 C270.83597997 27.89031655 270.77041427 30.38215047 270.6875 32.875 C271.82703125 32.85405273 272.9665625 32.83310547 274.140625 32.81152344 C278.39716869 32.73873386 282.65365814 32.69305958 286.91064453 32.65527344 C288.74765293 32.63524627 290.58459829 32.60801618 292.42138672 32.57324219 C295.07275002 32.52432935 297.72326541 32.50194237 300.375 32.484375 C301.18678711 32.46372986 301.99857422 32.44308472 302.83496094 32.42181396 C309.62941582 32.4191829 314.72967776 34.3757948 319.9296875 38.76953125 C320.73792969 39.71892578 320.73792969 39.71892578 321.5625 40.6875 C322.11679687 41.31269531 322.67109375 41.93789063 323.2421875 42.58203125 C326.50531111 47.75893276 326.93789732 53.27340042 326.94146729 59.26434326 C326.94458727 59.9746621 326.94770725 60.68498093 326.95092177 61.41682458 C326.95885093 63.77894594 326.95259829 66.14080676 326.94628906 68.50292969 C326.94900109 70.20350799 326.95256321 71.90408512 326.95690918 73.60466003 C326.96600748 78.20970142 326.96250022 82.81465295 326.95615101 87.41969585 C326.95108108 92.24026923 326.95578492 97.06083501 326.95892334 101.88140869 C326.96255868 109.97157165 326.95777374 118.06169806 326.94824219 126.15185547 C326.93734376 135.51038495 326.94089502 144.86882737 326.951895 154.22735476 C326.96096263 162.26315264 326.96225617 170.29892428 326.95701766 178.33472562 C326.95389696 183.13412228 326.95349166 187.93347797 326.96009064 192.73287201 C326.96585635 197.2407166 326.96188147 201.74844851 326.95030212 206.2562809 C326.94765202 207.91273372 326.94842659 209.56919598 326.95282745 211.22564507 C326.9582702 213.4817563 326.95146468 215.73750345 326.94146729 217.99359131 C326.94033621 219.88944788 326.94033621 219.88944788 326.93918228 221.82360458 C326.6875 224.875 326.6875 224.875 324.6875 227.875 C321.75 228.25 321.75 228.25 318.6875 227.875 C317.2025 226.39 317.2025 226.39 315.6875 224.875 C315.6875 189.895 315.6875 154.915 315.6875 118.875 C188.3075 118.875 60.9275 118.875 -70.3125 118.875 C-70.209375 165.136875 -70.10625 211.39875 -70 259.0625 C-69.97510498 273.68715576 -69.95020996 288.31181152 -69.92456055 303.37963867 C-69.88801016 316.45237571 -69.88801016 316.45237571 -69.8474884 329.52510071 C-69.82950127 335.36239129 -69.81968904 341.1996263 -69.81538391 347.03694153 C-69.81039339 353.76562788 -69.79511622 360.49419613 -69.76701616 367.22282716 C-69.7529615 370.66636861 -69.74360289 374.10974453 -69.74746072 377.55331647 C-69.74910594 381.23770371 -69.73252478 384.92156534 -69.71122742 388.60588074 C-69.71849964 390.22360618 -69.71849964 390.22360618 -69.72591877 391.87401295 C-69.73506673 398.90003806 -69.73506673 398.90003806 -66.3125 404.875 C-63.13748672 406.99167552 -62.34155068 407.12726395 -58.70507812 407.14624023 C-57.77401245 407.15642685 -56.84294678 407.16661346 -55.88366699 407.17710876 C-54.37890808 407.18031883 -54.37890808 407.18031883 -52.84375 407.18359375 C-50.72525758 407.20874645 -48.60676806 407.23414458 -46.48828125 407.25976562 C-43.1437246 407.28855982 -39.79921821 407.31257436 -36.45458984 407.33129883 C-33.22988138 407.3528918 -30.00575765 407.39231967 -26.78125 407.43359375 C-25.27649109 407.43376747 -25.27649109 407.43376747 -23.74133301 407.4339447 C-22.81026733 407.44728348 -21.87920166 407.46062225 -20.91992188 407.47436523 C-20.10068237 407.47943588 -19.28144287 407.48450653 -18.43737793 407.48973083 C-15.77969291 407.97160515 -14.86144777 408.67927241 -13.3125 410.875 C-13.5 414.5 -13.5 414.5 -14.3125 417.875 C-16.63249578 419.03499789 -18.01952149 419.01949752 -20.60351562 419.05200195 C-21.49204224 419.06483719 -22.38056885 419.07767242 -23.29602051 419.09089661 C-24.26052124 419.09828354 -25.22502197 419.10567047 -26.21875 419.11328125 C-27.21322144 419.121353 -28.20769287 419.12942474 -29.2322998 419.13774109 C-31.34397637 419.15159347 -33.45567543 419.16231044 -35.56738281 419.17016602 C-38.77192905 419.18728329 -41.97541776 419.23114778 -45.1796875 419.27539062 C-47.23436743 419.28552608 -49.28905613 419.29403951 -51.34375 419.30078125 C-52.29205688 419.31828934 -53.24036377 419.33579742 -54.21740723 419.35383606 C-61.4396204 419.33071243 -68.39906017 418.04382406 -74.1541748 413.38374329 C-81.36466038 405.71953433 -81.75296699 396.42485408 -81.70018005 386.39250183 C-81.70556559 385.15848501 -81.71095113 383.92446819 -81.71649987 382.65305692 C-81.72828544 379.24906887 -81.72673004 375.84557363 -81.71933305 372.44160569 C-81.71458821 368.76269357 -81.72712244 365.08383311 -81.73735046 361.40493774 C-81.75451471 354.20782281 -81.75538388 347.01079526 -81.75013756 339.81366517 C-81.74609227 333.96579273 -81.74754365 328.11794606 -81.75288582 322.27007484 C-81.75363424 321.43706541 -81.75438266 320.60405598 -81.75515376 319.74580384 C-81.75668525 318.05350356 -81.7582236 316.36120329 -81.75976873 314.66890303 C-81.77348372 298.8144173 -81.76806182 282.95998098 -81.75658352 267.10549638 C-81.74663936 252.59460321 -81.75961396 238.08383734 -81.78351771 223.5729638 C-81.80788243 208.67004274 -81.81752386 193.76718105 -81.81086498 178.86424047 C-81.80736856 170.49839116 -81.80963338 162.13263991 -81.82711601 153.76680565 C-81.84180462 146.64990676 -81.84251677 139.53317507 -81.8250451 132.41627958 C-81.81650738 128.7843138 -81.81445282 125.15264715 -81.82969666 121.52069664 C-81.84599971 117.58783629 -81.83145599 113.65544226 -81.81370544 109.72257996 C-81.82331045 108.56919496 -81.83291546 107.41580997 -81.84281152 106.22747391 C-81.83299723 105.17655794 -81.82318294 104.12564197 -81.81307125 103.04288006 C-81.81296391 102.13491104 -81.81285658 101.22694202 -81.81274599 100.29145879 C-81.15992919 97.13800045 -79.65442755 96.00414709 -77.3125 93.875 C-76.62716368 91.53461239 -76.62716368 91.53461239 -76.5625 89.125 C-76.47742188 87.92617187 -76.47742188 87.92617187 -76.390625 86.703125 C-76.36484375 86.09984375 -76.3390625 85.4965625 -76.3125 84.875 C-76.951875 84.59398438 -77.59125 84.31296875 -78.25 84.0234375 C-80.3125 82.875 -80.3125 82.875 -81.3125 80.5 C-81.3125 79.63375 -81.3125 78.7675 -81.3125 77.875 C-80.69375 77.2975 -80.075 76.72 -79.4375 76.125 C-76.29491975 72.79756209 -76.50195965 69.30835571 -76.3125 64.875 C-76.951875 64.58625 -77.59125 64.2975 -78.25 64 C-80.3125 62.875 -80.3125 62.875 -81.3125 60.875 C-82.09663143 53.74241991 -81.18197341 46.70096455 -76.80078125 40.859375 C-72.07415949 35.80348296 -66.93795791 32.77877567 -59.93774414 32.53442383 C-58.32430354 32.53489237 -56.71080721 32.55145674 -55.09765625 32.58203125 C-54.24191513 32.58627609 -53.38617401 32.59052094 -52.50450134 32.59489441 C-49.7943358 32.61157211 -47.08493752 32.64920295 -44.375 32.6875 C-42.5280056 32.70256098 -40.68099944 32.7162469 -38.83398438 32.72851562 C-34.32653116 32.76143974 -29.81964528 32.81314531 -25.3125 32.875 C-25.33344727 32.2452124 -25.35439453 31.6154248 -25.37597656 30.96655273 C-25.45970099 28.08203429 -25.51133621 25.19777232 -25.5625 22.3125 C-25.59601563 21.32185547 -25.62953125 20.33121094 -25.6640625 19.31054688 C-25.74937275 12.89095071 -25.17951331 9.06745604 -21.3125 3.875 C-15.28989747 -2.10815317 -7.77623548 -2.64098564 0 0 Z " fill="#030303" transform="translate(133.3125,4.125)"/>
<path d="M0 0 C0.92941406 0.45246094 1.85882813 0.90492188 2.81640625 1.37109375 C9.54817033 4.82592121 15.3256742 9.0095506 21 14 C21.75023437 14.65484375 22.50046875 15.3096875 23.2734375 15.984375 C39.88220196 31.4858885 49.5974641 53.9743985 50.52392578 76.55957031 C50.90791918 102.71972817 41.78341009 125.66778112 23.875 144.625 C5.7528788 162.17141846 -17.12105997 169.69022084 -41.99414062 169.46826172 C-67.02461617 168.80017608 -88.20108546 158.76648065 -105.6171875 140.734375 C-115.90414477 128.92966994 -122.22921815 116.18738866 -126 101 C-126.22816406 100.14148438 -126.45632812 99.28296875 -126.69140625 98.3984375 C-131.59143862 76.8108823 -127.22075465 53.46879496 -115.9765625 34.60546875 C-110.00489083 25.42596602 -110.00489083 25.42596602 -106 22 C-104.865625 21.87625 -103.73125 21.7525 -102.5625 21.625 C-98.79432267 21.29831232 -98.79432267 21.29831232 -96.125 18.3125 C-93.98823899 14.98166666 -93.36123166 12.8832403 -93 9 C-92.505 8.505 -92.505 8.505 -92 8 C-90.60355729 8.00587976 -89.20719526 8.05491481 -87.8125 8.125 C-83.46497854 8.15269122 -80.60244824 7.63593773 -77 5 C-76.566875 3.5459375 -76.566875 3.5459375 -76.125 2.0625 C-74.64406987 -1.96892091 -73.00353829 -2.32867613 -69.26464844 -4.07446289 C-47.44333625 -12.99259511 -20.7806713 -10.46662299 0 0 Z " fill="#EDBD27" transform="translate(294,306)"/>
<path d="M0 0 C1.19221916 0.00212242 1.19221916 0.00212242 2.40852356 0.00428772 C4.9455645 0.00988247 7.482517 0.02243397 10.01953125 0.03515625 C11.7402331 0.04017193 13.46093633 0.04473472 15.18164062 0.04882812 C19.39847155 0.05985018 23.61523641 0.07711119 27.83203125 0.09765625 C27.84661377 0.7023877 27.86119629 1.30711914 27.8762207 1.93017578 C27.95112313 4.6949489 28.04764198 7.45856982 28.14453125 10.22265625 C28.17836914 11.64964844 28.17836914 11.64964844 28.21289062 13.10546875 C28.44731423 19.2431049 28.99110697 24.05432515 33.3671875 28.7421875 C38.82066064 32.91249049 42.03010958 33.84619308 48.83203125 33.09765625 C52.14635549 32.1863622 53.8695112 31.10614442 56.83203125 29.09765625 C62.32814655 19.45263848 62.32814655 19.45263848 61.83203125 0.09765625 C79.65203125 0.09765625 97.47203125 0.09765625 115.83203125 0.09765625 C116.16203125 7.35765625 116.49203125 14.61765625 116.83203125 22.09765625 C119.63772549 27.70904473 121.3591103 30.36119577 126.83203125 33.09765625 C132.48812454 33.81346889 136.91749094 33.05573263 142.0078125 30.55859375 C144.5540602 28.67047611 144.5540602 28.67047611 147.83203125 23.09765625 C148.16203125 15.50765625 148.49203125 7.91765625 148.83203125 0.09765625 C166.65203125 0.09765625 184.47203125 0.09765625 202.83203125 0.09765625 C203.16203125 7.68765625 203.49203125 15.27765625 203.83203125 23.09765625 C208.67095197 30.32976403 208.67095197 30.32976403 215.83203125 33.09765625 C220.64002708 33.76892966 223.84999592 33.60685976 228.20703125 31.34765625 C231.58796231 28.44971534 233.4238242 26.32227739 234.83203125 22.09765625 C235.16203125 14.83765625 235.49203125 7.57765625 235.83203125 0.09765625 C253.65203125 0.09765625 271.47203125 0.09765625 289.83203125 0.09765625 C290.16203125 7.35765625 290.49203125 14.61765625 290.83203125 22.09765625 C295.07217784 29.91600182 295.07217784 29.91600182 301.83203125 33.09765625 C306.95819349 33.75828727 310.64383141 33.72416162 315.26953125 31.28515625 C316.11515625 30.56328125 316.96078125 29.84140625 317.83203125 29.09765625 C318.69828125 28.38609375 318.69828125 28.38609375 319.58203125 27.66015625 C322.37202516 24.17266387 323.0853275 20.38310814 323.24609375 16.015625 C323.28476562 15.08427734 323.3234375 14.15292969 323.36328125 13.19335938 C323.39421875 12.23365234 323.42515625 11.27394531 323.45703125 10.28515625 C323.49570312 9.30611328 323.534375 8.32707031 323.57421875 7.31835938 C323.66813941 4.91164251 323.75381326 2.50492613 323.83203125 0.09765625 C328.84906304 -0.00157 333.86551777 -0.07397962 338.88330078 -0.12207031 C340.58848019 -0.14212744 342.29359131 -0.16938032 343.99853516 -0.20410156 C346.45622649 -0.25288236 348.91300491 -0.27537094 351.37109375 -0.29296875 C352.12758209 -0.31361389 352.88407043 -0.33425903 353.66348267 -0.35552979 C358.84157049 -0.35770171 361.73642619 0.6692324 365.83203125 4.09765625 C378.24653889 20.65033311 368.83203125 45.40681018 368.83203125 66.09765625 C241.45203125 66.09765625 114.07203125 66.09765625 -17.16796875 66.09765625 C-17.49796875 62.46765625 -17.82796875 58.83765625 -18.16796875 55.09765625 C-19.16796875 52.59765625 -19.16796875 52.59765625 -23.16796875 51.09765625 C-23.16796875 48.12765625 -23.16796875 45.15765625 -23.16796875 42.09765625 C-24.48796875 41.43765625 -25.80796875 40.77765625 -27.16796875 40.09765625 C-28.16796875 37.72265625 -28.16796875 37.72265625 -28.16796875 35.09765625 C-27.54921875 34.52015625 -26.93046875 33.94265625 -26.29296875 33.34765625 C-23.81837061 30.72749351 -23.90391888 29.99856366 -23.73046875 26.53515625 C-23.578125 24.1171875 -23.578125 24.1171875 -23.16796875 22.09765625 C-22.34296875 21.64390625 -21.51796875 21.19015625 -20.66796875 20.72265625 C-19.84296875 20.18640625 -19.01796875 19.65015625 -18.16796875 19.09765625 C-17.77330186 16.65295116 -17.77330186 16.65295116 -17.73046875 13.84765625 C-17.50095657 8.60365077 -16.32264091 6.10432199 -12.73828125 2.33984375 C-8.9742792 -0.63765041 -4.5380521 -0.03034071 0 0 Z " fill="#70BFE5" transform="translate(80.16796875,46.90234375)"/>
<path d="M0 0 C1.79110498 -0.00782324 1.79110498 -0.00782324 3.6183939 -0.01580453 C4.95527773 -0.01147977 6.29216095 -0.00696643 7.62904358 -0.002285 C9.04002767 -0.00458742 10.45101056 -0.00776246 11.86199093 -0.01173949 C15.75298158 -0.0201263 19.64387475 -0.01594471 23.53486586 -0.00976706 C27.7257807 -0.00525937 31.91667826 -0.01221792 36.10758972 -0.0177269 C44.32299898 -0.02664062 52.53837179 -0.02469011 60.75378251 -0.01890162 C67.42801606 -0.01439289 74.10223936 -0.01376879 80.776474 -0.01594925 C81.72479912 -0.01625572 82.67312424 -0.01656218 83.65018648 -0.01687793 C85.57642595 -0.01751736 87.50266542 -0.01816578 89.42890489 -0.01882312 C107.50990354 -0.02453221 125.59088194 -0.01795945 143.67187726 -0.00722238 C159.20098517 0.00171365 174.73006317 0.00016177 190.25917053 -0.00905991 C208.27353311 -0.01975233 226.28787792 -0.02398283 244.30224323 -0.01783538 C246.22157097 -0.01719825 248.1408987 -0.01656951 250.06022644 -0.01594925 C251.47690791 -0.01548642 251.47690791 -0.01548642 252.9222092 -0.01501425 C259.59181546 -0.01328422 266.26141049 -0.01620902 272.93101501 -0.02090836 C281.05417187 -0.02650579 289.17729006 -0.0250248 297.30044246 -0.01434687 C301.44847159 -0.00907476 305.59643615 -0.00705943 309.74446487 -0.01364517 C313.53666847 -0.01957512 317.32874721 -0.01637885 321.12093937 -0.00569007 C322.49775541 -0.00344341 323.87458186 -0.00462041 325.25139129 -0.00944164 C327.11315393 -0.01546437 328.97494582 -0.00813183 330.83670044 0 C332.3923073 0.00048706 332.3923073 0.00048706 333.97934055 0.00098395 C336.41835022 0.25168228 336.41835022 0.25168228 338.41835022 2.25168228 C338.66904855 4.23543787 338.66904855 4.23543787 338.6700325 6.72449875 C338.675248 7.67124765 338.68046349 8.61799655 338.68583703 9.59343481 C338.68137559 10.64069188 338.67691414 11.68794894 338.6723175 12.76694107 C338.67543749 13.87388148 338.67855747 14.98082189 338.68177199 16.12130594 C338.68979235 19.85557302 338.68341264 23.58967942 338.67713928 27.32394791 C338.67984736 29.99091956 338.68333449 32.65787989 338.6877594 35.32484818 C338.69667092 41.83175428 338.69472359 48.33861435 338.68893412 54.84552228 C338.68442453 60.1319799 338.68380167 65.41842459 338.68598175 70.70488358 C338.68628822 71.45615805 338.68659468 72.20743252 338.68691044 72.98147288 C338.68754986 74.50748535 338.68819829 76.03349782 338.68885562 77.55951029 C338.69456406 91.88211724 338.68799297 106.20469862 338.67725489 120.52730137 C338.66831891 132.82720547 338.6698708 145.12707183 338.67909241 157.42697525 C338.68978597 171.69696153 338.69401469 185.96692538 338.68786788 200.23691511 C338.68723076 201.75743707 338.68660201 203.27795903 338.68598175 204.79848099 C338.6856732 205.54668347 338.68536465 206.29488595 338.68504675 207.06576124 C338.68331706 212.34826548 338.68624079 217.63075555 338.69094086 222.9132576 C338.69653956 229.34742966 338.69505463 235.7815529 338.68437937 242.21571934 C338.67910895 245.50099549 338.6781586 248.7861729 338.68367767 252.07145119 C338.68910143 255.62652461 338.68233766 259.18136512 338.6723175 262.73642349 C338.67677895 263.78368056 338.68124039 264.83093762 338.68583703 265.90992975 C338.68062154 266.85667865 338.67540604 267.80342755 338.6700325 268.77886581 C338.6697078 269.6002559 338.66938309 270.42164599 338.66904855 271.26792669 C338.41835022 273.25168228 338.41835022 273.25168228 336.41835022 275.25168228 C332.85585022 275.00168228 332.85585022 275.00168228 329.41835022 274.25168228 C328.24446208 271.90390599 328.29405277 270.53053314 328.29530239 267.91383553 C328.29331134 266.99720379 328.29132029 266.08057205 328.28926891 265.13616359 C328.29218175 264.12256082 328.29509459 263.10895805 328.2980957 262.06464005 C328.29681407 260.45724069 328.29681407 260.45724069 328.29550654 258.81736863 C328.29385074 255.20284585 328.29937476 251.5883688 328.30482483 247.97385025 C328.30510671 245.39230729 328.30494896 242.81076425 328.30438232 240.22922134 C328.30385721 234.65910615 328.30700266 229.08900264 328.31262016 223.51889038 C328.32073692 215.46538016 328.32335056 207.41187561 328.32460815 199.35836174 C328.3267984 186.29301356 328.33345773 173.22767161 328.34291077 160.16232681 C328.3520856 147.46831671 328.35916609 134.77430831 328.36341858 122.08029556 C328.36381266 120.90719447 328.36381266 120.90719447 328.36421471 119.71039437 C328.36551972 115.78710898 328.36678343 111.86382358 328.36802661 107.94053817 C328.37839836 75.37758167 328.39601593 42.81463281 328.41835022 10.25168228 C327.71736717 10.25282144 327.01638413 10.2539606 326.29415917 10.25513428 C284.77548438 10.3222254 243.25681587 10.37372013 201.7380978 10.40487827 C196.75618966 10.40863052 191.77428163 10.41251348 186.79237366 10.4164772 C185.80053879 10.41726413 184.80870393 10.41805107 183.78681347 10.41886184 C167.71371391 10.4319263 151.64064645 10.45558585 135.56756595 10.48314067 C119.08292774 10.51116596 102.59830637 10.52785244 86.11364532 10.53394777 C75.93650058 10.53807019 65.75944655 10.55110429 55.58232972 10.57543168 C48.60953802 10.59125339 41.63679341 10.59609075 34.66398504 10.59218641 C30.63719738 10.59025929 26.61056854 10.59327459 22.5838089 10.60929871 C18.89993965 10.62385174 15.21633668 10.62466484 11.53245541 10.61437897 C9.56300403 10.61250264 7.59355596 10.62548263 5.62414956 10.63892621 C4.45969804 10.63295306 3.29524651 10.62697992 2.09550858 10.62082577 C0.5849811 10.62253451 0.5849811 10.62253451 -0.95606208 10.62427777 C-4.00969694 10.19093838 -5.39283722 9.39913482 -7.58164978 7.25168228 C-7.95664978 4.68918228 -7.95664978 4.68918228 -7.58164978 2.25168228 C-4.92704959 -0.40291791 -3.70806303 0.00116099 0 0 Z " fill="#FEFEFE" transform="translate(103.58164978027344,129.74831771850586)"/>
<path d="M0 0 C0.92941406 0.45246094 1.85882813 0.90492188 2.81640625 1.37109375 C9.54817033 4.82592121 15.3256742 9.0095506 21 14 C21.75023437 14.65484375 22.50046875 15.3096875 23.2734375 15.984375 C39.88220196 31.4858885 49.5974641 53.9743985 50.52392578 76.55957031 C50.90791918 102.71972817 41.78341009 125.66778112 23.875 144.625 C5.7528788 162.17141846 -17.12105997 169.69022084 -41.99414062 169.46826172 C-67.02461617 168.80017608 -88.20108546 158.76648065 -105.6171875 140.734375 C-115.90414477 128.92966994 -122.22921815 116.18738866 -126 101 C-126.22816406 100.14148438 -126.45632812 99.28296875 -126.69140625 98.3984375 C-131.59143862 76.8108823 -127.22075465 53.46879496 -115.9765625 34.60546875 C-110.0557835 25.50419695 -110.0557835 25.50419695 -106 22 C-102.875 21.625 -102.875 21.625 -100 22 C-98 24 -98 24 -97.9375 26.5625 C-98.99008546 29.96792354 -99.89271157 31.27881939 -102.125 33.9375 C-115.31300668 50.13139732 -118.21792879 70.27250927 -116.75 90.43359375 C-114.67051751 108.13085615 -105.44172281 124.53652592 -93 137 C-92.38640625 137.62519531 -91.7728125 138.25039063 -91.140625 138.89453125 C-81.85738909 147.68186781 -70.29764183 152.99622291 -58 156 C-57.32718994 156.17442627 -56.65437988 156.34885254 -55.96118164 156.52856445 C-35.23473265 161.60735115 -14.02933752 156.88990061 4 146 C7.54664097 143.54007354 10.79652046 140.88930292 14 138 C14.68449219 137.40832031 15.36898437 136.81664062 16.07421875 136.20703125 C28.78815962 124.49222129 37.84240677 105.90080568 39.18725586 88.58959961 C39.26674933 86.0975661 39.27813121 83.61809802 39.25 81.125 C39.24250732 80.24513428 39.23501465 79.36526855 39.22729492 78.45874023 C38.8803793 57.48294254 30.20486041 38.75769381 15.7578125 23.65625 C1.36038926 9.87248742 -19.10170188 1.58729464 -39.0625 1.625 C-39.875979 1.62516113 -40.68945801 1.62532227 -41.52758789 1.62548828 C-50.17063727 1.78512466 -59.48048939 3.16331772 -67.2421875 7.15234375 C-69.97643715 8.47085969 -72.13883808 7.69939514 -75 7 C-76 6 -76 6 -76.3125 3.125 C-76 0 -76 0 -74.5625 -1.6875 C-51.86191139 -13.31463075 -22.40006101 -11.28226274 0 0 Z " fill="#050402" transform="translate(294,306)"/>
<path d="M0 0 C3.95774772 0.72935636 6.33600015 3.07210926 9.234375 5.69140625 C9.78996094 6.17416016 10.34554687 6.65691406 10.91796875 7.15429688 C12.54603783 8.58125154 14.1439941 10.03515008 15.734375 11.50390625 C16.69730469 12.39078125 17.66023438 13.27765625 18.65234375 14.19140625 C19.33941406 14.95453125 20.02648437 15.71765625 20.734375 16.50390625 C20.546875 19.31640625 20.546875 19.31640625 19.734375 21.50390625 C13.70900502 23.07050244 13.70900502 23.07050244 10.93359375 21.45703125 C9.46858196 20.21229569 8.09371788 18.86324913 6.734375 17.50390625 C5.08901307 46.26727028 19.52463245 72.96601396 37.91015625 93.9921875 C56.82813964 114.05023769 84.79060221 126.66500894 112.26171875 127.7890625 C141.65948145 128.47757486 167.85918881 120.24346556 190.734375 101.50390625 C191.58515625 100.818125 192.4359375 100.13234375 193.3125 99.42578125 C207.99731774 86.95753977 217.95355869 70.36734706 224.734375 52.50390625 C225.10433594 51.56675781 225.47429687 50.62960937 225.85546875 49.6640625 C227.88998046 44.35048429 229.3476794 39.22027862 230.2421875 33.59765625 C230.734375 31.50390625 230.734375 31.50390625 232.734375 28.50390625 C235.734375 28.19140625 235.734375 28.19140625 238.734375 28.50390625 C240.734375 30.50390625 240.734375 30.50390625 240.8515625 32.76171875 C238.18089042 64.3790302 221.4862659 91.3729925 197.796875 111.81640625 C170.55471564 133.65953662 137.78631578 142.2263676 103.25097656 139.29296875 C75.09492401 136.07930776 49.68893198 122.18398514 29.734375 102.50390625 C28.86941406 101.65183594 28.00445312 100.79976563 27.11328125 99.921875 C12.28393483 84.49102623 1.82372895 63.79574162 -2.328125 42.87890625 C-2.59254395 41.55681152 -2.59254395 41.55681152 -2.86230469 40.20800781 C-4.13485456 33.64319003 -4.99368961 27.19351673 -5.265625 20.50390625 C-5.9875 21.34953125 -6.709375 22.19515625 -7.453125 23.06640625 C-10.265625 25.50390625 -10.265625 25.50390625 -12.953125 25.44140625 C-15.265625 24.50390625 -15.265625 24.50390625 -17.265625 22.50390625 C-17.6484375 20.18359375 -17.6484375 20.18359375 -17.265625 17.50390625 C-15.5078125 15.07421875 -15.5078125 15.07421875 -13.140625 12.62890625 C-10.27593761 9.62951569 -7.55857145 6.65411477 -5.015625 3.37890625 C-2.265625 0.50390625 -2.265625 0.50390625 0 0 Z " fill="#010101" transform="translate(139.265625,369.49609375)"/>
<path d="M0 0 C0.99515625 0.83144531 1.9903125 1.66289062 3.015625 2.51953125 C23.16453757 19.90708149 41.19106601 48.03903829 43.23828125 75.15625 C43.24797321 77.45647492 43.19406291 79.70897948 43 82 C43.66 82 44.32 82 45 82 C45.4021875 81.1028125 45.4021875 81.1028125 45.8125 80.1875 C47.04111253 77.92426639 47.89031346 76.48459423 50 75 C53.34192692 75.24453124 54.60543557 75.60543557 57 78 C57.0731571 84.17263051 53.43374784 87.53214805 49.5 91.8125 C48.89285156 92.49248047 48.28570312 93.17246094 47.66015625 93.87304688 C42.20800964 99.96269392 42.20800964 99.96269392 39.84375 100.38671875 C35.7654874 99.83211985 33.45019218 97.47862495 30.5 94.8125 C29.94441406 94.32974609 29.38882813 93.84699219 28.81640625 93.34960938 C27.18832726 91.92264603 25.59015175 90.46902593 24 89 C23.03835938 88.11183594 22.07671875 87.22367187 21.0859375 86.30859375 C19 84 19 84 19.125 81.25 C20 79 20 79 21 78 C24.00051129 77.58132401 26.12524693 77.435261 28.73046875 79.1171875 C30.20282466 80.35522549 31.60698559 81.67331961 33 83 C30.8725196 60.18460677 21.50099621 39.61583113 7 22 C6.08347656 20.83791016 6.08347656 20.83791016 5.1484375 19.65234375 C-11.71297187 -0.68897352 -39.1324183 -13.56274042 -65 -17 C-69.64990643 -17.26938143 -74.28092124 -17.28028669 -78.9375 -17.25 C-80.12279297 -17.25773437 -81.30808594 -17.26546875 -82.52929688 -17.2734375 C-93.40191595 -17.24958096 -103.58706601 -15.861201 -113.875 -12.3125 C-114.64038086 -12.05049805 -115.40576172 -11.78849609 -116.19433594 -11.51855469 C-143.72074748 -1.80807132 -166.84753513 17.82735598 -180.05761719 43.96630859 C-182.56491811 49.37714193 -184.50439909 55.02329456 -186.45703125 60.65234375 C-187.81627104 64.52912089 -189.20366634 68.30138271 -191 72 C-193.5 73.0625 -193.5 73.0625 -196 73 C-196.99 72.34 -197.98 71.68 -199 71 C-199.6110258 65.4235117 -198.34617825 60.82582426 -196.5625 55.625 C-196.29735596 54.84624512 -196.03221191 54.06749023 -195.7590332 53.26513672 C-185.22618598 23.6297385 -162.57691793 -1.97768639 -134.36621094 -15.93188477 C-126.48065204 -19.65286998 -118.37836315 -22.57958398 -110 -25 C-108.40478516 -25.48146484 -108.40478516 -25.48146484 -106.77734375 -25.97265625 C-69.95781408 -35.23136839 -28.77568921 -24.04598338 0 0 Z " fill="#060606" transform="translate(333,290)"/>
<path d="M0 0 C0.94875 0.268125 1.8975 0.53625 2.875 0.8125 C4.05040405 3.1633081 4.01386589 4.59365425 4.03613281 7.21459961 C4.04574036 8.12572006 4.0553479 9.03684052 4.06524658 9.97557068 C4.0716214 11.45526085 4.0716214 11.45526085 4.078125 12.96484375 C4.08382507 13.9759169 4.08952515 14.98699005 4.09539795 16.02870178 C4.10485416 18.16975861 4.11138439 20.31083004 4.11523438 22.4519043 C4.12495016 25.73316695 4.15597212 29.01380606 4.1875 32.29492188 C4.19402886 34.3723921 4.19927979 36.44986682 4.203125 38.52734375 C4.2154718 39.51177963 4.2278186 40.49621552 4.24053955 41.51048279 C4.23753845 42.4247554 4.23453735 43.33902802 4.23144531 44.28100586 C4.23509094 45.08549667 4.23873657 45.88998749 4.24249268 46.71885681 C3.76629355 49.43181171 3.05937123 50.15137407 0.875 51.8125 C-1.67423344 52.18854749 -1.67423344 52.18854749 -4.79566956 52.19002342 C-6.57838587 52.20175829 -6.57838587 52.20175829 -8.39711666 52.21373022 C-10.36532297 52.20369197 -10.36532297 52.20369197 -12.37329102 52.19345093 C-13.77617794 52.19690563 -15.17906215 52.20166893 -16.58194065 52.20763266 C-20.44597927 52.22019825 -24.30979664 52.2139472 -28.17383623 52.20467401 C-32.33749449 52.1979065 -36.5011138 52.20835329 -40.6647644 52.21661377 C-48.82490728 52.22997794 -56.98496754 52.22706145 -65.14511371 52.21837585 C-71.77498222 52.21161024 -78.40482752 52.2106777 -85.03469849 52.2139473 C-85.97704867 52.214407 -86.91939885 52.21486669 -87.8903051 52.21534032 C-89.80446331 52.21629947 -91.71862152 52.2172721 -93.63277972 52.2182581 C-111.59650735 52.22681985 -129.5601891 52.21696555 -147.52390921 52.200857 C-162.94923068 52.18745311 -178.37448444 52.18978098 -193.79980469 52.20361328 C-211.69772806 52.21965524 -229.5956112 52.22599581 -247.49354076 52.21677649 C-249.40079434 52.21582081 -251.30804792 52.2148777 -253.21530151 52.2139473 C-254.15379191 52.21348447 -255.0922823 52.21302164 -256.05921179 52.21254479 C-262.68378161 52.20995074 -269.30832597 52.21433481 -275.93289185 52.22138596 C-284.00221528 52.2297858 -292.07145112 52.22755285 -300.14076447 52.21154372 C-304.26059813 52.2036405 -308.38028557 52.20060412 -312.50011826 52.21049118 C-316.26771931 52.21939642 -320.0350379 52.21457475 -323.80261314 52.19855852 C-325.8193701 52.19359213 -327.83614649 52.20344445 -329.85288334 52.21373022 C-331.04136088 52.20590697 -332.22983843 52.19808373 -333.45433044 52.19002342 C-334.48440436 52.18953637 -335.51447828 52.18904931 -336.57576656 52.18854749 C-339.125 51.8125 -339.125 51.8125 -340.9598856 50.44906104 C-342.60085083 48.14410303 -342.47901277 46.57379961 -342.125 43.8125 C-340.125 41.8125 -340.125 41.8125 -337.73498523 41.56410301 C-336.21420531 41.56524217 -336.21420531 41.56524217 -334.66270256 41.56640434 C-333.49526634 41.56242225 -332.32783012 41.55844015 -331.12501705 41.55433738 C-329.18439048 41.56307591 -329.18439048 41.56307591 -327.20455933 41.57199097 C-325.82514909 41.57111953 -324.44573917 41.56936971 -323.06633103 41.56681263 C-319.26268206 41.56232282 -315.4591449 41.57036507 -311.65551019 41.58036876 C-307.55871083 41.58897755 -303.46191816 41.58608493 -299.3651123 41.58456421 C-292.26276013 41.58351372 -285.16044461 41.58980737 -278.05810165 41.60103989 C-267.78921552 41.61726983 -257.52034717 41.62250032 -247.2514496 41.62501587 C-230.59226494 41.62939692 -213.93309982 41.64271712 -197.27392578 41.66162109 C-181.08772886 41.6799693 -164.90153725 41.69413098 -148.71533203 41.70263672 C-147.71820096 41.70316217 -146.72106988 41.70368761 -145.69372271 41.70422898 C-140.69158421 41.70683899 -135.68944568 41.70936642 -130.68730712 41.71185279 C-89.16652448 41.73259805 -47.64576336 41.76783471 -6.125 41.8125 C-6.14071045 40.64678467 -6.1564209 39.48106934 -6.17260742 38.2800293 C-6.22687534 33.95832214 -6.26133859 29.63664515 -6.28979492 25.31469727 C-6.30488873 23.44355201 -6.32536589 21.57244217 -6.35131836 19.70141602 C-6.38767593 17.01309474 -6.40472015 14.32524087 -6.41796875 11.63671875 C-6.43345261 10.79912521 -6.44893646 9.96153168 -6.46488953 9.09855652 C-6.46658292 3.26505737 -6.46658292 3.26505737 -4.79902649 1.05574036 C-3.125 -0.1875 -3.125 -0.1875 0 0 Z " fill="#C1E2FC" transform="translate(438.125,54.1875)"/>
<path d="M0 0 C2.26257658 3.39386488 2.25255332 4.55981738 2.26069641 8.53921509 C2.26778122 9.6914859 2.27486603 10.84375671 2.28216553 12.03094482 C2.27968811 13.29642151 2.27721069 14.56189819 2.2746582 15.86572266 C2.27900528 17.211154 2.28418842 18.55658287 2.29014587 19.90200806 C2.30355413 23.55937068 2.30411206 27.21663006 2.30158257 30.87401247 C2.30051314 33.93027687 2.30539602 36.98652036 2.310188 40.04278028 C2.32129154 47.25916757 2.32171719 54.47550283 2.31567383 61.69189453 C2.30964549 69.12348324 2.32191397 76.55488208 2.3432439 83.98643839 C2.36089942 90.37386008 2.36685466 96.76122157 2.36360615 103.14866674 C2.36179792 106.96019291 2.36438243 110.77158394 2.37832069 114.58308792 C2.39095726 118.17332849 2.38890038 121.76327541 2.37590981 125.35351181 C2.37244049 127.28764369 2.38368173 129.22178477 2.39547729 131.15588379 C2.34019892 140.37003079 1.38055503 148.55709777 -5.15818787 155.50901794 C-11.77816546 160.86801608 -19.73613014 161.59352611 -27.93359375 161.49609375 C-28.93334732 161.49754898 -29.93310089 161.49900421 -30.96315002 161.50050354 C-33.0564366 161.49885574 -35.14973672 161.48742147 -37.24291992 161.46655273 C-40.45347937 161.43735468 -43.66240899 161.44601556 -46.87304688 161.45898438 C-48.91407054 161.45275323 -50.95508901 161.4443672 -52.99609375 161.43359375 C-53.9554332 161.43652939 -54.91477264 161.43946503 -55.90318298 161.44248962 C-56.79163406 161.42980545 -57.68008514 161.41712128 -58.59545898 161.40405273 C-59.76600075 161.39594826 -59.76600075 161.39594826 -60.96018982 161.38768005 C-63.53134152 160.89901486 -64.42524097 160.05778088 -66 158 C-66.375 155.5 -66.375 155.5 -66 153 C-64.41439422 150.91824289 -63.52690407 150.09619413 -60.92654419 149.62145996 C-59.73338089 149.6183783 -59.73338089 149.6183783 -58.51611328 149.61523438 C-57.61152374 149.60512329 -56.7069342 149.59501221 -55.77493286 149.58459473 C-54.31239578 149.58912659 -54.31239578 149.58912659 -52.8203125 149.59375 C-51.31294022 149.57749573 -51.31294022 149.57749573 -49.77511597 149.56091309 C-46.55834535 149.52659088 -43.34192981 149.51104814 -40.125 149.5 C-35.89809554 149.48543539 -31.67198467 149.45174037 -27.4453125 149.40625 C-25.98884811 149.41078186 -25.98884811 149.41078186 -24.50296021 149.41540527 C-17.7325621 149.37317475 -17.7325621 149.37317475 -12 146 C-9.92385915 142.71983026 -9.74788729 140.10513381 -9.74171448 136.26219177 C-9.73488647 135.09146118 -9.72805847 133.92073059 -9.72102356 132.71452332 C-9.72357651 131.4338649 -9.72612946 130.15320648 -9.72875977 128.83374023 C-9.72437169 127.46857391 -9.71906923 126.10341026 -9.71292114 124.73825073 C-9.70142827 121.80099793 -9.69596227 118.8638172 -9.69503975 115.92654228 C-9.69309901 111.28364879 -9.67504685 106.6409045 -9.65428162 101.99806213 C-9.60509847 90.46806938 -9.57418367 78.9380362 -9.55297852 67.40795898 C-9.53646869 58.44362298 -9.5136999 49.47941503 -9.46995777 40.51516491 C-9.44814594 35.89794428 -9.44012676 31.28096671 -9.44235051 26.66369808 C-9.4406867 23.79437656 -9.42665693 20.92521455 -9.40913773 18.05595016 C-9.40084716 16.08729946 -9.40747997 14.11860375 -9.414505 12.14994812 C-9.40485718 10.98203735 -9.39520935 9.81412659 -9.38526917 8.61082458 C-9.38225217 7.08521487 -9.38225217 7.08521487 -9.37917423 5.52878475 C-9 3 -9 3 -7.66732693 1.17276096 C-5.08296818 -0.64501994 -3.05889403 -0.39049711 0 0 Z " fill="#040404" transform="translate(458,262)"/>
<path d="M0 0 C4.63991062 2.64059954 9.7231169 7.07488985 11.38183594 12.29003906 C12.27657978 16.88143435 12.08307165 21.5875677 12.125 26.25 C12.15400391 27.30960938 12.18300781 28.36921875 12.21289062 29.4609375 C12.27511533 37.17680153 11.16417409 42.61595709 6.06640625 48.5234375 C0.55951944 52.92385975 -3.68639163 55.0186898 -10.85546875 54.8046875 C-17.97938067 53.87392514 -22.30833878 49.78503541 -26.83984375 44.5 C-30.46616154 39.11833418 -29.4871305 31.9714094 -29.5625 25.75 C-29.61857422 24.0175 -29.61857422 24.0175 -29.67578125 22.25 C-29.75009278 15.0170114 -29.14042802 9.97813316 -24.1875 4.5 C-17.115624 -1.87063115 -8.83256577 -3.77809172 0 0 Z " fill="#060606" transform="translate(249.1875,173.5)"/>
<path d="M0 0 C9.50369141 3.59028342 15.12639024 15.25448096 19.13671875 23.92578125 C26.12222603 41.86996538 25.44073814 61.38171353 18.625 79.25 C15.8572809 85.50237748 12.05727064 90.7353974 7.8125 96.0625 C7.33039063 96.70960938 6.84828125 97.35671875 6.3515625 98.0234375 C-3.51824246 110.63168546 -20.59122151 118.77166855 -36.1875 121.0625 C-41.86595709 121.52903095 -47.50419924 121.34782965 -53.1875 121.0625 C-54.5178125 121.01416016 -54.5178125 121.01416016 -55.875 120.96484375 C-62.36950912 120.51254758 -70.50550135 118.74449865 -75.1875 114.0625 C-75.5 111.0625 -75.5 111.0625 -75.1875 108.0625 C-72.1875 106.0625 -72.1875 106.0625 -69.85546875 106.33984375 C-68.06447563 106.82495902 -66.27541225 107.31725099 -64.48828125 107.81640625 C-48.02095281 112.27227159 -32.79498075 111.04385208 -17.5 103.375 C-2.92883682 94.93348189 7.46871432 81.45329087 11.953125 65.22265625 C15.50559056 50.00532423 12.63579141 34.07631563 4.9375 20.625 C2.29875732 16.53253746 -0.74255478 12.81442315 -3.96484375 9.16796875 C-5.1875 7.0625 -5.1875 7.0625 -5.00390625 4.42578125 C-3.97439733 1.44562384 -3.28727992 0.09392228 0 0 Z " fill="#F7E4AC" transform="translate(301.1875,334.9375)"/>
<path d="M0 0 C2.875 0.75 2.875 0.75 3.875 1.75 C3.94726502 3.60287502 3.9588122 5.45833878 3.9375 7.3125 C3.92847656 8.32441406 3.91945313 9.33632813 3.91015625 10.37890625 C3.89855469 11.16136719 3.88695312 11.94382812 3.875 12.75 C4.720625 12.95625 5.56625 13.1625 6.4375 13.375 C11.83067604 15.53227042 15.47849088 18.76785802 18.8125 23.5 C20.23505907 27.85135716 20.70680445 32.21585026 19.875 36.75 C16.875 38.75 16.875 38.75 14.3125 38.5625 C11.875 37.75 11.875 37.75 9.875 34.75 C9.58572701 33.44559309 9.33767045 32.13156313 9.125 30.8125 C8.31602261 27.38066624 7.90668414 26.77880377 5.125 24.25 C1.54795999 22.59905846 -0.24941463 22.10406911 -4.125 22.75 C-8.34981746 25.0258823 -8.34981746 25.0258823 -11.125 28.75 C-11.68012815 33.38213493 -11.7614242 36.73172127 -9.25 40.75 C-6.38283112 43.44851189 -4.80769199 43.83032366 -1 44.0625 C7.34663858 44.97206959 12.1890464 48.51222819 17.52734375 54.84765625 C21.31425292 60.19323529 20.60509518 67.53041559 19.875 73.75 C18.38369216 77.02787462 16.48424819 79.29532813 13.875 81.75 C13.029375 82.554375 12.18375 83.35875 11.3125 84.1875 C8.74249097 85.83494168 6.84753529 86.24056384 3.875 86.75 C3.89820313 87.52085937 3.92140625 88.29171875 3.9453125 89.0859375 C3.96335937 90.08882813 3.98140625 91.09171875 4 92.125 C4.02320313 93.12273437 4.04640625 94.12046875 4.0703125 95.1484375 C3.875 97.75 3.875 97.75 1.875 99.75 C-0.90895062 100.10691675 -2.46375035 100.22948435 -4.7734375 98.5546875 C-6.59362859 96.12425893 -6.42939294 94.56275214 -6.3125 91.5625 C-6.28542969 90.66144531 -6.25835937 89.76039063 -6.23046875 88.83203125 C-6.19566406 88.14496094 -6.16085938 87.45789063 -6.125 86.75 C-6.86492187 86.64945312 -7.60484375 86.54890625 -8.3671875 86.4453125 C-13.00597685 85.27575938 -15.93830708 82.20569947 -19.125 78.75 C-22.13238584 73.58105558 -22.61882525 69.57713793 -22.125 63.75 C-20.125 61.75 -20.125 61.75 -17.6875 61.4375 C-15.125 61.75 -15.125 61.75 -13.4375 62.75 C-12.05721203 64.85329596 -11.74485396 66.24954974 -11.25 68.6875 C-10.54844168 71.78462333 -10.12092583 72.7546562 -7.9375 75.25 C-4.34582686 77.16555901 -2.14864196 77.25295525 1.875 76.75 C5.4136994 75.09860695 6.68570153 74.03394771 8.875 70.75 C9.42031842 67.68473649 9.41825893 64.81591671 8.875 61.75 C6.69340855 58.99430553 5.00322506 57.31411253 1.875 55.75 C0.50130326 55.64740024 -0.87411308 55.56711644 -2.25 55.5 C-8.8345706 54.81190179 -13.65675898 51.6647201 -18 46.75 C-22.50750063 40.3864697 -23.06965214 34.39671048 -22.125 26.75 C-19.87748535 20.46741253 -14.89067511 15.9343896 -9.125 12.75 C-8.135 12.75 -7.145 12.75 -6.125 12.75 C-6.17720703 11.71939453 -6.17720703 11.71939453 -6.23046875 10.66796875 C-6.27107422 9.31638672 -6.27107422 9.31638672 -6.3125 7.9375 C-6.34730469 7.04417969 -6.38210937 6.15085937 -6.41796875 5.23046875 C-6.125 2.75 -6.125 2.75 -4.80859375 0.91015625 C-3.125 -0.25 -3.125 -0.25 0 0 Z " fill="#050400" transform="translate(256.125,336.25)"/>
<path d="M0 0 C3.80734683 1.23863733 4.70412548 2.52986093 6.84667969 5.8671875 C7.49507812 6.85203125 8.14347656 7.836875 8.81152344 8.8515625 C9.46765625 9.88796875 10.12378906 10.924375 10.79980469 11.9921875 C12.12433668 14.03618696 13.45228684 16.07797681 14.78417969 18.1171875 C15.36393555 19.02726562 15.94369141 19.93734375 16.54101562 20.875 C17.87853382 23.10190717 17.87853382 23.10190717 20.04980469 23.9921875 C20.35917969 23.02345703 20.35917969 23.02345703 20.67480469 22.03515625 C22.61365397 17.7443506 25.30747896 14.11742575 28.04980469 10.3046875 C28.86964844 9.14743164 28.86964844 9.14743164 29.70605469 7.96679688 C33.7509825 2.29100969 33.7509825 2.29100969 36.04980469 -0.0078125 C39.11230469 0.2421875 39.11230469 0.2421875 42.04980469 0.9921875 C43.26978647 3.43215107 43.18964786 5.03399898 43.2109375 7.76147461 C43.22054504 8.75267807 43.23015259 9.74388153 43.24005127 10.76512146 C43.24430115 11.83907669 43.24855103 12.91303192 43.25292969 14.01953125 C43.25862976 15.11938858 43.26432983 16.21924591 43.27020264 17.35243225 C43.27966025 19.68180374 43.28618963 22.01118866 43.29003906 24.34057617 C43.29975529 27.91153148 43.33077644 31.48191399 43.36230469 35.05273438 C43.36883345 37.31249657 43.37408442 39.57226289 43.37792969 41.83203125 C43.39027649 42.90396225 43.40262329 43.97589325 43.41534424 45.08030701 C43.41234314 46.07466263 43.40934204 47.06901825 43.40625 48.09350586 C43.41171844 49.40683144 43.41171844 49.40683144 43.41729736 50.74668884 C42.97151395 53.47056913 42.27026932 54.38960118 40.04980469 55.9921875 C36.70787776 55.74765626 35.44436911 55.38675193 33.04980469 52.9921875 C32.73095703 50.10302734 32.73095703 50.10302734 32.63574219 46.453125 C32.57773438 44.50019531 32.57773438 44.50019531 32.51855469 42.5078125 C32.48709706 41.12760888 32.45584978 39.74740046 32.42480469 38.3671875 C32.38662535 36.97914209 32.34757364 35.59112039 32.30761719 34.203125 C32.21307526 30.79961565 32.12752572 27.39611585 32.04980469 23.9921875 C31.3859375 24.99121094 30.72207031 25.99023438 30.03808594 27.01953125 C29.1469249 28.32344055 28.25495528 29.62679749 27.36230469 30.9296875 C26.92724609 31.58904297 26.4921875 32.24839844 26.04394531 32.92773438 C22.71926033 37.73005712 22.71926033 37.73005712 19.36621094 39.04296875 C17.04980469 38.9921875 17.04980469 38.9921875 14.67480469 37.2421875 C12.22065404 34.49719617 10.34397262 31.39838389 8.38574219 28.2890625 C7.44674072 26.80164551 7.44674072 26.80164551 6.48876953 25.28417969 C6.01391113 24.52782227 5.53905273 23.77146484 5.04980469 22.9921875 C5.03522217 23.88526611 5.02063965 24.77834473 5.00561523 25.69848633 C4.94453391 29.01436028 4.87037991 32.32940649 4.78735352 35.64477539 C4.75411468 37.07923378 4.72607934 38.51382263 4.70336914 39.94848633 C4.66980198 42.01179557 4.61749055 44.07391053 4.56152344 46.13671875 C4.53533936 47.37784424 4.50915527 48.61896973 4.48217773 49.89770508 C4.04980469 52.9921875 4.04980469 52.9921875 2.67797852 54.93237305 C1.04980469 55.9921875 1.04980469 55.9921875 -1.51269531 55.8046875 C-3.95019531 54.9921875 -3.95019531 54.9921875 -5.95019531 52.9921875 C-6.21089172 50.87367249 -6.21089172 50.87367249 -6.22485352 48.22290039 C-6.23438553 47.23169693 -6.24391754 46.24049347 -6.2537384 45.21925354 C-6.252827 44.14529831 -6.25191559 43.07134308 -6.25097656 41.96484375 C-6.25526169 40.86498642 -6.25954681 39.76512909 -6.26396179 38.63194275 C-6.26971277 36.30256845 -6.27019973 33.9731762 -6.26586914 31.64379883 C-6.2627113 28.07276865 -6.28615229 24.50256814 -6.31152344 20.93164062 C-6.31379649 18.67187605 -6.3144999 16.41210924 -6.31347656 14.15234375 C-6.32268631 13.08041275 -6.33189606 12.00848175 -6.34138489 10.90406799 C-6.3351561 9.90971237 -6.32892731 8.91535675 -6.32250977 7.89086914 C-6.32313919 7.01531876 -6.32376862 6.13976837 -6.32441711 5.23768616 C-5.65314219 1.20973555 -3.99992725 -0.01059233 0 0 Z " fill="#050505" transform="translate(167.9501953125,172.0078125)"/>
<path d="M0 0 C3.4389097 1.34316078 4.56754605 3.06083501 6.6953125 6.06640625 C7.06930176 6.5879126 7.44329102 7.10941895 7.82861328 7.64672852 C9.09256379 9.42126957 10.33216929 11.21127417 11.5703125 13.00390625 C12.54421094 14.39717728 13.51817131 15.79040503 14.4921875 17.18359375 C18.33378555 22.71022489 22.13446566 28.21313223 25.5703125 34.00390625 C25.59013184 33.04500488 25.60995117 32.08610352 25.63037109 31.09814453 C25.70635395 27.54579072 25.7950818 23.99385049 25.88769531 20.44189453 C25.92601551 18.90356604 25.96086306 17.365147 25.9921875 15.82666016 C26.03777309 13.61718349 26.0957759 11.40833177 26.15625 9.19921875 C26.16780121 8.50958038 26.17935242 7.81994202 26.19125366 7.10940552 C26.34256909 2.23164966 26.34256909 2.23164966 28.5703125 0.00390625 C31.36417727 -0.35428154 32.90942043 -0.4894049 35.20620728 1.22499084 C36.97891207 3.53675669 36.9503808 4.88300568 36.95849609 7.77905273 C36.96795258 8.74693222 36.97740906 9.71481171 36.9871521 10.71202087 C36.98107941 11.75580399 36.97500671 12.7995871 36.96875 13.875 C36.97162018 14.94887466 36.97449036 16.02274933 36.97744751 17.12916565 C36.97948992 19.40130134 36.97394779 21.67345454 36.96142578 23.94555664 C36.94539093 27.42439127 36.96126112 30.90206125 36.98046875 34.38085938 C36.97848604 36.58724215 36.9746418 38.7936242 36.96875 41 C36.97482269 42.04175888 36.98089539 43.08351776 36.9871521 44.15684509 C36.97769562 45.12787674 36.96823914 46.09890839 36.95849609 47.09936523 C36.95610931 47.95191391 36.95372253 48.80446259 36.95126343 49.68284607 C36.49162356 52.48334271 35.41423396 53.88793612 33.5703125 56.00390625 C30.52056228 55.97683746 28.34872256 55.76929071 26.11132812 53.56933594 C24.5906828 51.55559432 23.19443977 49.49540188 21.8203125 47.37890625 C21.05412598 46.24594116 21.05412598 46.24594116 20.27246094 45.09008789 C18.68790463 42.7390086 17.1287303 40.37236848 15.5703125 38.00390625 C14.57202577 36.51447525 13.57208494 35.02615129 12.5703125 33.5390625 C10.21783877 30.03973743 7.88789521 26.52642688 5.5703125 23.00390625 C5.55572998 23.89698486 5.54114746 24.79006348 5.52612305 25.71020508 C5.46504173 29.02607903 5.39088772 32.34112524 5.30786133 35.65649414 C5.27462249 37.09095253 5.24658715 38.52554138 5.22387695 39.96020508 C5.19030979 42.02351432 5.13799837 44.08562928 5.08203125 46.1484375 C5.05584717 47.38956299 5.02966309 48.63068848 5.00268555 49.90942383 C4.5703125 53.00390625 4.5703125 53.00390625 3.23364258 54.9440918 C1.5703125 56.00390625 1.5703125 56.00390625 -1.5546875 55.81640625 C-2.5034375 55.54828125 -3.4521875 55.28015625 -4.4296875 55.00390625 C-5.64966929 52.56394268 -5.56953068 50.96209477 -5.59082031 48.23461914 C-5.60042786 47.24341568 -5.6100354 46.25221222 -5.61993408 45.23097229 C-5.62418396 44.15701706 -5.62843384 43.08306183 -5.6328125 41.9765625 C-5.63851257 40.87670517 -5.64421265 39.77684784 -5.65008545 38.6436615 C-5.65954306 36.31429001 -5.66607244 33.98490509 -5.66992188 31.65551758 C-5.6796381 28.08456227 -5.71065925 24.51417976 -5.7421875 20.94335938 C-5.74871626 18.68359718 -5.75396723 16.42383086 -5.7578125 14.1640625 C-5.7701593 13.0921315 -5.7825061 12.0202005 -5.79522705 10.91578674 C-5.79222595 9.92143112 -5.78922485 8.9270755 -5.78613281 7.90258789 C-5.78977844 7.02703751 -5.79342407 6.15148712 -5.79718018 5.24940491 C-5.20289815 1.61815022 -3.69973905 0.00594813 0 0 Z " fill="#070707" transform="translate(275.4296875,171.99609375)"/>
<path d="M0 0 C3.0625 0.375 3.0625 0.375 4.63671875 2.0625 C6.18918731 4.5804764 7.04580344 6.93287016 7.9375 9.75 C10.48979993 16.91167742 13.47890434 20.75123324 20.3125 24.1875 C21.18390625 24.58582031 22.0553125 24.98414063 22.953125 25.39453125 C25.0625 26.375 25.0625 26.375 26.0625 27.375 C26.52794832 31.79675899 26.52794832 31.79675899 24.7890625 33.95703125 C22.91264768 35.49806876 21.50615305 36.02438327 19.1875 36.6875 C14.88252357 38.25366144 12.2903746 40.3557938 10.0625 44.375 C8.65664381 47.73434242 7.3801802 51.1102187 6.17578125 54.546875 C5.0625 57.375 5.0625 57.375 3.0625 59.375 C0.125 59.8125 0.125 59.8125 -2.9375 59.375 C-5.39447502 56.55402868 -6.23886868 53.44904553 -7.3125 49.9375 C-9.10267915 44.45791609 -11.3777185 40.82850369 -16.4140625 37.96875 C-18.1706265 37.09806121 -19.94248322 36.25731639 -21.73046875 35.453125 C-23.9375 34.375 -23.9375 34.375 -25.9375 32.375 C-26.25 29.9375 -26.25 29.9375 -25.9375 27.375 C-23.28569357 24.08942851 -20.02627136 23.03406292 -16.19140625 21.53515625 C-10.70659326 18.71195095 -9.16334021 14.96969329 -7.3125 9.25 C-4.47994173 0.57190745 -4.47994173 0.57190745 0 0 Z " fill="#050504" transform="translate(113.9375,264.625)"/>
<path d="M0 0 C1.010625 0.144375 2.02125 0.28875 3.0625 0.4375 C5.44168729 3.73766302 6.71434267 7.08401319 7.9375 10.9375 C10.46046044 17.96036749 13.71931281 20.86273039 20.3125 24.1875 C21.18390625 24.59484375 22.0553125 25.0021875 22.953125 25.421875 C25.0625 26.4375 25.0625 26.4375 26.0625 27.4375 C26.375 29.8125 26.375 29.8125 26.0625 32.4375 C22.32015755 36.33577339 16.13537855 38.74654048 11.0625 40.4375 C8.84681115 44.97477459 7.58035505 49.9844514 6.0625 54.79296875 C5.0625 57.4375 5.0625 57.4375 3.0625 59.4375 C0.125 59.875 0.125 59.875 -2.9375 59.4375 C-5.32723131 56.13091633 -6.55883382 52.81014987 -7.75 48.9375 C-10.23528531 41.95056581 -13.62187415 39.53281293 -20.1875 36.25 C-20.85265625 35.94707031 -21.5178125 35.64414062 -22.203125 35.33203125 C-23.9375 34.4375 -23.9375 34.4375 -25.9375 32.4375 C-26.25 30 -26.25 30 -25.9375 27.4375 C-23.28707322 24.14530321 -20.04650408 23.14342031 -16.19140625 21.6953125 C-11.02098639 18.80991355 -9.21036103 14.11911007 -7.3125 8.75 C-4.43588435 0.66066363 -4.43588435 0.66066363 0 0 Z " fill="#040403" transform="translate(397.9375,264.5625)"/>
<path d="M0 0 C1.423125 0.4021875 1.423125 0.4021875 2.875 0.8125 C4.1013757 3.26525141 3.98915314 4.8630781 3.97265625 7.6015625 C3.96943359 8.54257813 3.96621094 9.48359375 3.96289062 10.453125 C3.95451172 11.43796875 3.94613281 12.4228125 3.9375 13.4375 C3.93298828 14.43007812 3.92847656 15.42265625 3.92382812 16.4453125 C3.91202161 18.90106722 3.89408582 21.35679106 3.875 23.8125 C10.145 23.8125 16.415 23.8125 22.875 23.8125 C22.84019531 22.33136719 22.80539062 20.85023438 22.76953125 19.32421875 C22.74139509 17.38282382 22.71409475 15.44141665 22.6875 13.5 C22.66236328 12.52353516 22.63722656 11.54707031 22.61132812 10.54101562 C22.60166016 9.60322266 22.59199219 8.66542969 22.58203125 7.69921875 C22.5663208 6.83514404 22.55061035 5.97106934 22.53442383 5.08081055 C22.875 2.8125 22.875 2.8125 24.2331543 0.99536133 C25.875 -0.1875 25.875 -0.1875 28.4375 0 C30.875 0.8125 30.875 0.8125 32.875 2.8125 C33.13569641 4.93101501 33.13569641 4.93101501 33.1496582 7.58178711 C33.16395622 9.0685923 33.16395622 9.0685923 33.17854309 10.58543396 C33.17763168 11.65938919 33.17672028 12.73334442 33.17578125 13.83984375 C33.18006638 14.93970108 33.1843515 16.03955841 33.18876648 17.17274475 C33.19451746 19.50211905 33.19500442 21.8315113 33.19067383 24.16088867 C33.18751599 27.73191885 33.21095698 31.30211936 33.23632812 34.87304688 C33.23860118 37.13281145 33.23930459 39.39257826 33.23828125 41.65234375 C33.247491 42.72427475 33.25670074 43.79620575 33.26618958 44.90061951 C33.25996078 45.89497513 33.25373199 46.88933075 33.24731445 47.91381836 C33.24794388 48.78936874 33.2485733 49.66491913 33.2492218 50.56700134 C32.79584233 53.2874815 32.0935329 54.21033769 29.875 55.8125 C26.53307308 55.56796876 25.26956443 55.20706443 22.875 52.8125 C22.64794922 50.84130859 22.64794922 50.84130859 22.6796875 48.4609375 C22.68468262 47.69442871 22.68967773 46.92791992 22.69482422 46.13818359 C22.72213623 44.67759521 22.72213623 44.67759521 22.75 43.1875 C22.811875 38.546875 22.811875 38.546875 22.875 33.8125 C16.605 33.8125 10.335 33.8125 3.875 33.8125 C3.99346245 39.93070164 3.99346245 39.93070164 4.14526367 46.0480957 C4.15275635 46.81210693 4.16024902 47.57611816 4.16796875 48.36328125 C4.19153442 49.53370972 4.19153442 49.53370972 4.21557617 50.7277832 C3.78639029 53.35489304 2.99769771 54.24785873 0.875 55.8125 C-2.46692692 55.56796876 -3.73043557 55.20706443 -6.125 52.8125 C-6.38569641 50.69398499 -6.38569641 50.69398499 -6.3996582 48.04321289 C-6.40919022 47.05200943 -6.41872223 46.06080597 -6.42854309 45.03956604 C-6.42763168 43.96561081 -6.42672028 42.89165558 -6.42578125 41.78515625 C-6.43006638 40.68529892 -6.4343515 39.58544159 -6.43876648 38.45225525 C-6.44451746 36.12288095 -6.44500442 33.7934887 -6.44067383 31.46411133 C-6.43751599 27.89308115 -6.46095698 24.32288064 -6.48632812 20.75195312 C-6.48860118 18.49218855 -6.48930459 16.23242174 -6.48828125 13.97265625 C-6.497491 12.90072525 -6.50670074 11.82879425 -6.51618958 10.72438049 C-6.50996078 9.73002487 -6.50373199 8.73566925 -6.49731445 7.71118164 C-6.49794388 6.83563126 -6.4985733 5.96008087 -6.4992218 5.05799866 C-6.125 2.8125 -6.125 2.8125 -4.79704285 0.99461365 C-3.125 -0.1875 -3.125 -0.1875 0 0 Z " fill="#040404" transform="translate(376.125,172.1875)"/>
<path d="M0 0 C1 1 1 1 1.12025452 2.79066467 C1.1169236 3.95981667 1.1169236 3.95981667 1.11352539 5.15258789 C1.11344986 6.03342545 1.11337433 6.914263 1.11329651 7.8217926 C1.10813522 8.77907761 1.10297394 9.73636261 1.09765625 10.72265625 C1.0962413 11.69786728 1.09482635 12.67307831 1.09336853 13.67784119 C1.08775133 16.80609143 1.07519593 19.93427123 1.0625 23.0625 C1.05748722 25.17773334 1.05292393 27.29296781 1.04882812 29.40820312 C1.03777631 34.60549296 1.02102146 39.80274145 1 45 C1.69867188 44.97679687 2.39734375 44.95359375 3.1171875 44.9296875 C4.02726562 44.91164062 4.93734375 44.89359375 5.875 44.875 C7.23238281 44.84019531 7.23238281 44.84019531 8.6171875 44.8046875 C11 45 11 45 13 47 C13.3125 50 13.3125 50 13 53 C7.93113716 56.37924189 1.95118586 55.32728923 -4 55.3125 C-5.29679687 55.32861328 -6.59359375 55.34472656 -7.9296875 55.36132812 C-9.16976562 55.36197266 -10.40984375 55.36261719 -11.6875 55.36328125 C-13.39486328 55.36775269 -13.39486328 55.36775269 -15.13671875 55.37231445 C-18 55 -18 55 -19.90625 53.67260742 C-21 52 -21 52 -20.8125 48.875 C-20.544375 47.92625 -20.27625 46.9775 -20 46 C-18 45 -18 45 -9 45 C-9.33 35.1 -9.66 25.2 -10 15 C-11.32 15.99 -12.64 16.98 -14 18 C-17.37036311 17.75925978 -18.58798021 17.41201979 -21 15 C-21.04709138 11.9476225 -20.7951165 9.87715469 -18.69384766 7.55908203 C-16.96047493 6.11623596 -15.17557586 4.83303797 -13.3125 3.5625 C-12.69955078 3.10423828 -12.08660156 2.64597656 -11.45507812 2.17382812 C-7.37278384 -0.69633212 -5.00305825 -1.62768162 0 0 Z " fill="#060606" transform="translate(124,173)"/>
<path d="M0 0 C0.76772232 0.00091141 1.53544464 0.00182281 2.32643127 0.00276184 C3.11554398 -0.00152328 3.90465668 -0.00580841 4.71768188 -0.01022339 C6.38795512 -0.01597053 8.05825338 -0.01646412 9.72853088 -0.01213074 C12.28568724 -0.00897345 14.84168392 -0.03241442 17.3986969 -0.05778503 C19.02044023 -0.06005825 20.64218667 -0.06076142 22.26393127 -0.05973816 C23.02962936 -0.06894791 23.79532745 -0.07815765 24.58422852 -0.08764648 C29.85029536 -0.04171058 29.85029536 -0.04171058 32.37940979 1.66609192 C33.36158752 3.30354309 33.36158752 3.30354309 33.17408752 5.86604309 C32.36158752 8.30354309 32.36158752 8.30354309 30.36158752 10.30354309 C27.32252502 10.49885559 27.32252502 10.49885559 23.73658752 10.42854309 C22.5480719 10.41049622 21.35955627 10.39244934 20.13502502 10.37385559 C19.21979065 10.35065247 18.30455627 10.32744934 17.36158752 10.30354309 C17.37729797 11.5904303 17.39300842 12.8773175 17.40919495 14.20320129 C17.46344528 18.97218073 17.49791982 23.74113283 17.52638245 28.5103302 C17.54148024 30.575481 17.56196026 32.64059969 17.58790588 34.7056427 C17.62424547 37.67195048 17.64130382 40.6378348 17.65455627 43.60432434 C17.67004013 44.52941299 17.68552399 45.45450165 17.70147705 46.40762329 C17.70170364 47.26828903 17.70193024 48.12895477 17.7021637 49.01570129 C17.70882553 49.77292984 17.71548737 50.53015839 17.72235107 51.31033325 C17.26046138 53.86226257 16.42210139 54.76929911 14.36158752 56.30354309 C11.0196606 56.05901185 9.75615195 55.69810752 7.36158752 53.30354309 C7.12107849 51.43058777 7.12107849 51.43058777 7.13453674 49.12922668 C7.13468781 48.26848541 7.13483887 47.40774414 7.13499451 46.5209198 C7.14531708 45.59066986 7.15563965 44.66041992 7.16627502 43.70198059 C7.16910492 42.75038055 7.17193481 41.79878052 7.17485046 40.81834412 C7.18606763 37.77161717 7.2111749 34.72518156 7.23658752 31.67854309 C7.24661534 29.61604733 7.25574154 27.55354697 7.26393127 25.49104309 C7.28601198 20.42843042 7.32055223 15.36603619 7.36158752 10.30354309 C6.45795471 10.33834778 5.5543219 10.37315247 4.62330627 10.40901184 C3.44381409 10.43608215 2.2643219 10.46315247 1.04908752 10.49104309 C-0.70854919 10.54325012 -0.70854919 10.54325012 -2.50169373 10.59651184 C-5.63841248 10.30354309 -5.63841248 10.30354309 -7.56809998 8.95198059 C-8.63841248 7.30354309 -8.63841248 7.30354309 -8.45091248 4.74104309 C-6.86546179 -0.01530898 -4.64844937 0.06232701 0 0 Z " fill="#040404" transform="translate(328.63841247558594,171.6964569091797)"/>
<path d="M0 0 C3.34839272 1.16465834 4.07803661 2.01347019 5.875 5 C6.26268005 7.26963806 6.26268005 7.26963806 6.27905273 9.78100586 C6.29173691 10.72556137 6.30442108 11.67011688 6.31748962 12.64329529 C6.31308617 14.16371178 6.31308617 14.16371178 6.30859375 15.71484375 C6.3138356 16.76273575 6.31907745 17.81062775 6.32447815 18.89027405 C6.33089806 21.10514439 6.32956177 23.32004883 6.32104492 25.53491211 C6.31253973 28.92167985 6.34129057 32.30675846 6.37304688 35.69335938 C6.37465911 37.84635366 6.37408093 39.99935093 6.37109375 42.15234375 C6.38794472 43.66972389 6.38794472 43.66972389 6.40513611 45.21775818 C6.36148321 49.62777836 6.29697427 52.28061517 4.03149414 56.14282227 C1.875 58 1.875 58 -1.125 58.5625 C-4.98896143 57.83800723 -5.87405195 57.24512421 -8.125 54 C-8.74887807 50.27666442 -8.70902961 46.58064355 -8.69140625 42.8125 C-8.69760483 41.71784424 -8.70380341 40.62318848 -8.71018982 39.49536133 C-8.71729034 37.18213796 -8.71411001 34.8688635 -8.70141602 32.55566406 C-8.68754977 29.01271753 -8.72162155 25.47241094 -8.75976562 21.9296875 C-8.76071679 19.68229102 -8.75885814 17.43489123 -8.75390625 15.1875 C-8.76716446 14.12700439 -8.78042267 13.06650879 -8.79408264 11.97387695 C-8.70133382 4.66367532 -8.70133382 4.66367532 -5.78100586 1.30078125 C-3.125 0 -3.125 0 0 0 Z " fill="#797776" transform="translate(388.125,13)"/>
<path d="M0 0 C2.94774742 1.02530345 4.00588431 1.58063944 5.875 4 C6.26268005 6.23204041 6.26268005 6.23204041 6.27905273 8.86694336 C6.29173691 9.8548436 6.30442108 10.84274384 6.31748962 11.86058044 C6.31455399 12.92623734 6.31161835 13.99189423 6.30859375 15.08984375 C6.3138356 16.18591446 6.31907745 17.28198517 6.32447815 18.41127014 C6.33090481 20.7304703 6.32955307 23.04970303 6.32104492 25.36889648 C6.31254107 28.92034917 6.34127953 32.47019094 6.37304688 36.02148438 C6.37465907 38.27343702 6.37408101 40.52539251 6.37109375 42.77734375 C6.38794472 44.37279274 6.38794472 44.37279274 6.40513611 46.00047302 C6.33572278 53.33365733 6.33572278 53.33365733 4.03149414 56.66625977 C1.03375265 58.52029144 -0.66782351 58.64822059 -4.125 58 C-6.63838631 55.82847985 -7.9511599 54.03971928 -8.50515747 50.72631836 C-8.67205603 47.87279499 -8.70546482 45.0459143 -8.69140625 42.1875 C-8.69760483 41.14102295 -8.70380341 40.0945459 -8.71018982 39.01635742 C-8.71728254 36.80746388 -8.7141236 34.59851682 -8.70141602 32.38964844 C-8.68754668 29.01136921 -8.72163592 25.63585805 -8.75976562 22.2578125 C-8.76071681 20.10937432 -8.75885803 17.96093268 -8.75390625 15.8125 C-8.76716446 14.80405029 -8.78042267 13.79560059 -8.79408264 12.7565918 C-8.73122483 8.01970358 -8.66037102 5.72535218 -5.78100586 1.82421875 C-3.125 0 -3.125 0 0 0 Z " fill="#797776" transform="translate(126.125,13)"/>
<path d="M0 0 C2.23395363 1.60836207 2.91337493 2.50126228 3.38768005 5.23204041 C3.39308304 6.10155838 3.39848602 6.97107635 3.40405273 7.86694336 C3.41673691 8.8548436 3.42942108 9.84274384 3.44248962 10.86058044 C3.43955399 11.92623734 3.43661835 12.99189423 3.43359375 14.08984375 C3.4388356 15.18591446 3.44407745 16.28198517 3.44947815 17.41127014 C3.45590481 19.7304703 3.45455307 22.04970303 3.44604492 24.36889648 C3.43754107 27.92034917 3.46627953 31.47019094 3.49804688 35.02148438 C3.49965907 37.27343702 3.49908101 39.52539251 3.49609375 41.77734375 C3.51294472 43.37279274 3.51294472 43.37279274 3.53013611 45.00047302 C3.46075514 52.33023874 3.46075514 52.33023874 1.16040039 55.67407227 C-1.7730649 57.47446214 -3.62073032 57.50329548 -7 57 C-9.23155315 55.36408312 -9.92030535 54.47629093 -10.38095093 51.7232666 C-10.38333771 50.83296753 -10.38572449 49.94266846 -10.38818359 49.02539062 C-10.39764008 48.01424194 -10.40709656 47.00309326 -10.4168396 45.96130371 C-10.41076691 44.87063599 -10.40469421 43.77996826 -10.3984375 42.65625 C-10.40130768 41.53561157 -10.40417786 40.41497314 -10.40713501 39.26037598 C-10.40917747 36.88988744 -10.40363499 34.51938212 -10.39111328 32.14892578 C-10.375063 28.51426617 -10.39095669 24.88071865 -10.41015625 21.24609375 C-10.40817385 18.94531004 -10.40433025 16.64452702 -10.3984375 14.34375 C-10.40451019 13.25308228 -10.41058289 12.16241455 -10.4168396 11.03869629 C-10.40738312 10.02754761 -10.39792664 9.01639893 -10.38818359 7.97460938 C-10.38579681 7.0843103 -10.38341003 6.19401123 -10.38095093 5.2767334 C-9.39608817 -0.60924766 -5.201489 -0.55730239 0 0 Z " fill="#7C7A79" transform="translate(216,14)"/>
<path d="M0 0 C2.26199166 1.61956035 2.91745609 2.51524336 3.38768005 5.2767334 C3.39308304 6.16703247 3.39848602 7.05733154 3.40405273 7.97460938 C3.41673691 8.98575806 3.42942108 9.99690674 3.44248962 11.03869629 C3.43808617 12.67469788 3.43808617 12.67469788 3.43359375 14.34375 C3.4388356 15.46438843 3.44407745 16.58502686 3.44947815 17.73962402 C3.45590463 20.11009899 3.45455331 22.48060581 3.44604492 24.85107422 C3.43753296 28.48592652 3.46629312 32.11920923 3.49804688 35.75390625 C3.49965882 38.05468703 3.49908148 40.3554706 3.49609375 42.65625 C3.51294472 44.29225159 3.51294472 44.29225159 3.53013611 45.96130371 C3.52075516 46.97245239 3.51137421 47.98360107 3.50170898 49.02539062 C3.50145973 50.36083923 3.50145973 50.36083923 3.50120544 51.7232666 C3 54 3 54 1.19520569 55.81872559 C-2.12621737 57.60603513 -4.43879008 56.92327665 -8 56 C-10.15869783 52.76195326 -10.25491344 51.85639208 -10.2746582 48.1171875 C-10.28419022 47.12605957 -10.29372223 46.13493164 -10.30354309 45.11376953 C-10.30263168 44.04497559 -10.30172028 42.97618164 -10.30078125 41.875 C-10.30506638 40.77655762 -10.3093515 39.67811523 -10.31376648 38.54638672 C-10.31951185 36.22298879 -10.32000853 33.89957287 -10.31567383 31.57617188 C-10.31251244 28.01401234 -10.33597628 24.45268188 -10.36132812 20.890625 C-10.36360087 18.63541772 -10.36430473 16.3802082 -10.36328125 14.125 C-10.372491 13.05620605 -10.38170074 11.98741211 -10.39118958 10.88623047 C-10.38496078 9.89510254 -10.37873199 8.90397461 -10.37231445 7.8828125 C-10.37294388 7.01027832 -10.3735733 6.13774414 -10.3742218 5.23876953 C-9.3946361 -0.62156949 -5.15980073 -0.55283579 0 0 Z " fill="#7C7A79" transform="translate(303,14)"/>
<path d="M0 0 C1.07121094 0.11601562 1.07121094 0.11601562 2.1640625 0.234375 C5.59800384 1.81180388 7.69217249 3.93020306 9.375 7.25 C10.08966339 10.93693009 10.07450717 14.50477279 10 18.25 C10.02900391 19.70792969 10.02900391 19.70792969 10.05859375 21.1953125 C10.02788453 25.70342597 9.93690995 29.20836926 7.11328125 32.86328125 C3.72673949 35.81503163 1.94523725 36.33024192 -2.40234375 36.5625 C-6.29846466 36.01471499 -7.98407923 34.08898983 -10.625 31.25 C-12.61486838 27.27026324 -12.02857566 22.37659377 -12.125 18 C-12.17914063 16.96230469 -12.23328125 15.92460937 -12.2890625 14.85546875 C-12.42237174 7.39967348 -12.42237174 7.39967348 -10.19384766 4.18652344 C-7.10611528 1.36435769 -4.32981005 -0.66128008 0 0 Z " fill="#ECECEC" transform="translate(241.625,181.75)"/>
<path d="M0 0 C0.96808594 -0.01675781 1.93617187 -0.03351563 2.93359375 -0.05078125 C5.5625 0.3125 5.5625 0.3125 7.421875 1.671875 C8.5625 3.3125 8.5625 3.3125 8.375 5.875 C7.5625 8.3125 7.5625 8.3125 5.5625 10.3125 C3.28515625 10.61328125 3.28515625 10.61328125 0.625 10.625 C-0.68791016 10.65013672 -0.68791016 10.65013672 -2.02734375 10.67578125 C-4.4375 10.3125 -4.4375 10.3125 -6.234375 8.953125 C-7.92310934 6.65030544 -7.79458213 5.09774062 -7.4375 2.3125 C-4.83563892 -0.28936108 -3.61395645 0.01439823 0 0 Z " fill="#BFE2FC" transform="translate(77.4375,95.6875)"/>
<path d="M0 0 C3.93729777 1.25993529 5.63869991 2.70930871 8.125 6 C8.5625 9.1875 8.5625 9.1875 8.125 12 C6.125 14 6.125 14 3.875 14.4375 C-0.20545955 13.78833598 -2.05580386 11.94734142 -4.875 9 C-5.9375 5.875 -5.9375 5.875 -5.875 3 C-4.27092193 0.07491647 -3.32160574 0 0 0 Z " fill="#F7E3AA" transform="translate(209.875,427)"/>
<path d="M0 0 C1.0725 -0.01675781 2.145 -0.03351563 3.25 -0.05078125 C4.1575 0.06910156 5.065 0.18898437 6 0.3125 C8 3.3125 8 3.3125 7.8125 5.875 C7 8.3125 7 8.3125 4 10.3125 C-2.85468862 10.85652291 -2.85468862 10.85652291 -6.5 9.125 C-8 7.3125 -8 7.3125 -8.375 4.75 C-7.58529066 -0.38311073 -4.47394973 0.01613203 0 0 Z " fill="#FEFEFE" transform="translate(78,129.6875)"/>
<path d="M0 0 C0.66 0 1.32 0 2 0 C3.7265625 1.75 3.7265625 1.75 5.625 4 C6.25664063 4.7425 6.88828125 5.485 7.5390625 6.25 C8.02117187 6.8275 8.50328125 7.405 9 8 C8.07456291 9.34173403 7.13422595 10.67320159 6.1875 12 C5.40439453 13.11375 5.40439453 13.11375 4.60546875 14.25 C4.07566406 14.8275 3.54585937 15.405 3 16 C0 16 0 16 -1.82421875 14.46875 C-2.43910156 13.8190625 -3.05398437 13.169375 -3.6875 12.5 C-4.31011719 11.8503125 -4.93273437 11.200625 -5.57421875 10.53125 C-6.27998047 9.77328125 -6.27998047 9.77328125 -7 9 C-6.57847656 8.51789063 -6.15695313 8.03578125 -5.72265625 7.5390625 C-5.17480469 6.90742188 -4.62695312 6.27578125 -4.0625 5.625 C-3.51722656 4.99851562 -2.97195312 4.37203125 -2.41015625 3.7265625 C-0.93041376 2.04367666 -0.93041376 2.04367666 0 0 Z " fill="#E1B41E" transform="translate(113,286)"/>
<path d="M0 0 C0.66 0 1.32 0 2 0 C3.35278115 1.98689731 4.68568305 3.98745218 6 6 C6.66 6.33 7.32 6.66 8 7 C8 10 8 10 5.5625 12.5625 C4.716875 13.366875 3.87125 14.17125 3 15 C2.67 15.66 2.34 16.32 2 17 C1.34 17 0.68 17 0 17 C-1.7265625 15.25 -1.7265625 15.25 -3.625 13 C-4.25664062 12.2575 -4.88828125 11.515 -5.5390625 10.75 C-6.26222656 9.88375 -6.26222656 9.88375 -7 9 C-6.02180976 7.68677212 -5.0424189 6.37443848 -4.0625 5.0625 C-3.51722656 4.33160156 -2.97195313 3.60070312 -2.41015625 2.84765625 C-1 1 -1 1 0 0 Z " fill="#E4B61E" transform="translate(397,286)"/>
<path d="M0 0 C0.99 0.103125 1.98 0.20625 3 0.3125 C5 3.3125 5 3.3125 4.6875 6.4375 C4 9.3125 4 9.3125 3 10.3125 C-2.25450902 10.76941383 -2.25450902 10.76941383 -4.9375 9.125 C-6 7.3125 -6 7.3125 -5.8125 4.75 C-4.61582559 1.15997676 -3.79303534 0.39510785 0 0 Z " fill="#060606" transform="translate(455,241.6875)"/>
<path d="M0 0 C3.1875 0.875 3.1875 0.875 6 2 C6.33 3.98 6.66 5.96 7 8 C2.62829989 11.03590285 2.62829989 11.03590285 -0.1875 10.875 C-2 10 -2 10 -4 7 C-3.8125 4.4375 -3.8125 4.4375 -3 2 C-2.01 1.34 -1.02 0.68 0 0 Z " fill="#030608" transform="translate(56,78)"/>
<path d="M0 0 C3.0625 0.1875 3.0625 0.1875 5.0625 2.1875 C5.3125 4.6875 5.3125 4.6875 5.0625 7.1875 C3.0625 9.1875 3.0625 9.1875 0.0625 9.4375 C-2.9375 9.1875 -2.9375 9.1875 -4.9375 7.1875 C-4.23164336 0.2701049 -4.23164336 0.2701049 0 0 Z " fill="#0B0B09" transform="translate(204.9375,313.8125)"/>
</svg>
