<?xml version="1.0" encoding="UTF-8"?>
<svg version="1.1" xmlns="http://www.w3.org/2000/svg" width="512" height="512">
<path d="M0 0 C3.26155358 1.26207943 5.58154174 -0.2161745 8.6953125 -1.49609375 C23.44642716 -7.31366818 39.73574722 -7.62915529 54.58203125 -1.87109375 C60.05002445 0.79314109 65.16788887 4.03546972 69.4609375 8.37890625 C73.25273707 10.51575651 77.2071433 10.09651621 81.484375 10.1328125 C98.05867613 10.64491975 111.41834674 14.45919061 125.796875 22.6953125 C126.64765625 23.17871094 127.4984375 23.66210938 128.375 24.16015625 C147.34563025 35.93150056 160.75777773 55.2951131 166.171875 76.8203125 C168.44186271 86.63311217 168.60078312 96.66521271 168.796875 106.6953125 C169.48652344 106.90285156 170.17617188 107.11039062 170.88671875 107.32421875 C182.68262955 111.19146522 191.32193696 118.12938082 197.1171875 129.22265625 C200.23835159 136.65451899 200.21535395 143.73258806 199.796875 151.6953125 C200.51230469 151.953125 201.22773438 152.2109375 201.96484375 152.4765625 C215.53572882 158.31672269 224.42417373 170.31489086 229.796875 183.6953125 C234.25219584 198.22486397 233.45028086 215.00497111 226.796875 228.6953125 C224.70656213 232.26170052 222.40478646 235.49250879 219.796875 238.6953125 C219.34054687 239.28957031 218.88421875 239.88382813 218.4140625 240.49609375 C215.87662485 243.71177732 213.14799123 246.34047407 209.796875 248.6953125 C209.136875 248.6953125 208.476875 248.6953125 207.796875 248.6953125 C207.82305908 249.2529126 207.84924316 249.8105127 207.8762207 250.38500977 C208.57105352 267.5095603 206.96187003 280.9017289 195.796875 294.6953125 C194.6521875 296.273125 194.6521875 296.273125 193.484375 297.8828125 C184.28494997 307.51011776 170.92567547 314.41365671 157.53515625 315.1640625 C155.72684799 315.19784263 153.91795639 315.20769123 152.109375 315.1953125 C151.15401855 315.19104248 150.19866211 315.18677246 149.21435547 315.18237305 C138.84936112 314.93591922 129.83714411 312.5656881 121.109375 306.7578125 C120.01625 306.0771875 118.923125 305.3965625 117.796875 304.6953125 C114.96145046 305.72637597 112.60362162 307.45429434 110.109375 309.1328125 C99.53747963 315.64155682 87.60036418 316.44974451 75.50390625 314.0390625 C67.09891818 311.28877021 60.93349117 305.87104591 54.796875 299.6953125 C52.91619334 305.8207271 51.06876467 311.95550404 49.24267578 318.09741211 C48.61951433 320.17971078 47.9891487 322.25986909 47.35107422 324.33764648 C46.42790133 327.34846544 45.5321091 330.36638541 44.640625 333.38671875 C44.35626587 334.29361954 44.07190674 335.20052032 43.77893066 336.13490295 C39.75806077 350.03579574 42.03412987 365.05408502 43.109375 379.2890625 C43.24444277 381.13411536 43.37895354 382.97920908 43.51293945 384.82434082 C43.86344283 389.63539755 44.21994498 394.44598822 44.57824707 399.25646973 C45.15290794 406.98118238 45.71972852 414.70646758 46.28378296 422.43196106 C46.48075682 425.11478217 46.68121441 427.79732624 46.88208008 430.4798584 C47.00352934 432.12914219 47.12487288 433.77843378 47.24609375 435.42773438 C47.3302504 436.53282852 47.3302504 436.53282852 47.41610718 437.6602478 C47.73429971 442.03896544 47.796875 446.28645015 47.796875 450.6953125 C63.636875 450.6953125 79.476875 450.6953125 95.796875 450.6953125 C95.796875 455.9753125 95.796875 461.2553125 95.796875 466.6953125 C11.316875 466.6953125 -73.163125 466.6953125 -160.203125 466.6953125 C-160.203125 461.4153125 -160.203125 456.1353125 -160.203125 450.6953125 C-141.393125 450.6953125 -122.583125 450.6953125 -103.203125 450.6953125 C-102.873125 446.4053125 -102.543125 442.1153125 -102.203125 437.6953125 C-101.94424861 435.51849512 -101.66146601 433.34401853 -101.33032227 431.17701721 C-101.07800339 429.50193588 -101.07800339 429.50193588 -100.82058716 427.79301453 C-100.63873871 426.61809952 -100.45689026 425.44318451 -100.26953125 424.23266602 C-99.97233384 422.2730027 -99.67513696 420.31333931 -99.37796021 418.35367286 C-99.06177072 416.27473082 -98.74325058 414.19615815 -98.42404175 412.11767769 C-97.75459529 407.7575648 -97.09270959 403.39632358 -96.43188477 399.03489685 C-94.79000066 388.20637597 -93.13781958 377.37942911 -91.48474121 366.5526123 C-90.19800401 358.12411903 -88.91393562 349.69523526 -87.63720226 341.26522011 C-86.98243769 336.94390973 -86.32254992 332.62342479 -85.65853882 328.30352604 C-85.34475451 326.25641221 -85.03353778 324.20892702 -84.72341919 322.16125488 C-84.34832838 319.68458246 -83.9694469 317.20847925 -83.58566284 314.73313904 C-82.38407298 306.73594448 -81.6740163 298.76770454 -81.203125 290.6953125 C-82.44964844 290.74171875 -83.69617188 290.788125 -84.98046875 290.8359375 C-111.22328871 291.5208035 -132.3918873 283.13850056 -151.7578125 265.19921875 C-158.49823794 258.29728152 -170.203125 245.05703717 -170.203125 234.6953125 C-171.255 234.7778125 -172.306875 234.8603125 -173.390625 234.9453125 C-185.46401924 234.90265033 -198.68612956 228.60616049 -207.515625 220.51953125 C-213.15828092 214.4197157 -218.07548253 207.41620768 -221.203125 199.6953125 C-221.64978516 198.62990234 -221.64978516 198.62990234 -222.10546875 197.54296875 C-224.92517777 189.73354423 -224.47702826 181.87183206 -224.203125 173.6953125 C-224.91855469 173.4375 -225.63398438 173.1796875 -226.37109375 172.9140625 C-238.29768173 167.78151705 -246.46125318 157.90270679 -252.09765625 146.5078125 C-255.1967343 138.62323231 -256.762734 131.49794451 -256.703125 123.0078125 C-256.69740479 122.05100586 -256.69168457 121.09419922 -256.68579102 120.10839844 C-256.36278781 107.1491185 -252.44852577 96.82157658 -244.203125 86.6953125 C-243.74679688 86.10105469 -243.29046875 85.50679688 -242.8203125 84.89453125 C-240.28287485 81.67884768 -237.55424123 79.05015093 -234.203125 76.6953125 C-233.543125 76.6953125 -232.883125 76.6953125 -232.203125 76.6953125 C-232.13996094 76.10105469 -232.07679688 75.50679688 -232.01171875 74.89453125 C-230.51825129 64.78611465 -225.29984077 56.61219118 -217.38671875 50.1953125 C-211.49025549 46.14479033 -205.21825945 42.65187956 -197.953125 42.73046875 C-188.50974244 42.79932675 -184.36430214 41.03705789 -177.29296875 34.40234375 C-166.68154243 24.64038403 -149.74767966 18.45200396 -135.4921875 18.66015625 C-133.87183594 18.65145508 -133.87183594 18.65145508 -132.21875 18.64257812 C-129.96605884 18.63608996 -127.71311938 18.65674244 -125.4609375 18.70507812 C-119.34796624 18.71420743 -119.34796624 18.71420743 -114.06323242 16.02783203 C-112.3187067 13.98844002 -110.76880516 11.8732799 -109.203125 9.6953125 C-79.87429484 -19.15752517 -33.95313112 -20.10699609 0 0 Z M5.796875 201.6953125 C2.82108214 205.06208545 0.83789642 208.61913872 0.74780273 213.17895508 C1.51935708 219.97105838 2.57973808 226.66810994 3.859375 233.3828125 C4.04564453 234.38248047 4.23191406 235.38214844 4.42382812 236.41210938 C4.87701487 238.84072551 5.33474092 241.26838601 5.796875 243.6953125 C10.08520099 242.19010857 13.67640419 239.9535023 17.41015625 237.4140625 C18.02457077 236.99991089 18.63898529 236.58575928 19.27201843 236.15905762 C20.56196843 235.2873269 21.85025835 234.41313513 23.13696289 233.53662109 C25.11490909 232.19154912 27.10098604 230.85913597 29.08789062 229.52734375 C30.34165573 228.67783539 31.59492892 227.82760048 32.84765625 226.9765625 C33.4444368 226.57755737 34.04121735 226.17855225 34.65608215 225.76745605 C36.0729599 224.79469661 37.44078126 223.75115967 38.796875 222.6953125 C38.796875 222.0353125 38.796875 221.3753125 38.796875 220.6953125 C36.7477129 219.27450806 36.7477129 219.27450806 34.171875 217.8828125 C26.14931331 213.1729378 21.76962972 208.61076855 16.53125 200.92578125 C15.95890625 200.18972656 15.3865625 199.45367187 14.796875 198.6953125 C11.35050643 198.6953125 8.60841098 199.81092115 5.796875 201.6953125 Z " fill="#9FCA00" transform="translate(272.203125,29.3046875)"/>
<path d="M0 0 C3.26155358 1.26207943 5.58154174 -0.2161745 8.6953125 -1.49609375 C23.44642716 -7.31366818 39.73574722 -7.62915529 54.58203125 -1.87109375 C60.05002445 0.79314109 65.16788887 4.03546972 69.4609375 8.37890625 C73.25273707 10.51575651 77.2071433 10.09651621 81.484375 10.1328125 C98.05867613 10.64491975 111.41834674 14.45919061 125.796875 22.6953125 C126.64765625 23.17871094 127.4984375 23.66210938 128.375 24.16015625 C147.34563025 35.93150056 160.75777773 55.2951131 166.171875 76.8203125 C168.44186271 86.63311217 168.60078312 96.66521271 168.796875 106.6953125 C169.48652344 106.90285156 170.17617188 107.11039062 170.88671875 107.32421875 C182.68262955 111.19146522 191.32193696 118.12938082 197.1171875 129.22265625 C200.23835159 136.65451899 200.21535395 143.73258806 199.796875 151.6953125 C200.51230469 151.953125 201.22773438 152.2109375 201.96484375 152.4765625 C215.53572882 158.31672269 224.42417373 170.31489086 229.796875 183.6953125 C234.25219584 198.22486397 233.45028086 215.00497111 226.796875 228.6953125 C224.70656213 232.26170052 222.40478646 235.49250879 219.796875 238.6953125 C219.34054687 239.28957031 218.88421875 239.88382813 218.4140625 240.49609375 C215.87662485 243.71177732 213.14799123 246.34047407 209.796875 248.6953125 C209.136875 248.6953125 208.476875 248.6953125 207.796875 248.6953125 C207.82305908 249.2529126 207.84924316 249.8105127 207.8762207 250.38500977 C208.57105352 267.5095603 206.96187003 280.9017289 195.796875 294.6953125 C194.6521875 296.273125 194.6521875 296.273125 193.484375 297.8828125 C184.28494997 307.51011776 170.92567547 314.41365671 157.53515625 315.1640625 C155.72684799 315.19784263 153.91795639 315.20769123 152.109375 315.1953125 C151.15401855 315.19104248 150.19866211 315.18677246 149.21435547 315.18237305 C138.84936112 314.93591922 129.83714411 312.5656881 121.109375 306.7578125 C120.01625 306.0771875 118.923125 305.3965625 117.796875 304.6953125 C114.96145046 305.72637597 112.60362162 307.45429434 110.109375 309.1328125 C99.53747963 315.64155682 87.60036418 316.44974451 75.50390625 314.0390625 C67.09891818 311.28877021 60.93349117 305.87104591 54.796875 299.6953125 C52.91619334 305.8207271 51.06876467 311.95550404 49.24267578 318.09741211 C48.61951433 320.17971078 47.9891487 322.25986909 47.35107422 324.33764648 C46.42790133 327.34846544 45.5321091 330.36638541 44.640625 333.38671875 C44.35626587 334.29361954 44.07190674 335.20052032 43.77893066 336.13490295 C39.75806077 350.03579574 42.03412987 365.05408502 43.109375 379.2890625 C43.24444277 381.13411536 43.37895354 382.97920908 43.51293945 384.82434082 C43.86344283 389.63539755 44.21994498 394.44598822 44.57824707 399.25646973 C45.15290794 406.98118238 45.71972852 414.70646758 46.28378296 422.43196106 C46.48075682 425.11478217 46.68121441 427.79732624 46.88208008 430.4798584 C47.00352934 432.12914219 47.12487288 433.77843378 47.24609375 435.42773438 C47.3302504 436.53282852 47.3302504 436.53282852 47.41610718 437.6602478 C47.73429971 442.03896544 47.796875 446.28645015 47.796875 450.6953125 C63.636875 450.6953125 79.476875 450.6953125 95.796875 450.6953125 C95.796875 455.9753125 95.796875 461.2553125 95.796875 466.6953125 C11.316875 466.6953125 -73.163125 466.6953125 -160.203125 466.6953125 C-160.203125 461.4153125 -160.203125 456.1353125 -160.203125 450.6953125 C-141.393125 450.6953125 -122.583125 450.6953125 -103.203125 450.6953125 C-102.873125 446.4053125 -102.543125 442.1153125 -102.203125 437.6953125 C-101.94424861 435.51849512 -101.66146601 433.34401853 -101.33032227 431.17701721 C-101.07800339 429.50193588 -101.07800339 429.50193588 -100.82058716 427.79301453 C-100.63873871 426.61809952 -100.45689026 425.44318451 -100.26953125 424.23266602 C-99.97233384 422.2730027 -99.67513696 420.31333931 -99.37796021 418.35367286 C-99.06177072 416.27473082 -98.74325058 414.19615815 -98.42404175 412.11767769 C-97.75459529 407.7575648 -97.09270959 403.39632358 -96.43188477 399.03489685 C-94.79000066 388.20637597 -93.13781958 377.37942911 -91.48474121 366.5526123 C-90.19800401 358.12411903 -88.91393562 349.69523526 -87.63720226 341.26522011 C-86.98243769 336.94390973 -86.32254992 332.62342479 -85.65853882 328.30352604 C-85.34475451 326.25641221 -85.03353778 324.20892702 -84.72341919 322.16125488 C-84.34832838 319.68458246 -83.9694469 317.20847925 -83.58566284 314.73313904 C-82.38407298 306.73594448 -81.6740163 298.76770454 -81.203125 290.6953125 C-82.44964844 290.74171875 -83.69617188 290.788125 -84.98046875 290.8359375 C-111.22328871 291.5208035 -132.3918873 283.13850056 -151.7578125 265.19921875 C-158.49823794 258.29728152 -170.203125 245.05703717 -170.203125 234.6953125 C-171.255 234.7778125 -172.306875 234.8603125 -173.390625 234.9453125 C-185.46401924 234.90265033 -198.68612956 228.60616049 -207.515625 220.51953125 C-213.15828092 214.4197157 -218.07548253 207.41620768 -221.203125 199.6953125 C-221.64978516 198.62990234 -221.64978516 198.62990234 -222.10546875 197.54296875 C-224.92517777 189.73354423 -224.47702826 181.87183206 -224.203125 173.6953125 C-224.91855469 173.4375 -225.63398438 173.1796875 -226.37109375 172.9140625 C-238.29768173 167.78151705 -246.46125318 157.90270679 -252.09765625 146.5078125 C-255.1967343 138.62323231 -256.762734 131.49794451 -256.703125 123.0078125 C-256.69740479 122.05100586 -256.69168457 121.09419922 -256.68579102 120.10839844 C-256.36278781 107.1491185 -252.44852577 96.82157658 -244.203125 86.6953125 C-243.74679688 86.10105469 -243.29046875 85.50679688 -242.8203125 84.89453125 C-240.28287485 81.67884768 -237.55424123 79.05015093 -234.203125 76.6953125 C-233.543125 76.6953125 -232.883125 76.6953125 -232.203125 76.6953125 C-232.13996094 76.10105469 -232.07679688 75.50679688 -232.01171875 74.89453125 C-230.51825129 64.78611465 -225.29984077 56.61219118 -217.38671875 50.1953125 C-211.49025549 46.14479033 -205.21825945 42.65187956 -197.953125 42.73046875 C-188.50974244 42.79932675 -184.36430214 41.03705789 -177.29296875 34.40234375 C-166.68154243 24.64038403 -149.74767966 18.45200396 -135.4921875 18.66015625 C-133.87183594 18.65145508 -133.87183594 18.65145508 -132.21875 18.64257812 C-129.96605884 18.63608996 -127.71311938 18.65674244 -125.4609375 18.70507812 C-119.34796624 18.71420743 -119.34796624 18.71420743 -114.06323242 16.02783203 C-112.3187067 13.98844002 -110.76880516 11.8732799 -109.203125 9.6953125 C-79.87429484 -19.15752517 -33.95313112 -20.10699609 0 0 Z M-96.203125 20.6953125 C-97.23262231 22.00600433 -98.24140553 23.33410956 -99.203125 24.6953125 C-98.29691406 25.11941406 -97.39070312 25.54351562 -96.45703125 25.98046875 C-89.00916406 29.53848451 -82.51215946 33.30231371 -76.203125 38.6953125 C-75.58308594 39.17226562 -74.96304688 39.64921875 -74.32421875 40.140625 C-72.640625 41.4453125 -72.640625 41.4453125 -70.203125 43.6953125 C-70.203125 46.6953125 -70.203125 46.6953125 -71.8125 48.51953125 C-72.51890625 49.13441406 -73.2253125 49.74929687 -73.953125 50.3828125 C-74.64921875 51.00542969 -75.3453125 51.62804687 -76.0625 52.26953125 C-78.203125 53.6953125 -78.203125 53.6953125 -82.203125 53.6953125 C-84.0703125 52.19140625 -84.0703125 52.19140625 -86.078125 50.1328125 C-98.99128462 38.11462434 -116.44379483 34.02382421 -133.64453125 34.3515625 C-152.32742022 35.3061917 -166.51251925 46.00470675 -179.203125 58.6953125 C-181.04736328 58.85888672 -181.04736328 58.85888672 -183.2734375 58.75 C-184.088125 58.72550781 -184.9028125 58.70101562 -185.7421875 58.67578125 C-187.44308789 58.60640918 -189.14366606 58.52852235 -190.84375 58.44140625 C-196.83367317 58.28180015 -201.27030227 59.15972137 -206.203125 62.6953125 C-208.6627024 65.26341078 -208.6627024 65.26341078 -210.203125 67.6953125 C-209.00558594 67.63730469 -207.80804688 67.57929687 -206.57421875 67.51953125 C-195.50825908 67.15207337 -186.37276391 68.02774527 -176.203125 72.6953125 C-175.543125 73.3553125 -174.883125 74.0153125 -174.203125 74.6953125 C-174.63625 75.46617188 -175.069375 76.23703125 -175.515625 77.03125 C-176.3509375 78.53558594 -176.3509375 78.53558594 -177.203125 80.0703125 C-178.0384375 81.56691406 -178.0384375 81.56691406 -178.890625 83.09375 C-180.35326768 85.50726759 -180.35326768 85.50726759 -180.203125 87.6953125 C-181.19892578 87.27958984 -181.19892578 87.27958984 -182.21484375 86.85546875 C-183.53935547 86.31212891 -183.53935547 86.31212891 -184.890625 85.7578125 C-185.76074219 85.39816406 -186.63085938 85.03851563 -187.52734375 84.66796875 C-196.28075059 81.48607342 -205.85269087 81.39031828 -214.515625 84.8203125 C-226.81018095 90.58692899 -234.43636106 98.93412853 -239.29296875 111.51953125 C-242.4875372 122.66624433 -240.0091345 133.89363402 -234.578125 143.8203125 C-231.32925675 148.96638952 -227.24216374 153.25916799 -222.203125 156.6953125 C-221.213125 156.6953125 -220.223125 156.6953125 -219.203125 156.6953125 C-218.85121094 155.9940625 -218.49929687 155.2928125 -218.13671875 154.5703125 C-210.63179123 140.14831078 -200.45352132 131.49635479 -185.203125 125.6953125 C-182.53829532 124.88702293 -179.93328384 124.26194924 -177.203125 123.6953125 C-176.213125 131.6153125 -176.213125 131.6153125 -175.203125 139.6953125 C-177.513125 140.0253125 -179.823125 140.3553125 -182.203125 140.6953125 C-194.12051982 145.57358675 -200.93389748 153.12994731 -206.203125 164.6953125 C-209.96980296 174.04892906 -209.27619484 184.9548508 -205.4609375 194.1328125 C-199.6526558 205.96583361 -191.63452333 213.19845391 -179.203125 217.6953125 C-168.24023692 220.40156003 -157.33462596 218.87400962 -147.58984375 213.1640625 C-146.08637042 212.1601065 -144.60007294 211.1294449 -143.140625 210.0625 C-141.203125 208.6953125 -141.203125 208.6953125 -137.203125 206.6953125 C-134.233125 209.3353125 -131.263125 211.9753125 -128.203125 214.6953125 C-129.79053864 221.04496707 -134.82178576 223.34720871 -140.203125 226.6953125 C-144.42663675 228.93419941 -148.79713329 230.84605684 -153.203125 232.6953125 C-148.85142378 247.57813069 -135.41188117 259.44162758 -122.203125 266.6953125 C-109.3250283 273.48591809 -97.51914163 275.18583591 -83.203125 274.6953125 C-82.73391437 263.31261022 -83.55205639 252.08462726 -84.578125 240.7578125 C-84.67294662 239.68311203 -84.67294662 239.68311203 -84.76968384 238.58670044 C-85.14317386 224.64516154 -85.14317386 224.64516154 -90.13671875 212.2421875 C-90.96300781 211.64921875 -91.78929687 211.05625 -92.640625 210.4453125 C-93.63191406 209.70925781 -94.62320313 208.97320312 -95.64453125 208.21484375 C-96.20672363 207.8173291 -96.76891602 207.41981445 -97.34814453 207.01025391 C-99.39229267 205.56121707 -101.40574001 204.07506254 -103.41796875 202.58203125 C-106.60257098 200.22180705 -109.79649907 197.87500868 -112.99609375 195.53515625 C-120.23786373 190.21881586 -127.36179911 184.74818516 -134.49609375 179.2890625 C-138.71150455 176.06383728 -142.94980392 172.87033723 -147.203125 169.6953125 C-145.64610569 165.02425458 -143.11865127 161.60825565 -140.203125 157.6953125 C-134.98900461 159.29021991 -131.25861296 162.58805491 -127.078125 165.9453125 C-120.76385846 170.93870797 -114.391897 175.82287519 -107.890625 180.5703125 C-100.80270917 185.76006327 -93.7636974 191.00992869 -86.765625 196.3203125 C-85.87125732 196.99562012 -84.97688965 197.67092773 -84.05541992 198.36669922 C-83.21857666 199.00365723 -82.3817334 199.64061523 -81.51953125 200.296875 C-80.78162354 200.85713379 -80.04371582 201.41739258 -79.28344727 201.99462891 C-73.43852125 206.77291251 -73.43852125 206.77291251 -72.50778198 210.42001343 C-72.41610748 211.46396271 -72.32443298 212.50791199 -72.22998047 213.58349609 C-72.11661346 214.77349213 -72.00324646 215.96348816 -71.88644409 217.18954468 C-71.78212067 218.47793243 -71.67779724 219.76632019 -71.5703125 221.09375 C-71.44786842 222.44794757 -71.32382529 223.8020014 -71.19827271 225.15591431 C-70.87084151 228.73334888 -70.56498705 232.31231263 -70.26367188 235.89202881 C-69.96060334 239.44999362 -69.63784189 243.00615582 -69.31640625 246.5625 C-68.82098911 252.06638524 -68.33865811 257.5712465 -67.86621094 263.07714844 C-67.45798489 267.81698309 -67.03304808 272.55436592 -66.57910156 277.29003906 C-66.48452667 278.28427887 -66.38995178 279.27851868 -66.29251099 280.30288696 C-66.1214338 282.08725482 -65.94691719 283.87129881 -65.76779175 285.65487671 C-64.98391643 293.89180373 -64.90954297 301.925771 -66.078125 310.1328125 C-66.32175781 311.89431641 -66.32175781 311.89431641 -66.5703125 313.69140625 C-67.02900412 316.72887772 -67.58076588 319.74283884 -68.1484375 322.76171875 C-69.39747686 329.54180239 -70.29493736 336.36261954 -71.203125 343.1953125 C-72.21186024 350.78446902 -73.28584887 358.32586616 -74.703125 365.84960938 C-75.714269 371.60444066 -76.43338001 377.40418416 -77.203125 383.1953125 C-78.21222137 390.787186 -79.28583922 398.33183585 -80.703125 405.85839844 C-81.70967224 411.5693745 -82.43367702 417.32349794 -83.203125 423.0703125 C-84.44597934 432.29462206 -85.76267432 441.49957826 -87.203125 450.6953125 C-79.613125 450.6953125 -72.023125 450.6953125 -64.203125 450.6953125 C-64.203125 440.1353125 -64.203125 429.5753125 -64.203125 418.6953125 C-58.923125 418.6953125 -53.643125 418.6953125 -48.203125 418.6953125 C-48.203125 429.2553125 -48.203125 439.8153125 -48.203125 450.6953125 C-42.923125 450.6953125 -37.643125 450.6953125 -32.203125 450.6953125 C-32.19901611 449.21434082 -32.19490723 447.73336914 -32.19067383 446.20751953 C-32.16863391 440.6271041 -32.11409245 435.04736919 -32.05053711 429.46728516 C-32.02757151 427.06826378 -32.01301267 424.66914465 -32.00756836 422.27001953 C-31.96751629 407.51237104 -30.88919501 394.69271164 -26.203125 380.6953125 C-25.03790088 376.6259652 -24.203125 372.96767799 -24.203125 368.6953125 C-23.28789062 368.9840625 -22.37265625 369.2728125 -21.4296875 369.5703125 C-20.24117187 369.9415625 -19.05265625 370.3128125 -17.828125 370.6953125 C-16.64476562 371.0665625 -15.46140625 371.4378125 -14.2421875 371.8203125 C-11.40989061 372.78753856 -11.40989061 372.78753856 -9.203125 372.6953125 C-9.41517578 373.2816748 -9.62722656 373.86803711 -9.84570312 374.47216797 C-18.38628345 399.36655183 -16.89917661 424.71958414 -16.203125 450.6953125 C-10.923125 450.6953125 -5.643125 450.6953125 -0.203125 450.6953125 C-0.203125 440.1353125 -0.203125 429.5753125 -0.203125 418.6953125 C5.076875 418.6953125 10.356875 418.6953125 15.796875 418.6953125 C15.796875 429.2553125 15.796875 439.8153125 15.796875 450.6953125 C20.746875 450.6953125 25.696875 450.6953125 30.796875 450.6953125 C30.34100066 437.3062746 29.58495925 423.95326836 28.60546875 410.59375 C28.55073017 409.84534096 28.49599159 409.09693192 28.43959427 408.32584381 C27.92626672 401.32330351 27.40318242 394.32149702 26.87817383 387.31982422 C26.58773541 383.44212794 26.30199583 379.56410607 26.01884651 375.68587112 C25.86076045 373.54056114 25.69726536 371.39571074 25.53355408 369.25082397 C24.5725928 356.33115264 24.17773372 344.82473032 27.859375 332.3203125 C28.17229492 331.20978516 28.48521484 330.09925781 28.80761719 328.95507812 C29.78159627 325.52815072 30.78328052 322.1107173 31.796875 318.6953125 C32.1170459 317.61604492 32.4372168 316.53677734 32.76708984 315.42480469 C34.48165321 309.68132658 36.21238834 303.94309211 38.03442383 298.23266602 C38.54907772 296.51995454 39.00628859 294.78907875 39.40893555 293.04663086 C41.04316165 286.33164175 43.56054455 283.26330295 49.109375 279.2578125 C50.1763562 278.44123169 50.1763562 278.44123169 51.26489258 277.6081543 C52.72569871 276.49164044 54.19374687 275.38453697 55.66894531 274.28710938 C58.24773786 272.35804474 60.76792977 270.36211665 63.2878418 268.35717773 C65.4225158 266.6593301 67.56358082 264.9717599 69.73925781 263.32666016 C71.36896832 262.03457122 72.94002706 260.66855033 74.48730469 259.27880859 C83.23209027 251.65441478 91.37297252 249.46773588 102.671875 247.6953125 C105.01034882 247.29087471 107.34683358 246.87610138 109.68338013 246.46069336 C111.12103598 246.20909621 112.56017687 245.96577469 114.00094604 245.73266602 C118.44173674 245.00595288 122.41525263 243.94720461 126.796875 242.6953125 C127.456875 247.9753125 128.116875 253.2553125 128.796875 258.6953125 C127.07017578 258.95054687 127.07017578 258.95054687 125.30859375 259.2109375 C121.03347575 259.85288523 116.76871132 260.54993472 112.50439453 261.25976562 C109.92727264 261.674336 107.34686851 262.03807404 104.76171875 262.3984375 C93.69182957 264.11854843 87.13569473 267.41553245 79.23583984 275.31005859 C76.98438514 277.47747528 74.51900342 279.35054276 72.046875 281.2578125 C68.92122772 283.569298 68.92122772 283.569298 66.796875 286.6953125 C71.84406313 293.19356722 76.2684774 297.90230465 84.65625 299.10546875 C91.85069322 299.46153891 97.19535518 298.32088694 102.796875 293.6953125 C105.13491623 291.10408237 107.34541191 288.483152 109.4609375 285.70703125 C111.796875 283.6953125 111.796875 283.6953125 115.23046875 283.13671875 C119.49590502 283.80479913 121.0850419 285.04399523 124.234375 287.9453125 C133.77915488 296.22872502 143.30557295 299.29437573 156.00390625 299.0078125 C167.09066575 297.76733591 177.17529779 291.54118923 184.2265625 283.046875 C190.92787245 273.01158 192.70671237 262.52319827 191.796875 250.6953125 C189.04592268 239.3299495 181.54723523 229.65614619 171.7890625 223.41015625 C166.80472764 220.68343189 164.00045581 220.4707601 157.796875 219.6953125 C158.456875 214.4153125 159.116875 209.1353125 159.796875 203.6953125 C177.72979785 208.86242586 177.72979785 208.86242586 185.796875 214.6953125 C186.74433594 215.37013672 186.74433594 215.37013672 187.7109375 216.05859375 C193.28281735 220.41546016 197.64079259 226.38314767 200.796875 232.6953125 C207.33688921 229.87634086 210.51579971 223.82079212 213.109375 217.4453125 C216.71084772 207.9021696 217.50249043 197.97051677 213.671875 188.3203125 C208.51964422 177.4369486 201.06749834 169.24733125 189.796875 164.6953125 C178.9805709 160.96555247 168.47491464 161.60722823 158.22265625 166.6015625 C155.796875 167.6953125 155.796875 167.6953125 152.796875 167.6953125 C150.97265625 165.2890625 150.97265625 165.2890625 149.109375 162.1953125 C148.17544922 160.66390625 148.17544922 160.66390625 147.22265625 159.1015625 C146.51689453 157.91046875 146.51689453 157.91046875 145.796875 156.6953125 C148.43846688 154.60702702 150.97052153 152.99946593 154.046875 151.6328125 C155.10648437 151.15134766 155.10648437 151.15134766 156.1875 150.66015625 C162.72188954 148.24399724 168.89013877 147.35759442 175.796875 147.0703125 C176.57160156 147.03164062 177.34632813 146.99296875 178.14453125 146.953125 C180.02830915 146.86009893 181.91255756 146.77668075 183.796875 146.6953125 C183.59374355 138.39876524 181.00939372 134.06302928 175.3125 128.15625 C169.82656975 123.11273348 163.46937901 122.18780104 156.27734375 122.39453125 C148.66458113 123.31765365 144.2896927 127.83548828 139.36328125 133.37890625 C137.67727307 135.87218019 137.16783749 137.73283743 136.796875 140.6953125 C135.88164062 140.4065625 134.96640625 140.1178125 134.0234375 139.8203125 C132.83492188 139.4490625 131.64640625 139.0778125 130.421875 138.6953125 C129.23851562 138.3240625 128.05515625 137.9528125 126.8359375 137.5703125 C124.00364061 136.60308644 124.00364061 136.60308644 121.796875 136.6953125 C124.51458354 125.74682951 131.16139032 117.53408343 140.796875 111.6953125 C144.39966349 110.11996643 148.03291918 108.82801696 151.796875 107.6953125 C152.5792827 86.09216664 148.69634618 67.34766264 133.796875 50.6953125 C132.81460938 49.57382813 132.81460938 49.57382813 131.8125 48.4296875 C122.34061736 38.26642656 110.8928157 32.70808293 97.796875 28.6953125 C96.59675781 28.3240625 95.39664062 27.9528125 94.16015625 27.5703125 C90.12630816 26.52085609 86.93438556 26.55013669 82.796875 26.6953125 C83.27458023 28.63317335 83.75409071 30.57058924 84.234375 32.5078125 C84.63462891 34.12623047 84.63462891 34.12623047 85.04296875 35.77734375 C85.55764912 37.7693968 86.14624675 39.74342774 86.796875 41.6953125 C87.55128755 52.83835694 86.51124513 62.10800201 82.796875 72.6953125 C82.136875 74.6753125 81.476875 76.6553125 80.796875 78.6953125 C76.506875 76.0553125 72.216875 73.4153125 67.796875 70.6953125 C68.54557292 68.22135417 69.29427083 65.74739583 70.04296875 63.2734375 C73.26783925 52.24538292 72.37367844 41.28373282 67.109375 31.0078125 C60.8324281 20.32044488 52.73513312 15.92941766 41.421875 11.3203125 C32.50258288 9.78250351 24.02649414 9.74509532 15.796875 13.6953125 C16.17199219 14.16839844 16.54710937 14.64148437 16.93359375 15.12890625 C20.77364694 20.09099009 23.85327793 25.15442389 26.796875 30.6953125 C22.836875 33.0053125 18.876875 35.3153125 14.796875 37.6953125 C12.816875 35.2203125 12.816875 35.2203125 10.796875 32.6953125 C-3.21840109 16.26822982 -19.19882695 4.72211516 -41.203125 2.49267578 C-61.10647109 1.12723627 -81.56118195 6.55826404 -96.203125 20.6953125 Z " fill="#010100" transform="translate(272.203125,29.3046875)"/>
<path d="M0 0 C0.00808685 0.79291443 0.01617371 1.58582886 0.02450562 2.402771 C0.10246606 9.87747147 0.18976099 17.35197715 0.28752708 24.82644272 C0.33746005 28.66908919 0.38379023 32.51170857 0.421875 36.35449219 C0.4587659 40.06341688 0.50513596 43.77211329 0.55806351 47.48084259 C0.57658729 48.89536787 0.59170272 50.30994205 0.60334396 51.72454071 C0.62024013 53.70675762 0.65040923 55.68884792 0.68115234 57.67089844 C0.69447601 58.79896912 0.70779968 59.92703979 0.7215271 61.08929443 C0.99714208 63.97012795 1.42610191 65.60021573 3 68 C6.42679635 70.79802329 10.12400581 73.19408322 13.81982422 75.61987305 C15.61322964 76.80472367 17.38213515 78.02109127 19.15234375 79.24023438 C25.71490689 83.8665665 25.71490689 83.8665665 33.3046875 85.83984375 C38.46007337 84.42907478 40.85950709 78.93563948 43.35546875 74.59375 C44.07117355 73.31298078 44.78601477 72.03172861 45.5 70.75 C46.21227303 69.51413983 46.92709894 68.2797473 47.64453125 67.046875 C49.06858823 64.59485529 50.47778423 62.13510662 51.87890625 59.66992188 C54.60620516 54.90508066 57.52560812 50.26303696 60.45117188 45.61816406 C63.14669648 41.06160577 63.20486896 36.98408631 63.31640625 31.83203125 C63.3475779 30.63981209 63.3475779 30.63981209 63.37937927 29.42350769 C63.44472087 26.88659237 63.50368808 24.34957427 63.5625 21.8125 C63.60569986 20.09178628 63.64931463 18.37108292 63.69335938 16.65039062 C63.80038648 12.43369887 63.90169724 8.2169038 64 4 C69.7112319 7.71659951 75.22421542 11.57788688 80.5625 15.8125 C81.50319336 16.54629883 81.50319336 16.54629883 82.46289062 17.29492188 C83.99620372 18.50384812 85.50121382 19.7485242 87 21 C87 21.33 87 21.66 87 22 C84.69 22 82.38 22 80 22 C80.18067017 23.04728271 80.18067017 23.04728271 80.36499023 24.11572266 C83.7401372 47.30894499 76.32344636 63.20509489 65.09350586 83.24462891 C64.56370117 84.20565521 64.03389648 85.16668152 63.48803711 86.15682983 C62.48344618 87.96399298 61.45328959 89.75728243 60.39306641 91.53237915 C56.73623804 98.05348312 56.65828059 102.72640193 58 110 C58.18892822 111.26328125 58.37785645 112.5265625 58.57250977 113.828125 C58.77674561 114.95734375 58.98098145 116.0865625 59.19140625 117.25 C59.41376953 118.5184375 59.63613281 119.786875 59.86523438 121.09375 C60.33019923 123.69859515 60.7989522 126.30276696 61.27148438 128.90625 C61.49255859 130.1746875 61.71363281 131.443125 61.94140625 132.75 C62.14451416 133.87921875 62.34762207 135.0084375 62.55688477 136.171875 C63.71580228 146.18390069 62.94714354 152.7414688 58.1875 161.69921875 C57.69918701 162.6602803 57.21087402 163.62134186 56.70776367 164.61152649 C55.15903547 167.64791157 53.58029275 170.6674439 52 173.6875 C50.93807281 175.75611992 49.87815622 177.82577329 48.8203125 179.89648438 C46.23666399 184.94316951 43.6282574 189.97641556 41 195 C41.93730957 195.3079248 42.87461914 195.61584961 43.84033203 195.93310547 C46.60857406 196.86783099 49.21795349 197.91725159 51.875 199.125 C52.65617187 199.47820312 53.43734375 199.83140625 54.2421875 200.1953125 C54.82226562 200.46085938 55.40234375 200.72640625 56 201 C56.4014624 199.77228882 56.4014624 199.77228882 56.81103516 198.51977539 C68.92933188 162.64513804 86.87926443 145.21499449 119.9831543 127.19255066 C124.46071167 124.6445203 124.46071167 124.6445203 126.94140625 120.34301758 C127.24884766 118.75976685 127.24884766 118.75976685 127.5625 117.14453125 C127.91900635 115.38447754 127.91900635 115.38447754 128.28271484 113.58886719 C128.51941895 112.34266602 128.75612305 111.09646484 129 109.8125 C129.51094988 107.27171807 130.02396217 104.73135 130.5390625 102.19140625 C130.7855957 100.95922363 131.03212891 99.72704102 131.28613281 98.45751953 C132.63681541 91.91567037 134.29537064 85.45753712 136 79 C134.35 79 132.7 79 131 79 C131 78.67 131 78.34 131 78 C137.93 78 144.86 78 152 78 C151.20923988 82.29183546 150.41741929 86.58347083 149.625 90.875 C149.40328125 92.07898438 149.1815625 93.28296875 148.953125 94.5234375 C147.81424083 100.68681065 146.65199278 106.84169952 145.38183594 112.97949219 C144.59931738 117.12023617 144.19944272 119.78315294 146.5625 123.375 C150.42088352 125.94725568 154.1616807 125.31762179 158.56323242 124.55712891 C161.48926322 123.95044121 164.40093466 123.29762639 167.3125 122.625 C169.28758015 122.17888866 171.26283943 121.73356959 173.23828125 121.2890625 C174.19814941 121.07282227 175.15801758 120.85658203 176.14697266 120.63378906 C178.92160263 120.01741568 181.69773431 119.41463195 184.48046875 118.8359375 C185.25672607 118.67399902 186.0329834 118.51206055 186.83276367 118.34521484 C189 118 189 118 193 118 C193.33 117.34 193.66 116.68 194 116 C194.67126129 118.4363189 195.33716354 120.87388883 196 123.3125 C196.28617187 124.34793945 196.28617187 124.34793945 196.578125 125.40429688 C197.37716184 128.35787949 198 130.92559219 198 134 C195.85662094 134.5717807 193.70999882 135.13139232 191.5625 135.6875 C190.86527832 135.87046631 190.16805664 136.05343262 189.44970703 136.24194336 C184.9421275 137.38451301 180.4592101 138.27854722 175.86328125 138.9921875 C163.02396154 141.05227844 154.08824366 143.318746 144.671875 152.42919922 C141.58569531 155.32880204 138.23924985 157.91494028 134.9375 160.5625 C134.27000732 161.11284912 133.60251465 161.66319824 132.91479492 162.23022461 C129.76541836 164.82434979 126.60582385 167.31907143 123.23828125 169.625 C122.64861572 170.03935303 122.0589502 170.45370605 121.45141602 170.88061523 C119.87416127 171.97625165 118.27384535 173.0384855 116.671875 174.09765625 C112.65574615 178.46020557 111.54913577 183.35954614 110 189 C109.71382812 190.01312256 109.42765625 191.02624512 109.1328125 192.07006836 C108.27104778 195.1862355 107.44325363 198.30964031 106.625 201.4375 C104.91075382 207.95350641 103.19618384 214.45771162 101.21484375 220.8984375 C100.93624512 221.81568604 100.65764648 222.73293457 100.37060547 223.67797852 C99.85460553 225.36020067 99.32500761 227.03835182 98.77783203 228.71069336 C94.94012663 241.33403112 97.3356429 255.36189074 98.3125 268.328125 C98.44752538 270.17124815 98.58203728 272.01440898 98.71606445 273.85760498 C99.0672571 278.67444747 99.42346935 283.49090288 99.78137207 288.30725098 C100.35493642 296.02747194 100.92394934 303.74801549 101.48690796 311.46901703 C101.68348862 314.14844909 101.88418981 316.82755034 102.08520508 319.50665283 C102.20671628 321.16230011 102.32806277 322.8179595 102.44921875 324.47363281 C102.50532318 325.20631378 102.56142761 325.93899475 102.61923218 326.69387817 C102.98779582 331.80693597 103.04448403 336.87353107 103 342 C98.05 342 93.1 342 88 342 C88 331.44 88 320.88 88 310 C82.72 310 77.44 310 72 310 C72 320.56 72 331.12 72 342 C66.72 342 61.44 342 56 342 C54.53697749 287.40192926 54.53697749 287.40192926 63 264 C61.62714844 263.69255859 61.62714844 263.69255859 60.2265625 263.37890625 C59.03804688 263.10949219 57.84953125 262.84007812 56.625 262.5625 C54.84996094 262.16224609 54.84996094 262.16224609 53.0390625 261.75390625 C50 261 50 261 48 260 C47.82984375 261.65902344 47.82984375 261.65902344 47.65625 263.3515625 C47.01601347 268.46669166 45.78146516 273.38826985 44.5 278.375 C44.16162109 279.72658203 44.16162109 279.72658203 43.81640625 281.10546875 C42.1409337 287.7181326 42.1409337 287.7181326 41 290 C40.88112044 291.66399283 40.82288056 293.33249275 40.79467773 295.00048828 C40.77473251 296.04141632 40.75478729 297.08234436 40.73423767 298.15481567 C40.71752518 299.28192963 40.70081268 300.40904358 40.68359375 301.5703125 C40.6524221 303.29735916 40.6524221 303.29735916 40.62062073 305.05929565 C40.55508335 308.7478014 40.49622072 312.43638003 40.4375 316.125 C40.39431877 318.62110138 40.35070462 321.1171953 40.30664062 323.61328125 C40.19939765 329.74211226 40.09814199 335.87101677 40 342 C34.72 342 29.44 342 24 342 C24 331.44 24 320.88 24 310 C18.72 310 13.44 310 8 310 C8 320.56 8 331.12 8 342 C0.41 342 -7.18 342 -15 342 C-14.46888193 337.94700188 -13.93644391 333.89420705 -13.40087891 329.84179688 C-13.21980587 328.46884667 -13.03944382 327.09580247 -12.85986328 325.72265625 C-11.85303463 318.02801049 -10.77060028 310.35812467 -9.45996094 302.70800781 C-8.77020023 298.64705994 -8.16490074 294.57466571 -7.5625 290.5 C-7.30341252 288.76041263 -7.04429714 287.02082942 -6.78515625 285.28125 C-6.65512207 284.40597656 -6.52508789 283.53070313 -6.39111328 282.62890625 C-5.76473911 278.41867086 -5.13215085 274.2093712 -4.5 270 C-4.24996814 268.33333811 -3.99996819 266.66667144 -3.75 265 C-3.25 261.66666667 -2.75 258.33333333 -2.25 255 C-2.12633057 254.1754834 -2.00266113 253.3509668 -1.87524414 252.50146484 C-1.62449397 250.82990582 -1.37367987 249.15835638 -1.12280273 247.48681641 C-0.50876339 243.39507789 0.10427157 239.30319492 0.71484375 235.2109375 C0.8336792 234.41606934 0.95251465 233.62120117 1.07495117 232.80224609 C1.31682646 231.18290327 1.55787349 229.56343653 1.7980957 227.94384766 C2.52624988 223.06126712 3.28901136 218.1856228 4.078125 213.3125 C4.26189697 212.16217285 4.44566895 211.0118457 4.63500977 209.82666016 C4.99370578 207.58572148 5.35842885 205.34573615 5.73022461 203.10693359 C5.89530518 202.06875488 6.06038574 201.03057617 6.23046875 199.9609375 C6.37895264 199.05134277 6.52743652 198.14174805 6.68041992 197.20458984 C7.7022961 186.9577245 6.47700715 176.74206123 5.5390625 166.53125 C5.38667633 164.84316091 5.23453019 163.15505013 5.08261108 161.46691895 C4.7644349 157.9433252 4.44294294 154.42005368 4.11914062 150.89697266 C3.70669712 146.40586469 3.30322032 141.9140036 2.90232277 137.42185211 C2.59046442 133.94000932 2.27347949 130.45864719 1.95502853 126.97740173 C1.80429908 125.32232984 1.65519799 123.66710873 1.50783157 122.01173401 C1.16719323 107.51741227 1.16719323 107.51741227 -3.85327148 94.61816406 C-4.60165283 94.08932617 -5.35003418 93.56048828 -6.12109375 93.015625 C-6.96414062 92.39816406 -7.8071875 91.78070313 -8.67578125 91.14453125 C-10.04283203 90.20673828 -10.04283203 90.20673828 -11.4375 89.25 C-12.85289062 88.22712891 -12.85289062 88.22712891 -14.296875 87.18359375 C-16.24432952 85.77840234 -18.1999795 84.38450069 -20.16357422 83.00195312 C-24.32370405 80.06572791 -28.40827675 77.03037404 -32.5 74 C-34.0416114 72.86841429 -35.58327882 71.73690489 -37.125 70.60546875 C-42.61975415 66.55580774 -48.06501034 62.44189846 -53.5 58.3125 C-54.40298828 57.62865234 -55.30597656 56.94480469 -56.23632812 56.24023438 C-57.07615234 55.60021484 -57.91597656 54.96019531 -58.78125 54.30078125 C-59.52439453 53.73528564 -60.26753906 53.16979004 -61.03320312 52.5871582 C-62.81587327 51.14858588 -64.4188556 49.65451899 -66 48 C-65.15695313 47.16855469 -64.31390625 46.33710938 -63.4453125 45.48046875 C-62.33840925 44.38294603 -61.2316457 43.28528241 -60.125 42.1875 C-59.56941406 41.64029297 -59.01382813 41.09308594 -58.44140625 40.52929688 C-57.90644531 39.99755859 -57.37148437 39.46582031 -56.8203125 38.91796875 C-56.08192139 38.18743286 -56.08192139 38.18743286 -55.32861328 37.44213867 C-53.77411511 35.82996499 -53.77411511 35.82996499 -52 33 C-51.34 33.33 -50.68 33.66 -50 34 C-50 35.32 -50 36.64 -50 38 C-47.94948829 39.95782852 -47.94948829 39.95782852 -45.1796875 41.671875 C-44.1690625 42.33574219 -43.1584375 42.99960938 -42.1171875 43.68359375 C-40.51230469 44.70646484 -40.51230469 44.70646484 -38.875 45.75 C-37.82828125 46.44738281 -36.7815625 47.14476562 -35.703125 47.86328125 C-34.68476563 48.52199219 -33.66640625 49.18070313 -32.6171875 49.859375 C-31.68503418 50.46233398 -30.75288086 51.06529297 -29.79248047 51.68652344 C-26.56665286 53.20383001 -24.52521496 53.39930994 -21 53 C-17.75150023 51.27773504 -17.75150023 51.27773504 -17 48 C-16.88705254 46.60420727 -16.82410813 45.20400091 -16.79467773 43.80395508 C-16.7647599 42.54298759 -16.7647599 42.54298759 -16.73423767 41.25654602 C-16.70916893 39.90172371 -16.70916893 39.90172371 -16.68359375 38.51953125 C-16.66281265 37.59154221 -16.64203156 36.66355316 -16.62062073 35.70744324 C-16.55522677 32.7425376 -16.49628738 29.77754328 -16.4375 26.8125 C-16.39430513 24.8027252 -16.35069053 22.79295937 -16.30664062 20.78320312 C-16.19955573 15.85555968 -16.09825955 10.92782701 -16 6 C-17.65 6 -19.3 6 -21 6 C-17.17100768 3.76893361 -13.07920803 2.89900993 -8.8125 1.875 C-8.07580078 1.69324219 -7.33910156 1.51148438 -6.58007812 1.32421875 C-1.16870301 0 -1.16870301 0 0 0 Z " fill="#BA8B5B" transform="translate(200,138)"/>
<path d="M0 0 C5.28 0 10.56 0 16 0 C16.13919879 4.60644884 16.25813562 9.20536368 16.32958984 13.81225586 C16.35942317 15.37273108 16.40010674 16.93304379 16.45263672 18.49291992 C16.81547988 29.5596362 15.71953314 37.23853448 10 47 C11.07507813 47.34675781 12.15015625 47.69351563 13.2578125 48.05078125 C17.60789935 49.91963455 19.04530642 53.00073056 20.875 57.1875 C24.07572557 63.84248189 27.67062282 68.88984428 34 73 C34.66 73 35.32 73 36 73 C37.32 67.06 38.64 61.12 40 55 C41.711875 55.144375 43.42375 55.28875 45.1875 55.4375 C46.15042969 55.51871094 47.11335938 55.59992188 48.10546875 55.68359375 C50.78814012 55.97684123 53.35980785 56.45328372 56 57 C54.54260618 65.13542991 53.033153 73.26052837 51.45043945 81.37255859 C51.18987108 82.71754399 50.93308846 84.06326787 50.67993164 85.40966797 C50.30762756 87.38686262 49.92155515 89.36144898 49.53515625 91.3359375 C49.20076538 93.07689697 49.20076538 93.07689697 48.85961914 94.85302734 C47.42076753 100.12050738 45.22312596 103.23399325 40.66796875 106.21386719 C39.79696533 106.79086365 38.92596191 107.36786011 38.02856445 107.96234131 C36.62223755 108.87043549 36.62223755 108.87043549 35.1875 109.796875 C34.22223389 110.43111389 33.25696777 111.06535278 32.26245117 111.71881104 C30.2247472 113.05494758 28.18372558 114.38603627 26.13964844 115.71240234 C23.00514918 117.74665824 19.88073776 119.79568694 16.7578125 121.84765625 C14.77661176 123.14410078 12.79485942 124.43970286 10.8125 125.734375 C9.4061731 126.65461456 9.4061731 126.65461456 7.97143555 127.59344482 C7.10043213 128.15783264 6.22942871 128.72222046 5.33203125 129.30371094 C4.56608643 129.80159119 3.8001416 130.29947144 3.01098633 130.81243896 C1 132 1 132 -2 133 C-2.72073961 134.98115594 -3.37230951 136.98742725 -4 139 C-5.42920177 142.15881608 -7.0048317 145.24280728 -8.5703125 148.3359375 C-9.0114035 149.21528961 -9.45249451 150.09464172 -9.9069519 151.00064087 C-11.30920644 153.79400295 -12.71701416 156.58452311 -14.125 159.375 C-15.07979562 161.27455439 -16.03422675 163.17429203 -16.98828125 165.07421875 C-19.32130391 169.71827638 -21.6588857 174.36001665 -24 179 C-27.84172903 178.29920108 -30.83839253 177.24403589 -34.3125 175.4375 C-35.19550781 174.98246094 -36.07851562 174.52742187 -36.98828125 174.05859375 C-37.98408203 173.53458984 -37.98408203 173.53458984 -39 173 C-37.46540006 167.7976959 -35.17216807 163.25657865 -32.6484375 158.48828125 C-31.78796542 156.82673956 -30.92862574 155.16461104 -30.0703125 153.50195312 C-28.72679152 150.90727211 -27.37723441 148.31671146 -26.0078125 145.7355957 C-18.64496752 132.60461833 -18.64496752 132.60461833 -18 118 C-18.2069628 116.63545705 -18.41185639 115.27059943 -18.61523438 113.90551758 C-19.4792817 108.35342264 -20.49625571 102.83066421 -21.51196289 97.3046875 C-21.94530443 94.92859107 -22.36561885 92.55044127 -22.78515625 90.171875 C-22.92156021 89.45505554 -23.05796417 88.73823608 -23.19850159 87.99969482 C-24.78271583 78.97529483 -22.49209002 73.42642376 -18.125 65.78125 C-5.830558 43.38099361 2.74620789 25.91491953 0 0 Z M-2 71 C-4.97579286 74.36677295 -6.95897858 77.92382622 -7.04907227 82.48364258 C-6.27751792 89.27574588 -5.21713692 95.97279744 -3.9375 102.6875 C-3.75123047 103.68716797 -3.56496094 104.68683594 -3.37304688 105.71679688 C-2.91986013 108.14541301 -2.46213408 110.57307351 -2 113 C2.28832599 111.49479607 5.87952919 109.2581898 9.61328125 106.71875 C10.22769577 106.30459839 10.84211029 105.89044678 11.47514343 105.46374512 C12.76509343 104.5920144 14.05338335 103.71782263 15.34008789 102.84130859 C17.31803409 101.49623662 19.30411104 100.16382347 21.29101562 98.83203125 C22.54478073 97.98252289 23.79805392 97.13228798 25.05078125 96.28125 C25.6475618 95.88224487 26.24434235 95.48323975 26.85920715 95.07214355 C28.2760849 94.09938411 29.64390626 93.05584717 31 92 C31 91.34 31 90.68 31 90 C28.9508379 88.57919556 28.9508379 88.57919556 26.375 87.1875 C18.35243831 82.4776253 13.97275472 77.91545605 8.734375 70.23046875 C8.16203125 69.49441406 7.5896875 68.75835937 7 68 C3.55363143 68 0.81153598 69.11560865 -2 71 Z " fill="#010100" transform="translate(280,160)"/>
<path d="M0 0 C5.28 0 10.56 0 16 0 C15.97268799 1.78092041 15.94537598 3.56184082 15.91723633 5.39672852 C15.83968378 11.30012938 15.81325835 17.20258826 15.82121754 23.10640049 C15.82418909 26.68433303 15.80704551 30.25974921 15.74291992 33.8371582 C15.68170928 37.29417101 15.67466066 40.74755229 15.70416832 44.20493889 C15.70698106 46.15658371 15.65462042 48.10805763 15.60127258 50.05897522 C15.64858214 56.96093736 15.64858214 56.96093736 19.46517944 62.41061401 C24.35928838 65.77250586 24.35928838 65.77250586 30 67 C46.2563019 49.09499503 49.14539482 30.96509242 48.37890625 7.546875 C48.25386719 5.05640625 48.12882812 2.5659375 48 0 C53.28 0 58.56 0 64 0 C64.14951036 5.77991702 64.25775925 11.55868267 64.32958984 17.34008789 C64.35956546 19.30220168 64.40036122 21.26418374 64.45263672 23.22583008 C64.75295501 34.79397278 64.86469028 43.27269548 58 53 C56.84962458 54.93203825 55.74291936 56.88572131 54.63690186 58.84346008 C53.02357988 61.69291893 51.36334386 64.5138817 49.7043457 67.33691406 C48.85307375 68.79042524 48.00678709 70.24686659 47.1652832 71.70605469 C45.93283333 73.84220598 44.68505079 75.96869187 43.43359375 78.09375 C43.0626207 78.74371948 42.69164764 79.39368896 42.30943298 80.06335449 C40.04633225 83.85934 38.18923107 86.41611159 34 88 C28.62639726 87.8704281 25.30697678 86.32144317 20.91796875 83.32421875 C20.37771561 82.95778763 19.83746246 82.59135651 19.28083801 82.21382141 C18.14986514 81.44242657 17.02315398 80.66474901 15.90063477 79.88110352 C14.18495246 78.68572503 12.45444672 77.51468704 10.72070312 76.34570312 C1.52908158 70.0411191 1.52908158 70.0411191 0 66 C-0.24050903 63.0133667 -0.24050903 63.0133667 -0.22705078 59.48730469 C-0.22734283 58.84298492 -0.22763489 58.19866516 -0.22793579 57.53482056 C-0.22654694 55.41369979 -0.21100716 53.2929341 -0.1953125 51.171875 C-0.19158078 49.69785758 -0.18873456 48.22383768 -0.18673706 46.74981689 C-0.17911311 42.87655753 -0.15947535 39.00344895 -0.1373291 35.13024902 C-0.11684394 31.1753951 -0.10772964 27.22051673 -0.09765625 23.265625 C-0.07622819 15.51034007 -0.04105625 7.7552104 0 0 Z " fill="#010100" transform="translate(200,136)"/>
<path d="M0 0 C18.91177584 -0.78799066 34.75494225 2.82006788 49.125 16.03125 C59.84675893 27.28909688 65 40.66243587 65 56 C59.72 56 54.44 56 49 56 C48.7525 54.55625 48.505 53.1125 48.25 51.625 C45.87545623 39.95015979 41.10667745 30.30568521 31.22265625 23.31640625 C24.22558434 19.17227052 16.87467931 16.95525463 8.8125 16.4375 C5.4403125 16.2209375 5.4403125 16.2209375 2 16 C1.34 10.72 0.68 5.44 0 0 Z " fill="#020300" transform="translate(327,144)"/>
<path d="M0 0 C1.72945653 0.14235457 3.45855654 0.28904382 5.1875 0.4375 C6.63189453 0.55931641 6.63189453 0.55931641 8.10546875 0.68359375 C10.78649602 0.97666151 13.3662986 1.42703754 16 2 C15.83564453 2.89525391 15.83564453 2.89525391 15.66796875 3.80859375 C14.07358834 12.53231744 12.5359023 21.26583558 11 30 C11.70608398 29.84853516 12.41216797 29.69707031 13.13964844 29.54101562 C16.34221869 28.85648071 19.5460774 28.17817584 22.75 27.5 C23.86117188 27.26152344 24.97234375 27.02304688 26.1171875 26.77734375 C27.18710937 26.55175781 28.25703125 26.32617188 29.359375 26.09375 C30.83615723 25.77954102 30.83615723 25.77954102 32.34277344 25.45898438 C35 25 35 25 39 25 C39.34328345 26.35167857 39.67402697 27.70654275 40 29.0625 C40.185625 29.81660156 40.37125 30.57070312 40.5625 31.34765625 C41.09765372 34.5920257 41.06427753 37.71782852 41 41 C31.82341159 43.23471324 22.62688126 45.34855033 13.375 47.25 C12.54709961 47.42499023 11.71919922 47.59998047 10.86621094 47.78027344 C-1.04171389 50.18313119 -1.04171389 50.18313119 -6 47.1875 C-10.71769775 39.6686692 -6.1234502 27.79580356 -4.41601562 19.51757812 C-3.99514683 17.47646327 -3.58283826 15.43375516 -3.171875 13.390625 C-1.16508131 3.49524393 -1.16508131 3.49524393 0 0 Z " fill="#030300" transform="translate(352,215)"/>
<path d="M0 0 C5.0302076 0.52537724 10.01885239 1.10594786 15 2 C15.20438841 7.42942885 14.49301224 12.10776162 13.20703125 17.37109375 C13.02057541 18.16289032 12.83411957 18.95468689 12.64201355 19.77047729 C12.24405283 21.45768071 11.84270734 23.14408881 11.43823242 24.82974243 C10.38756693 29.20842058 9.3604485 33.59261512 8.33203125 37.9765625 C8.12885284 38.84011856 7.92567444 39.70367462 7.71633911 40.59339905 C5.79643924 48.78879906 4.05812477 57.0148774 2.40942383 65.26928711 C2.23306396 66.14593018 2.0567041 67.02257324 1.875 67.92578125 C1.72804687 68.67255127 1.58109375 69.41932129 1.4296875 70.1887207 C1 72 1 72 0 74 C-1.54191154 73.85677897 -3.08351892 73.71028211 -4.625 73.5625 C-5.91277344 73.44068359 -5.91277344 73.44068359 -7.2265625 73.31640625 C-10.17296655 72.9802672 -13.07684134 72.49661885 -16 72 C-13.25273067 57.85230815 -10.22708439 43.77885867 -7.0534668 29.72094727 C-6.30020038 26.38299668 -5.55124028 23.04409911 -4.80273438 19.70507812 C-4.32316502 17.57286079 -3.84335663 15.44069721 -3.36328125 13.30859375 C-3.14037918 12.31500351 -2.91747711 11.32141327 -2.68782043 10.29771423 C-2.48057846 9.38147781 -2.27333649 8.46524139 -2.05981445 7.52124023 C-1.87868607 6.71774643 -1.69755768 5.91425262 -1.51094055 5.08641052 C-1 3 -1 3 0 0 Z " fill="#020201" transform="translate(224,359)"/>
<path d="M0 0 C5.28 0 10.56 0 16 0 C16.07425639 5.88986463 16.12865268 11.77945566 16.16479492 17.66967773 C16.17986465 19.67265572 16.2003241 21.6756008 16.22631836 23.6784668 C16.26278127 26.56046681 16.27974461 29.44202984 16.29296875 32.32421875 C16.30845261 33.21711105 16.32393646 34.11000336 16.33988953 35.029953 C16.34118487 39.83473067 16.18191753 43.12280859 13 47 C10.15843189 48.42078405 8.15907096 48.2656762 5 48 C2.11572266 46.59472656 2.11572266 46.59472656 -0.8359375 44.640625 C-2.43115234 43.58488281 -2.43115234 43.58488281 -4.05859375 42.5078125 C-4.87432861 41.9514209 -4.87432861 41.9514209 -5.70654297 41.38378906 C-7.37845385 40.24765296 -9.06816143 39.14259681 -10.76171875 38.0390625 C-11.81746094 37.33007812 -12.87320313 36.62109375 -13.9609375 35.890625 C-14.92821777 35.24125977 -15.89549805 34.59189453 -16.89208984 33.92285156 C-17.5877002 33.28831055 -18.28331055 32.65376953 -19 32 C-19 27.39503026 -18.15917792 26.35888432 -15.5 22.75 C-14.8503125 21.85796875 -14.200625 20.9659375 -13.53125 20.046875 C-13.0259375 19.37140625 -12.520625 18.6959375 -12 18 C-7.66265425 19.53082791 -5.04042344 21.30638437 -1 24 C-0.67 16.08 -0.34 8.16 0 0 Z " fill="#010100" transform="translate(168,144)"/>
<path d="M0 0 C2.16546552 1.84937361 3.52791963 3.74594458 5.04296875 6.15625 C5.82414062 7.38214844 5.82414062 7.38214844 6.62109375 8.6328125 C7.0078125 9.25929688 7.39453125 9.88578125 7.79296875 10.53125 C6.3757718 13.97221903 4.81900604 15.51100055 1.73046875 17.546875 C0.93382812 18.07539063 0.1371875 18.60390625 -0.68359375 19.1484375 C-1.51632812 19.68726563 -2.3490625 20.22609375 -3.20703125 20.78125 C-4.03976562 21.33554687 -4.8725 21.88984375 -5.73046875 22.4609375 C-11.9261661 26.53125 -11.9261661 26.53125 -14.20703125 26.53125 C-14.31917969 27.21574219 -14.43132812 27.90023438 -14.546875 28.60546875 C-15.31474518 32.00863305 -16.49117073 35.09868098 -17.76953125 38.34375 C-18.22457031 39.50519531 -18.67960937 40.66664063 -19.1484375 41.86328125 C-19.67244141 43.18392578 -19.67244141 43.18392578 -20.20703125 44.53125 C-25.43975758 42.89166242 -30.35899761 41.14172965 -35.20703125 38.53125 C-33.67134441 29.03621066 -30.12769318 17.84468993 -22.14453125 12.03125 C-20.18028081 10.839641 -18.19960945 9.67486004 -16.20703125 8.53125 C-14.97340645 7.69522321 -13.74714091 6.84826333 -12.52734375 5.9921875 C-11.27531807 5.1293683 -10.02272098 4.26737763 -8.76953125 3.40625 C-8.17841553 2.99052734 -7.5872998 2.57480469 -6.97827148 2.14648438 C-2.81289246 -0.59742849 -2.81289246 -0.59742849 0 0 Z " fill="#040302" transform="translate(316.20703125,282.46875)"/>
<path d="M0 0 C1.37691552 0.43143353 2.75143619 0.87051164 4.125 1.3125 C4.89070313 1.55613281 5.65640625 1.79976563 6.4453125 2.05078125 C9.41921973 3.15576513 12.18416143 4.54310961 15 6 C13.02289408 11.34206266 11.01872984 16.67353086 9 22 C8.62536621 22.98967773 8.25073242 23.97935547 7.86474609 24.99902344 C6.66799334 28.1483728 5.46030994 31.29333858 4.25 34.4375 C3.86142822 35.46238525 3.47285645 36.48727051 3.07250977 37.54321289 C2.51841431 38.97395142 2.51841431 38.97395142 1.953125 40.43359375 C1.62473633 41.29009521 1.29634766 42.14659668 0.95800781 43.02905273 C0 45 0 45 -2 46 C-4.78515625 45.14453125 -4.78515625 45.14453125 -8.0625 43.8125 C-9.14660156 43.38582031 -10.23070312 42.95914063 -11.34765625 42.51953125 C-14 41 -14 41 -14.73800659 39.13223267 C-15.18610036 35.48542269 -13.4504873 32.33068966 -12.0703125 29.0234375 C-11.7605246 28.25697906 -11.45073669 27.49052063 -11.13156128 26.70083618 C-10.13980725 24.25449297 -9.13256291 21.81486861 -8.125 19.375 C-7.45341933 17.72436799 -6.78283446 16.07333045 -6.11328125 14.421875 C-1.33577679 2.67155359 -1.33577679 2.67155359 0 0 Z " fill="#030201" transform="translate(272,341)"/>
<path d="M0 0 C2.90512869 10.61608198 5.53195876 21.27452292 8 32 C6.27318563 32.50806447 4.54342021 33.00610467 2.8125 33.5 C1.84957031 33.7784375 0.88664063 34.056875 -0.10546875 34.34375 C-2.85345876 34.96677608 -5.19598416 35.12302812 -8 35 C-8.79298919 32.167031 -9.58442272 29.33364215 -10.375 26.5 C-10.59671875 25.70851563 -10.8184375 24.91703125 -11.046875 24.1015625 C-11.70598583 21.73651776 -12.35408706 19.3686792 -13 17 C-13.20141602 16.28457031 -13.40283203 15.56914062 -13.61035156 14.83203125 C-14.7019824 10.78895408 -15.2092518 7.18503608 -15 3 C-13.0636296 2.49564306 -11.12585854 1.99666126 -9.1875 1.5 C-8.10855469 1.2215625 -7.02960938 0.943125 -5.91796875 0.65625 C-3 0 -3 0 0 0 Z " fill="#040302" transform="translate(232,286)"/>
<path d="M0 0 C3.04293103 10.60816272 5.85784618 21.16731971 8 32 C6.27318563 32.50806447 4.54342021 33.00610467 2.8125 33.5 C1.84957031 33.7784375 0.88664063 34.056875 -0.10546875 34.34375 C-2.86560149 34.96952908 -5.18710708 35.04974903 -8 35 C-9.17665228 30.60677739 -10.33957098 26.21003315 -11.5 21.8125 C-11.83386719 20.56662109 -12.16773438 19.32074219 -12.51171875 18.03710938 C-12.98544922 16.2340332 -12.98544922 16.2340332 -13.46875 14.39453125 C-13.76201172 13.28956299 -14.05527344 12.18459473 -14.35742188 11.04614258 C-14.94723233 8.25014522 -15.12958035 5.84382579 -15 3 C-13.0636296 2.49564306 -11.12585854 1.99666126 -9.1875 1.5 C-8.10855469 1.2215625 -7.02960938 0.943125 -5.91796875 0.65625 C-3 0 -3 0 0 0 Z " fill="#040302" transform="translate(240,238)"/>
<path d="M0 0 C5.28 0 10.56 0 16 0 C16 5.28 16 10.56 16 16 C10.72 16 5.44 16 0 16 C0 10.72 0 5.44 0 0 Z " fill="#000000" transform="translate(272,416)"/>
</svg>
