<svg xmlns="http://www.w3.org/2000/svg"  viewBox="0 0 64 64" width="64px" height="64px"><rect width="50" height="50" x="7" y="7" fill="#b5c4e0" rx="6" ry="6"/><path fill="#ced8ed" d="M11,7H53a4,4,0,0,1,4,4v0a3,3,0,0,1-3,3H10a3,3,0,0,1-3-3v0a4,4,0,0,1,4-4Z"/><path fill="#faefde" d="M34,50.26c-7.32,0-7.32-6.2-7.32-8.53V33.26H23a1,1,0,0,1-1-1V28.45a1,1,0,0,1,.68-.95c4.6-1.58,4.77-3.36,4.94-5.26,0-.17,0-.33,0-.49v-.92a1,1,0,0,1,1-1h4.7a1,1,0,0,1,1,1v6.53H39a1,1,0,0,1,1,1v3.8a1,1,0,0,1-1,1H34.36v8.47a1.86,1.86,0,0,0,1.83,1.83,2.71,2.71,0,0,0,2.13-.68,1,1,0,0,1,1.68.46l1,3.89a1,1,0,0,1-.14.8c-.79,1.19-4.33,2.31-6.5,2.31Z"/><path fill="#8d6c9f" d="M51,6H13a7,7,0,0,0-7,7V51a7,7,0,0,0,7,7H51a7,7,0,0,0,7-7V13A7,7,0,0,0,51,6Zm5,45a5,5,0,0,1-5,5H13a5,5,0,0,1-5-5V13a5,5,0,0,1,5-5H51a5,5,0,0,1,5,5Z"/><path fill="#8d6c9f" d="M41 43a2 2 0 0 0-3.35-.93c-.35.35-.72.39-1.42.39s-.83-.83-.83-.83V34.18H39a2 2 0 0 0 2-2v-3.8a2 2 0 0 0-2-2H35.36V20.84a2 2 0 0 0-2-2h-4.7a2 2 0 0 0-2 2v.86c0 .15 0 .3 0 .45-.16 1.76-.28 3-4.27 4.4A2 2 0 0 0 21 28.45v3.8a2 2 0 0 0 2 2h2.7v7.47c0 6.33 2.8 9.53 8.32 9.53h.35c2.19 0 6.2-1.1 7.3-2.75a2 2 0 0 0 .28-1.59zm-6.64 6.23H34c-5.93 0-6.32-4.43-6.32-7.53V32.26H23v-3.8c5.67-1.94 5.42-4.45 5.67-6.64v-1h4.7v7.53H39v3.8H33.36v9.47a2.86 2.86 0 0 0 2.83 2.83 3.66 3.66 0 0 0 2.83-1l1 3.89C39.51 48.12 36.44 49.26 34.33 49.26zM17 12a1 1 0 0 0-1 1v2a1 1 0 0 0 2 0V13A1 1 0 0 0 17 12zM12 12a1 1 0 0 0-1 1v2a1 1 0 0 0 2 0V13A1 1 0 0 0 12 12zM32 16a1 1 0 0 0 1-1V13a1 1 0 0 0-2 0v2A1 1 0 0 0 32 16zM37 16a1 1 0 0 0 1-1V13a1 1 0 0 0-2 0v2A1 1 0 0 0 37 16zM42 12a1 1 0 0 0-1 1v2a1 1 0 0 0 2 0V13A1 1 0 0 0 42 12zM47 12a1 1 0 0 0-1 1v2a1 1 0 0 0 2 0V13A1 1 0 0 0 47 12zM52 12a1 1 0 0 0-1 1v2a1 1 0 0 0 2 0V13A1 1 0 0 0 52 12zM22 16a1 1 0 0 0 1-1V13a1 1 0 0 0-2 0v2A1 1 0 0 0 22 16zM27 16a1 1 0 0 0 1-1V13a1 1 0 0 0-2 0v2A1 1 0 0 0 27 16z"/></svg>