<?xml version="1.0" encoding="UTF-8"?>
<svg version="1.1" xmlns="http://www.w3.org/2000/svg" width="512" height="512">
<path d="M0 0 C1.82341502 -0.01173486 1.82341502 -0.01173486 3.68366671 -0.02370679 C5.02930871 -0.01722089 6.37494938 -0.01045093 7.72058868 -0.00342751 C9.15264985 -0.00688422 10.58470836 -0.01164888 12.0167613 -0.01760924 C15.95222993 -0.03014712 19.88748066 -0.02393625 23.82295012 -0.01465058 C28.06704809 -0.00787182 32.31110819 -0.01833549 36.55519867 -0.02659035 C44.86947691 -0.03994242 53.18367399 -0.03704339 61.49795544 -0.02835242 C68.25409368 -0.02158208 75.01020914 -0.02065634 81.76634979 -0.02392387 C82.72727908 -0.02438357 83.68820836 -0.02484327 84.67825672 -0.0253169 C86.6302594 -0.02627606 88.58226208 -0.0272487 90.53426474 -0.02823468 C108.84571648 -0.03679289 127.15712319 -0.02694767 145.46856755 -0.01083358 C161.18658966 0.00256999 176.90454531 0.00024202 192.62256622 -0.01358986 C210.86771314 -0.02963806 229.11282058 -0.03596887 247.35797358 -0.02675307 C249.30286566 -0.0257974 251.24775775 -0.02485429 253.19264984 -0.02392387 C254.62810149 -0.02322963 254.62810149 -0.02322963 256.09255216 -0.02252137 C262.84194127 -0.0199292 269.59130537 -0.02430737 276.34069061 -0.03136253 C284.5639845 -0.03976929 292.78719245 -0.03751478 301.01047647 -0.0215203 C305.20753102 -0.01362646 309.4044422 -0.01056489 313.60149574 -0.02046776 C317.44190278 -0.0293922 321.28203326 -0.0245192 325.12241513 -0.0085351 C326.51332515 -0.00517772 327.90425843 -0.00690283 329.29515356 -0.01416247 C331.18308622 -0.02326217 333.07108414 -0.01214997 334.95899963 0 C336.00849431 0.00048706 337.05798898 0.00097411 338.13928652 0.00147593 C342.36070493 0.56039656 345.00565971 2.25123318 347.76674652 5.44455528 C349.54032465 9.73384326 349.40567926 13.70570175 349.38355255 18.30501366 C349.39384743 19.79857887 349.39384743 19.79857887 349.40435028 21.32231712 C349.42263628 24.61039595 349.41877809 27.89799846 349.41309357 31.18611717 C349.4176545 33.47388426 349.4229598 35.76164997 349.42897797 38.04941368 C349.43791263 42.84349192 349.43548179 47.6374036 349.42554474 52.4314785 C349.41405493 58.57293545 349.43426547 64.71381745 349.46346188 70.85519886 C349.48181401 75.57957164 349.48153333 80.30380639 349.47582436 85.02820587 C349.47567102 87.29240856 349.4817254 89.55662054 349.49411583 91.82078934 C349.50900481 94.98777195 349.49836331 98.15368922 349.4812088 101.32063866 C349.49087677 102.25433784 349.50054474 103.18803703 349.51050568 104.15003014 C349.44752851 109.70659596 348.76971324 113.01742308 344.97949982 117.37752342 C339.27380798 120.78959198 334.01363579 120.8178126 327.47949982 120.77596092 C325.98773224 120.78026619 325.98773224 120.78026619 324.46582794 120.78465843 C322.37142108 120.7866922 320.27699492 120.78121066 318.18262482 120.7686367 C314.98948158 120.75257364 311.79760401 120.76850925 308.60449982 120.78767967 C306.56283038 120.78569712 304.52116172 120.78185319 302.47949982 120.77596092 C301.53139435 120.78203362 300.58328888 120.78810631 299.60645294 120.79436302 C292.72332063 120.72186592 287.96228193 119.91819952 282.56641388 115.3221035 C280.2284048 110.98383773 280.48146945 107.11630098 280.58887482 102.26424217 C280.5949173 100.97435387 280.5949173 100.97435387 280.60108185 99.65840721 C280.62193692 96.46039413 280.67778251 93.26268631 280.72949982 90.06502342 C280.81199982 82.90814842 280.89449982 75.75127342 280.97949982 68.37752342 C259.85949982 68.37752342 238.73949982 68.37752342 216.97949982 68.37752342 C217.30949982 143.28752342 217.63949982 218.19752342 217.97949982 295.37752342 C243.05949982 301.97752342 268.13949982 308.57752342 293.97949982 315.37752342 C305.61832461 320.03305334 314.28320537 325.9470854 319.97949982 337.37752342 C322.7594422 344.59402693 323.5983207 352.15553891 324.45215607 359.79939842 C324.99729325 363.49825518 325.87796795 366.81239954 326.97949982 370.37752342 C327.849617 370.21703514 327.849617 370.21703514 328.73731232 370.05330467 C329.51848419 369.93342186 330.29965607 369.81353905 331.10449982 369.69002342 C331.87020294 369.56240623 332.63590607 369.43478905 333.42481232 369.30330467 C340.80799922 369.51780093 345.49551207 375.50387452 350.29199982 380.44002342 C351.0196756 381.17285545 351.74735138 381.90568748 352.49707794 382.66072655 C357.82456545 388.06765469 357.82456545 388.06765469 358.97949982 390.37752342 C358.86106596 392.24439452 358.72671976 394.11027146 358.58374786 395.97542381 C358.55657777 400.67164944 358.95729969 403.20613188 362.05298615 406.78157616 C363.44246191 408.15580805 364.86406428 409.49810686 366.31153107 410.81111717 C367.05908157 411.53694496 367.80663208 412.26277275 368.57683563 413.01059532 C370.95503884 415.30888106 373.37079696 417.56216398 375.79199982 419.81502342 C378.19319531 422.10113103 380.58588876 424.39573431 382.97502899 426.69443321 C384.45975684 428.11725298 385.95301939 429.53123468 387.4557724 430.93500328 C396.30489237 439.27847422 396.30489237 439.27847422 396.72949982 445.56502342 C396.470607 449.81747564 395.21797437 451.69724511 392.32324982 454.77205467 C391.50695099 455.64257469 390.69065216 456.51309471 389.849617 457.40999413 C388.89456794 458.40077016 387.93775199 459.38984501 386.97949982 460.37752342 C386.45150787 460.9246801 385.92351593 461.47183678 385.37952423 462.03557396 C381.82015407 465.71522797 378.22662526 469.35929036 374.61231232 472.9849453 C372.71186246 474.89525226 370.82234071 476.81597979 368.93262482 478.73689842 C367.71453151 479.9615103 366.4958045 481.18549226 365.27637482 482.40877342 C364.71794891 482.97954613 364.15952301 483.55031883 363.58417511 484.13838768 C359.29911424 488.39923733 356.31989202 490.25852043 350.29199982 490.56502342 C341.89342171 489.16768971 335.10631081 479.53443984 329.44824982 473.59236717 C327.7121301 471.7821962 325.97552113 469.97249585 324.23877716 468.16292381 C323.05785383 466.92251184 321.88506383 465.67430953 320.72022247 464.41878319 C314.372101 457.05663571 314.372101 457.05663571 306.08496857 452.6436367 C303.49588053 452.62046329 303.49588053 452.62046329 301.18067169 453.11800194 C298.21031361 453.46821164 296.62185547 452.74367641 293.97949982 451.37752342 C291.86719513 449.62166405 291.86719513 449.62166405 289.80762482 447.53377342 C289.06125763 446.78224998 288.31489044 446.03072655 287.54590607 445.25642967 C286.781492 444.47139061 286.01707794 443.68635155 285.22949982 442.87752342 C284.449617 442.09248436 283.66973419 441.3074453 282.86621857 440.49861717 C277.13412394 434.68677166 277.13412394 434.68677166 275.97949982 432.37752342 C276.06653086 429.84056838 276.23879482 427.3186521 276.43262482 424.78767967 C276.2034287 422.22985155 276.2034287 422.22985155 274.06934357 420.65096092 C269.86816886 418.91950333 265.78241364 418.46872207 261.29199982 417.94002342 C248.8142664 416.25220866 236.84504686 412.87469175 228.66699982 402.56502342 C223.6808349 395.78204232 221.26346522 387.57423688 219.18262482 379.52986717 C218.94412811 378.63256386 218.70563141 377.73526054 218.45990753 376.81076622 C217.7093929 373.98065821 216.9692805 371.14795394 216.22949982 368.31502342 C215.71847019 366.38059645 215.20675765 364.44634975 214.69434357 362.51228905 C213.44816571 357.80274561 212.21130083 353.09084666 210.97949982 348.37752342 C210.56033001 358.95604299 210.24160046 369.5325556 210.04688072 380.11772156 C209.95335805 385.03480188 209.82684865 389.94616011 209.62158966 394.8599453 C207.46608523 417.10629723 207.46608523 417.10629723 214.82032013 436.97420311 C218.46075096 440.17812643 222.32369673 442.42157041 226.76465607 444.33757591 C228.99000038 445.38245381 230.64695705 446.58896337 232.5503006 448.13142967 C236.34422176 450.95267348 239.5940406 451.06470063 244.21387482 450.97908592 C244.97371674 450.98709221 245.73355865 450.9950985 246.51642609 451.0033474 C248.92134004 451.02626283 251.32454299 451.01700239 253.72949982 451.00252342 C256.14841459 450.99867395 258.56658915 451.00209191 260.98542023 451.02312279 C262.48452054 451.03520425 263.98382989 451.03255462 265.48285675 451.0134182 C270.52442889 451.04060557 270.52442889 451.04060557 272.67336273 452.63159752 C274.30520005 454.81289003 274.34387088 455.96067912 274.32007599 458.66536522 C274.3198494 459.52603096 274.3196228 460.3866967 274.31938934 461.27344322 C274.29616356 462.6610762 274.29616356 462.6610762 274.27246857 464.07674217 C274.26822372 465.02692726 274.26397888 465.97711235 274.25960541 466.95609093 C274.24280466 469.9926893 274.20514974 473.02862544 274.16699982 476.06502342 C274.15195479 478.12295655 274.13826607 480.18090007 274.12598419 482.23885155 C274.09289652 487.2853309 274.04110444 492.33131486 273.97949982 497.37752342 C275.15512482 497.52641014 275.15512482 497.52641014 276.35449982 497.67830467 C278.97949982 498.37752342 278.97949982 498.37752342 280.97949982 501.56502342 C281.97949982 505.37752342 281.97949982 505.37752342 280.79199982 508.75252342 C278.97949982 511.37752342 278.97949982 511.37752342 276.97949982 512.37752342 C275.33921306 512.4766736 273.69493051 512.51258588 272.05165863 512.51796532 C271.00988968 512.52367546 269.96812073 512.5293856 268.89478302 512.53526878 C267.74719513 512.53638664 266.59960724 512.5375045 265.41724396 512.53865623 C264.21232803 512.54362114 263.00741211 512.54858604 261.76598358 512.5537014 C258.45607258 512.56582196 255.14622486 512.57327106 251.83629918 512.57771206 C249.76952735 512.58064152 247.70276108 512.58474604 245.63599205 512.58921623 C239.17269798 512.60289133 232.70941661 512.61255839 226.24610907 512.61641812 C218.7790226 512.62090155 211.31211894 512.63846241 203.84508806 512.66741872 C198.07689189 512.68901276 192.30874725 512.69912115 186.54051107 512.70045924 C183.09355391 512.70150876 179.64676859 512.70744746 176.1998539 512.72527885 C172.35689219 512.74477241 168.51416028 512.74047967 164.67115021 512.73396873 C162.95280472 512.74779091 162.95280472 512.74779091 161.19974518 512.76189232 C160.1551564 512.75632317 159.11056763 512.75075401 158.03432465 512.7450161 C156.67074121 512.74721594 156.67074121 512.74721594 155.27961063 512.74946022 C152.49843273 512.29973302 151.65073718 511.60910279 149.97949982 509.37752342 C149.64949982 508.38752342 149.31949982 507.39752342 148.97949982 506.37752342 C136.76949982 506.04752342 124.55949982 505.71752342 111.97949982 505.37752342 C111.31949982 507.02752342 110.65949982 508.67752342 109.97949982 510.37752342 C107.53487886 512.82214438 106.87380905 512.63667048 103.51734161 512.66805077 C102.13031288 512.68719032 102.13031288 512.68719032 100.71526337 512.70671654 C99.71320358 512.70894218 98.7111438 512.71116783 97.67871857 512.71346092 C96.65019272 512.72011772 95.62166687 512.72677452 94.56197357 512.73363304 C92.38223818 512.74377274 90.20247166 512.74844966 88.02271271 512.74812889 C84.69072781 512.75249235 81.36007743 512.78877211 78.02832794 512.82674217 C75.91179602 512.832612 73.79525779 512.83658028 71.67871857 512.83846092 C70.68273148 512.85283195 69.68674438 512.86720299 68.66057587 512.88200951 C64.3096276 512.85334951 61.71765657 512.82407658 57.93579865 510.53621483 C52.3752186 504.40035451 52.82107994 498.35898881 52.81153107 490.51033592 C52.80653847 489.08091164 52.80653847 489.08091164 52.80144501 487.62261009 C52.79639183 485.61041813 52.79403618 483.59821782 52.79419708 481.58601952 C52.79201247 478.52028547 52.77384472 475.45491253 52.75489044 472.38924217 C52.75195575 470.42960798 52.74997146 468.46997209 52.74903107 466.51033592 C52.74184555 465.5997039 52.73466003 464.68907188 52.72725677 463.75084496 C52.76864664 452.12415439 52.76864664 452.12415439 56.38184357 447.63533592 C61.55303089 443.81944706 64.58562393 443.28382361 70.92871857 443.48299217 C91.24910546 444.23970577 91.24910546 444.23970577 108.61304474 434.85872459 C110.10482022 433.40123257 111.54531861 431.89172333 112.97949982 430.37752342 C113.68557263 429.91580724 114.39164544 429.45409106 115.1191144 428.97838348 C117.15222839 427.54400995 117.15222839 427.54400995 117.47810316 425.31034285 C117.47745375 424.5086432 117.47680434 423.70694355 117.47613525 422.88094997 C117.48511605 421.9543438 117.49409684 421.02773762 117.50334978 420.07305247 C117.48761644 418.54360102 117.48761644 418.54360102 117.47156525 416.98325157 C117.47858373 415.36042799 117.47858373 415.36042799 117.485744 413.7048201 C117.49672153 410.06105882 117.47914891 406.4179811 117.46192169 402.77425194 C117.46410631 400.16949318 117.46810113 397.5647354 117.47377777 394.95998192 C117.48346778 389.34182441 117.47898093 383.72382189 117.46535492 378.10567474 C117.44601307 369.978391 117.45242085 361.85128199 117.46592873 353.72399377 C117.4875229 340.53289286 117.49422064 327.34183311 117.48877716 314.15071678 C117.48829621 312.96606603 117.48829621 312.96606603 117.48780555 311.75748294 C117.48509288 305.3496399 117.48166174 298.94179729 117.47819996 292.53395462 C117.47520505 286.93420359 117.47249676 281.33445253 117.47022247 275.73470116 C117.46989696 274.94619711 117.46957145 274.15769307 117.46923608 273.34529496 C117.46429666 260.20537145 117.47495998 247.06550515 117.49679422 233.92559952 C117.5095066 225.81726268 117.50801771 217.70916116 117.48834336 209.60083698 C117.47426723 203.39098514 117.48031909 197.18130625 117.49384117 190.97145653 C117.49597959 188.42045212 117.49120669 185.86943149 117.47913551 183.31845474 C117.46362131 179.8449252 117.47243357 176.37229062 117.48743439 172.89877892 C117.47694549 171.88137534 117.46645659 170.86397177 117.45564985 169.81573778 C117.52115276 163.03836192 117.52115276 163.03836192 119.82275391 159.71994495 C121.97949982 158.37752342 121.97949982 158.37752342 124.97949982 158.37752342 C124.97949982 145.50752342 124.97949982 132.63752342 124.97949982 119.37752342 C123.32949982 119.04752342 121.67949982 118.71752342 119.97949982 118.37752342 C117.84586331 115.17706866 117.73277753 114.39122906 117.75244904 110.72249413 C117.75269073 109.76862816 117.75293243 108.81476219 117.75318146 107.8319912 C117.76341339 106.83252464 117.77364532 105.83305809 117.78418732 104.80330467 C117.78620148 103.88239037 117.78821564 102.96147606 117.79029083 102.01265526 C117.80075689 98.57172733 117.82867947 95.13087039 117.85449982 91.69002342 C117.89574982 83.99689842 117.93699982 76.30377342 117.97949982 68.37752342 C96.85949982 68.37752342 75.73949982 68.37752342 53.97949982 68.37752342 C54.13760317 82.63307816 54.13760317 82.63307816 54.33985138 96.88802147 C54.35153789 98.68008534 54.36172981 100.47215986 54.37012482 102.26424217 C54.39058868 103.1887014 54.41105255 104.11316063 54.43213654 105.06563377 C54.43433292 109.1218055 54.34042075 111.70782076 52.39258575 115.3221035 C46.17061212 120.62186028 40.33732855 120.82629096 32.47949982 120.77596092 C30.98773224 120.78026619 30.98773224 120.78026619 29.46582794 120.78465843 C27.37142108 120.7866922 25.27699492 120.78121066 23.18262482 120.7686367 C19.98948158 120.75257364 16.79760401 120.76850925 13.60449982 120.78767967 C11.56283038 120.78569712 9.52116172 120.78185319 7.47949982 120.77596092 C6.53139435 120.78203362 5.58328888 120.78810631 4.60645294 120.79436302 C-1.02069341 120.73509469 -5.14343722 120.2940625 -10.02050018 117.37752342 C-14.53963366 112.17890445 -14.59009575 107.87689167 -14.52220917 101.32063866 C-14.52761215 100.32317619 -14.53301514 99.32571373 -14.53858185 98.29802513 C-14.55105985 95.010418 -14.53458482 91.72368808 -14.51659393 88.43611717 C-14.51674893 86.14738481 -14.51823801 83.85865219 -14.52100372 81.56992149 C-14.52238727 76.77756179 -14.50983575 71.98550153 -14.48705292 67.19319725 C-14.45865273 61.05061297 -14.46141073 54.90852557 -14.47414303 48.76590443 C-14.48109752 44.04156818 -14.47331374 39.31734679 -14.460886 34.59302521 C-14.45637043 32.32800868 -14.45603562 30.06297983 -14.4599514 27.79796219 C-14.4628617 24.63338875 -14.44636516 21.46950051 -14.42455292 18.30501366 C-14.42905457 17.36929024 -14.43355621 16.43356682 -14.43819427 15.46948814 C-14.38318852 10.66645373 -14.30018659 7.17062947 -11.02050018 3.37752342 C-7.23444959 0.65818806 -4.63319009 0.0021502 0 0 Z " fill="#62CEEF" transform="translate(65.02050018310547,-0.37752342224121094)"/>
<path d="M0 0 C1.82341502 -0.01173486 1.82341502 -0.01173486 3.68366671 -0.02370679 C5.02930871 -0.01722089 6.37494938 -0.01045093 7.72058868 -0.00342751 C9.15264985 -0.00688422 10.58470836 -0.01164888 12.0167613 -0.01760924 C15.95222993 -0.03014712 19.88748066 -0.02393625 23.82295012 -0.01465058 C28.06704809 -0.00787182 32.31110819 -0.01833549 36.55519867 -0.02659035 C44.86947691 -0.03994242 53.18367399 -0.03704339 61.49795544 -0.02835242 C68.25409368 -0.02158208 75.01020914 -0.02065634 81.76634979 -0.02392387 C82.72727908 -0.02438357 83.68820836 -0.02484327 84.67825672 -0.0253169 C86.6302594 -0.02627606 88.58226208 -0.0272487 90.53426474 -0.02823468 C108.84571648 -0.03679289 127.15712319 -0.02694767 145.46856755 -0.01083358 C161.18658966 0.00256999 176.90454531 0.00024202 192.62256622 -0.01358986 C210.86771314 -0.02963806 229.11282058 -0.03596887 247.35797358 -0.02675307 C249.30286566 -0.0257974 251.24775775 -0.02485429 253.19264984 -0.02392387 C254.62810149 -0.02322963 254.62810149 -0.02322963 256.09255216 -0.02252137 C262.84194127 -0.0199292 269.59130537 -0.02430737 276.34069061 -0.03136253 C284.5639845 -0.03976929 292.78719245 -0.03751478 301.01047647 -0.0215203 C305.20753102 -0.01362646 309.4044422 -0.01056489 313.60149574 -0.02046776 C317.44190278 -0.0293922 321.28203326 -0.0245192 325.12241513 -0.0085351 C326.51332515 -0.00517772 327.90425843 -0.00690283 329.29515356 -0.01416247 C331.18308622 -0.02326217 333.07108414 -0.01214997 334.95899963 0 C336.00849431 0.00048706 337.05798898 0.00097411 338.13928652 0.00147593 C342.36070493 0.56039656 345.00565971 2.25123318 347.76674652 5.44455528 C349.54032465 9.73384326 349.40567926 13.70570175 349.38355255 18.30501366 C349.39384743 19.79857887 349.39384743 19.79857887 349.40435028 21.32231712 C349.42263628 24.61039595 349.41877809 27.89799846 349.41309357 31.18611717 C349.4176545 33.47388426 349.4229598 35.76164997 349.42897797 38.04941368 C349.43791263 42.84349192 349.43548179 47.6374036 349.42554474 52.4314785 C349.41405493 58.57293545 349.43426547 64.71381745 349.46346188 70.85519886 C349.48181401 75.57957164 349.48153333 80.30380639 349.47582436 85.02820587 C349.47567102 87.29240856 349.4817254 89.55662054 349.49411583 91.82078934 C349.50900481 94.98777195 349.49836331 98.15368922 349.4812088 101.32063866 C349.49087677 102.25433784 349.50054474 103.18803703 349.51050568 104.15003014 C349.44752851 109.70659596 348.76971324 113.01742308 344.97949982 117.37752342 C339.27380798 120.78959198 334.01363579 120.8178126 327.47949982 120.77596092 C325.98773224 120.78026619 325.98773224 120.78026619 324.46582794 120.78465843 C322.37142108 120.7866922 320.27699492 120.78121066 318.18262482 120.7686367 C314.98948158 120.75257364 311.79760401 120.76850925 308.60449982 120.78767967 C306.56283038 120.78569712 304.52116172 120.78185319 302.47949982 120.77596092 C301.53139435 120.78203362 300.58328888 120.78810631 299.60645294 120.79436302 C292.72332063 120.72186592 287.96228193 119.91819952 282.56641388 115.3221035 C280.2284048 110.98383773 280.48146945 107.11630098 280.58887482 102.26424217 C280.5949173 100.97435387 280.5949173 100.97435387 280.60108185 99.65840721 C280.62193692 96.46039413 280.67778251 93.26268631 280.72949982 90.06502342 C280.81199982 82.90814842 280.89449982 75.75127342 280.97949982 68.37752342 C259.85949982 68.37752342 238.73949982 68.37752342 216.97949982 68.37752342 C217.30949982 143.28752342 217.63949982 218.19752342 217.97949982 295.37752342 C243.05949982 301.97752342 268.13949982 308.57752342 293.97949982 315.37752342 C305.61832461 320.03305334 314.28320537 325.9470854 319.97949982 337.37752342 C322.7594422 344.59402693 323.5983207 352.15553891 324.45215607 359.79939842 C324.99729325 363.49825518 325.87796795 366.81239954 326.97949982 370.37752342 C327.849617 370.21703514 327.849617 370.21703514 328.73731232 370.05330467 C329.51848419 369.93342186 330.29965607 369.81353905 331.10449982 369.69002342 C331.87020294 369.56240623 332.63590607 369.43478905 333.42481232 369.30330467 C340.80799922 369.51780093 345.49551207 375.50387452 350.29199982 380.44002342 C351.0196756 381.17285545 351.74735138 381.90568748 352.49707794 382.66072655 C357.82456545 388.06765469 357.82456545 388.06765469 358.97949982 390.37752342 C358.86106596 392.24439452 358.72671976 394.11027146 358.58374786 395.97542381 C358.55657777 400.67164944 358.95729969 403.20613188 362.05298615 406.78157616 C363.44246191 408.15580805 364.86406428 409.49810686 366.31153107 410.81111717 C367.05908157 411.53694496 367.80663208 412.26277275 368.57683563 413.01059532 C370.95503884 415.30888106 373.37079696 417.56216398 375.79199982 419.81502342 C378.19319531 422.10113103 380.58588876 424.39573431 382.97502899 426.69443321 C384.45975684 428.11725298 385.95301939 429.53123468 387.4557724 430.93500328 C396.30489237 439.27847422 396.30489237 439.27847422 396.72949982 445.56502342 C396.470607 449.81747564 395.21797437 451.69724511 392.32324982 454.77205467 C391.50695099 455.64257469 390.69065216 456.51309471 389.849617 457.40999413 C388.89456794 458.40077016 387.93775199 459.38984501 386.97949982 460.37752342 C386.45150787 460.9246801 385.92351593 461.47183678 385.37952423 462.03557396 C381.82015407 465.71522797 378.22662526 469.35929036 374.61231232 472.9849453 C372.71186246 474.89525226 370.82234071 476.81597979 368.93262482 478.73689842 C367.71453151 479.9615103 366.4958045 481.18549226 365.27637482 482.40877342 C364.71794891 482.97954613 364.15952301 483.55031883 363.58417511 484.13838768 C359.29911424 488.39923733 356.31989202 490.25852043 350.29199982 490.56502342 C341.89342171 489.16768971 335.10631081 479.53443984 329.44824982 473.59236717 C327.7121301 471.7821962 325.97552113 469.97249585 324.23877716 468.16292381 C323.05785383 466.92251184 321.88506383 465.67430953 320.72022247 464.41878319 C314.372101 457.05663571 314.372101 457.05663571 306.08496857 452.6436367 C303.49588053 452.62046329 303.49588053 452.62046329 301.18067169 453.11800194 C298.21031361 453.46821164 296.62185547 452.74367641 293.97949982 451.37752342 C291.86719513 449.62166405 291.86719513 449.62166405 289.80762482 447.53377342 C289.06125763 446.78224998 288.31489044 446.03072655 287.54590607 445.25642967 C286.781492 444.47139061 286.01707794 443.68635155 285.22949982 442.87752342 C284.449617 442.09248436 283.66973419 441.3074453 282.86621857 440.49861717 C277.13412394 434.68677166 277.13412394 434.68677166 275.97949982 432.37752342 C276.06653086 429.84056838 276.23879482 427.3186521 276.43262482 424.78767967 C276.2034287 422.22985155 276.2034287 422.22985155 274.06934357 420.65096092 C269.86816886 418.91950333 265.78241364 418.46872207 261.29199982 417.94002342 C248.8142664 416.25220866 236.84504686 412.87469175 228.66699982 402.56502342 C223.69110964 395.79601967 221.26525811 387.59431983 219.17481232 379.56892967 C218.93007172 378.65220985 218.68533112 377.73549004 218.43317413 376.79099083 C217.64893709 373.84272225 216.87622138 370.89159034 216.10449982 367.94002342 C215.56773302 365.90856314 215.03078562 363.87715057 214.49365997 361.84578514 C210.91202395 348.23810639 207.52128605 334.60396175 204.56690216 320.84480858 C203.99255344 318.26282344 203.99255344 318.26282344 202.95992184 315.3689642 C201.60679612 310.62273307 201.69290613 305.95126189 201.70534515 301.0471859 C201.70010848 300.02046668 201.6948718 298.99374745 201.68947643 297.93591553 C201.67450009 294.502919 201.6737718 291.07007183 201.67310333 287.63704491 C201.66548052 285.17286999 201.65705281 282.70869745 201.64788055 280.24452782 C201.62594674 273.55672533 201.61711677 266.86898274 201.61205411 260.18115306 C201.60879248 256.00387397 201.60226744 251.82660404 201.59505272 247.64933014 C201.57549861 236.07771255 201.5590859 224.50610345 201.55617619 212.93446827 C201.55598862 212.19485306 201.55580105 211.45523786 201.55560779 210.69321007 C201.55524155 209.19394815 201.55487785 207.69468623 201.55451668 206.19542431 C201.55433387 205.45122258 201.55415106 204.70702086 201.55396271 203.94026756 C201.55369188 202.82259966 201.55369188 202.82259966 201.55341559 201.68235261 C201.54987071 189.59759997 201.52282356 177.51302515 201.48546482 165.42833423 C201.44739378 153.01375787 201.42801883 140.59926983 201.42771667 128.18463379 C201.42713204 121.21704132 201.41863572 114.24966135 201.38971901 107.28212357 C201.36266249 100.73294585 201.36128979 94.18411615 201.37737465 87.63487816 C201.37919507 85.22983509 201.3724453 82.82476819 201.35655594 80.41977692 C201.3362033 77.13964017 201.34658474 73.86099384 201.36476898 70.5808773 C201.35156901 69.62650117 201.33836905 68.67212503 201.32476908 67.68882841 C201.37997877 63.33683973 201.5462335 60.33245324 204.33042049 56.8648138 C208.70846232 52.75415497 211.41973318 52.08211964 217.20142365 52.10286522 C218.29953117 52.09519882 218.29953117 52.09519882 219.41982269 52.08737755 C221.84214181 52.07346783 224.26417673 52.07443975 226.68653107 52.07674217 C228.37180945 52.07285511 230.05708685 52.06852042 231.74236298 52.06375694 C235.27725141 52.05629113 238.81203998 52.05658796 242.34693146 52.06184959 C246.86966032 52.06763534 251.39197848 52.05073683 255.91463947 52.02750492 C259.39685697 52.01274592 262.87897617 52.01189898 266.36121941 52.01501465 C268.02812957 52.01450222 269.69504534 52.0092791 271.36192513 51.99920273 C273.69801551 51.98681764 276.03331396 51.99364257 278.3693924 52.00520897 C279.3959494 51.99374336 279.3959494 51.99374336 280.44324493 51.98204613 C286.159003 52.04436016 290.05515125 53.69481771 294.33008575 57.43294334 C296.75634259 61.76436485 296.47773229 65.60881094 296.37012482 70.49080467 C296.36446503 71.46035591 296.35880524 72.42990715 296.35297394 73.42883873 C296.33063687 76.51640888 296.2804448 79.60280581 296.22949982 82.69002342 C296.20943139 84.78701184 296.19118122 86.88401849 296.17481232 88.98103905 C296.13418728 94.11401282 296.05589101 99.24445965 295.97949982 104.37752342 C308.51949982 104.37752342 321.05949982 104.37752342 333.97949982 104.37752342 C333.97949982 75.00752342 333.97949982 45.63752342 333.97949982 15.37752342 C224.08949982 15.37752342 114.19949982 15.37752342 0.97949982 15.37752342 C0.97949982 44.74752342 0.97949982 74.11752342 0.97949982 104.37752342 C13.51949982 104.37752342 26.05949982 104.37752342 38.97949982 104.37752342 C38.921492 101.2708828 38.86348419 98.16424217 38.80371857 94.96346092 C38.76469299 91.94509495 38.73435116 88.92675738 38.70484161 85.90828514 C38.67974102 83.81505762 38.64565304 81.72191737 38.60230255 79.62898827 C38.5414553 76.61525983 38.51324532 73.60269283 38.49121857 70.58846092 C38.46541214 69.65698235 38.43960571 68.72550377 38.41301727 67.76579857 C38.411158 63.43110882 38.51396164 60.3476778 41.2600174 56.86433983 C45.85176843 52.66543723 49.19377686 52.07891852 55.31494904 52.08699608 C56.04716675 52.08027885 56.77938446 52.07356163 57.53379059 52.06664085 C59.95065883 52.04766717 62.36724927 52.043737 64.78418732 52.04158592 C66.46803653 52.03515748 68.15188463 52.02842908 69.83573151 52.0214138 C73.36463764 52.00944258 76.8934459 52.00573281 80.42237091 52.00691795 C84.93732408 52.00712112 89.45164764 51.97982112 93.96645164 51.94537354 C97.44438288 51.92310126 100.92216268 51.91908051 104.40015793 51.92013741 C106.06429082 51.91778186 107.72842791 51.90896087 109.39249039 51.89347267 C111.72385848 51.87380551 114.0538701 51.87965244 116.38526154 51.89168358 C117.40946198 51.87482506 117.40946198 51.87482506 118.45435333 51.85762596 C123.40272218 51.92229175 126.18149243 53.27003176 129.97949982 56.37752342 C132.957211 59.45228502 133.3596416 61.58565237 133.38355255 65.81697655 C133.40257881 67.44886925 133.40257881 67.44886925 133.42198944 69.11372948 C133.4190538 70.28359398 133.41611816 71.45345848 133.41309357 72.65877342 C133.41833542 73.86440941 133.42357727 75.07004539 133.42897797 76.31221581 C133.43540043 78.86083264 133.43405831 81.40947912 133.42554474 83.95808983 C133.41703201 87.86275909 133.44580059 91.76596736 133.47754669 95.67049217 C133.47915866 98.14575215 133.47858126 100.62101472 133.47559357 103.09627342 C133.48682755 104.26613792 133.49806152 105.43600243 133.50963593 106.64131737 C133.50025497 107.72924583 133.49087402 108.8171743 133.4812088 109.9380703 C133.48104263 110.89419212 133.48087646 111.85031395 133.48070526 112.83540916 C132.82792284 116.14632192 131.62122708 117.33494985 128.97949982 119.37752342 C125.2462277 119.91084801 123.0262743 120.0283218 119.78516388 118.01326561 C116.91894519 113.8294234 117.48699174 109.65620323 117.58887482 104.70564842 C117.59290314 103.7857412 117.59693146 102.86583397 117.60108185 101.91805077 C117.62198157 98.48767157 117.67782723 95.05757709 117.72949982 91.62752342 C117.81199982 83.95502342 117.89449982 76.28252342 117.97949982 68.37752342 C96.85949982 68.37752342 75.73949982 68.37752342 53.97949982 68.37752342 C54.13760317 82.63307816 54.13760317 82.63307816 54.33985138 96.88802147 C54.35153789 98.68008534 54.36172981 100.47215986 54.37012482 102.26424217 C54.39058868 103.1887014 54.41105255 104.11316063 54.43213654 105.06563377 C54.43433292 109.1218055 54.34042075 111.70782076 52.39258575 115.3221035 C46.17061212 120.62186028 40.33732855 120.82629096 32.47949982 120.77596092 C30.98773224 120.78026619 30.98773224 120.78026619 29.46582794 120.78465843 C27.37142108 120.7866922 25.27699492 120.78121066 23.18262482 120.7686367 C19.98948158 120.75257364 16.79760401 120.76850925 13.60449982 120.78767967 C11.56283038 120.78569712 9.52116172 120.78185319 7.47949982 120.77596092 C6.53139435 120.78203362 5.58328888 120.78810631 4.60645294 120.79436302 C-1.02069341 120.73509469 -5.14343722 120.2940625 -10.02050018 117.37752342 C-14.53963366 112.17890445 -14.59009575 107.87689167 -14.52220917 101.32063866 C-14.52761215 100.32317619 -14.53301514 99.32571373 -14.53858185 98.29802513 C-14.55105985 95.010418 -14.53458482 91.72368808 -14.51659393 88.43611717 C-14.51674893 86.14738481 -14.51823801 83.85865219 -14.52100372 81.56992149 C-14.52238727 76.77756179 -14.50983575 71.98550153 -14.48705292 67.19319725 C-14.45865273 61.05061297 -14.46141073 54.90852557 -14.47414303 48.76590443 C-14.48109752 44.04156818 -14.47331374 39.31734679 -14.460886 34.59302521 C-14.45637043 32.32800868 -14.45603562 30.06297983 -14.4599514 27.79796219 C-14.4628617 24.63338875 -14.44636516 21.46950051 -14.42455292 18.30501366 C-14.42905457 17.36929024 -14.43355621 16.43356682 -14.43819427 15.46948814 C-14.38318852 10.66645373 -14.30018659 7.17062947 -11.02050018 3.37752342 C-7.23444959 0.65818806 -4.63319009 0.0021502 0 0 Z " fill="#010000" transform="translate(65.02050018310547,-0.37752342224121094)"/>
<path d="M0 0 C1.38294718 0.01329757 2.76582404 0.03715018 4.1484375 0.0703125 C4.85484375 0.07933594 5.56125 0.08835938 6.2890625 0.09765625 C8.03399848 0.12123647 9.77876045 0.15710789 11.5234375 0.1953125 C11.52213868 1.4630891 11.52083986 2.73086571 11.51950169 4.03705978 C11.49011385 34.25587801 11.497219 64.4744537 11.54816246 94.69323312 C11.55442643 98.42748704 11.56038788 102.16174138 11.56616211 105.89599609 C11.56731655 106.63929571 11.56847099 107.38259533 11.56966042 108.14841917 C11.58753821 120.12172245 11.58101191 132.09489086 11.56517334 144.06819162 C11.54942797 156.39007092 11.56058813 168.71172302 11.59578508 181.0335629 C11.61476451 187.93942031 11.62189379 194.84484039 11.59813118 201.75069427 C11.07263694 238.13356131 11.07263694 238.13356131 17.97688293 273.59777832 C20.49977397 281.89650366 20.24052555 290.17680984 19.89856911 298.76586533 C19.78823766 301.68779427 19.73762669 304.60607359 19.70085144 307.52981567 C19.59059141 315.8128307 19.40941893 324.09175763 19.12280273 332.37060547 C16.89367149 355.8765589 16.89367149 355.8765589 24.39990234 376.95019531 C28.04163766 380.16728866 31.89316531 382.3316766 36.35995483 384.20123291 C39.62191638 385.70004288 41.92160762 387.74081548 44.5234375 390.1953125 C44.5234375 390.5253125 44.5234375 390.8553125 44.5234375 391.1953125 C21.46692861 392.2294507 21.46692861 392.2294507 13.5234375 386.1953125 C12.66621094 385.57914062 11.80898438 384.96296875 10.92578125 384.328125 C3.8290458 378.95592762 -3.05861462 373.07469112 -5.4765625 364.1953125 C-5.92302377 359.34204567 -5.87759042 354.49333407 -5.8507843 349.62406921 C-5.85352625 348.12627261 -5.85757949 346.62847793 -5.86282796 345.13068801 C-5.87340329 341.02291916 -5.8652934 336.91536828 -5.85407746 332.80760896 C-5.84523036 328.3747866 -5.85368029 323.94199261 -5.85993958 319.50917053 C-5.86942546 310.8298699 -5.86283022 302.15065242 -5.85067663 293.47135796 C-5.83705755 283.3695622 -5.83869431 273.26778626 -5.84080996 263.16598365 C-5.84399933 245.14864324 -5.83233351 227.13134237 -5.81274414 209.11401367 C-5.79372604 191.61758216 -5.78666034 174.12119697 -5.79223633 156.62475586 C-5.79828797 137.57940552 -5.79812944 118.53407555 -5.7867505 99.48872691 C-5.78554317 97.45994588 -5.78433718 95.43116484 -5.78313255 93.4023838 C-5.78252901 92.40412223 -5.78192548 91.40586065 -5.78130365 90.37734872 C-5.77741808 83.32947676 -5.77782053 76.28161237 -5.7797184 69.23373985 C-5.78183584 60.65322868 -5.77665025 52.07275815 -5.76210485 43.49225845 C-5.75483961 39.11129248 -5.75080194 34.73038585 -5.75534821 30.34941483 C-5.75940321 26.34461032 -5.75432076 22.33992873 -5.74172213 18.33514295 C-5.73877693 16.88108952 -5.73925208 15.42702462 -5.74336521 13.97297402 C-5.74842424 12.00709928 -5.7401328 10.04120335 -5.73103809 8.07534313 C-5.73017132 6.980227 -5.72930454 5.88511088 -5.7284115 4.75680941 C-5.31722048 0.57468226 -4.08371805 0.22942236 0 0 Z " fill="#32BADA" transform="translate(255.4765625,59.8046875)"/>
<path d="M0 0 C2.18742466 1.36264896 2.18742466 1.36264896 4 4 C4.605704 7.56079831 4.53463774 11.09335605 4.50120544 14.69761658 C4.50950704 16.35129009 4.50950704 16.35129009 4.51797634 18.03837115 C4.53162851 21.74577831 4.51658813 25.45251761 4.50170898 29.15991211 C4.50549052 31.81247313 4.51083627 34.46498898 4.51808167 37.11753845 C4.5320264 43.58245102 4.52444874 50.04716848 4.50940608 56.51207178 C4.4925578 64.03915212 4.4957548 71.56618368 4.49950016 79.09327704 C4.50538111 92.5234058 4.49119858 105.95344086 4.46655273 119.38354492 C4.44263605 132.41776035 4.43554631 145.45185055 4.44604492 158.48608398 C4.45745325 172.6751892 4.45938488 186.86423646 4.44494683 201.05334097 C4.44342097 202.56630265 4.44190062 204.07926434 4.44038582 205.59222603 C4.439628 206.33665229 4.43887019 207.08107855 4.43808941 207.84806318 C4.43334555 213.0956214 4.43519878 218.34315376 4.43945122 223.59071159 C4.44437709 229.98598609 4.43839726 236.38114216 4.41855692 242.77638953 C4.40868228 246.03980873 4.40518901 249.30301057 4.41144943 252.5664444 C4.41738395 256.10295717 4.40493151 259.63893525 4.38768005 263.17539978 C4.3936901 264.20866313 4.39970014 265.24192649 4.40589231 266.30650085 C4.35144145 272.42262228 3.75426541 276.10327259 -0.5859375 280.66796875 C-6.3290365 285.54584104 -12.19668621 290.36024074 -18.31445312 294.76391602 C-20.02480783 295.98112797 -20.02480783 295.98112797 -21.60742188 297.40600586 C-28.34897176 302.66609085 -36.3778266 301.54389512 -44.5 301.3125 C-49.615 301.209375 -54.73 301.10625 -60 301 C-60 313.54 -60 326.08 -60 339 C-47.6739634 338.8418645 -47.6739634 338.8418645 -35.34863281 338.63964844 C-33.80014142 338.6279629 -32.25163772 338.61777075 -30.703125 338.609375 C-29.90310059 338.58891113 -29.10307617 338.56844727 -28.27880859 338.54736328 C-24.6457151 338.54508548 -22.48208651 338.64237187 -19.51855469 340.84082031 C-17.5193841 343.68337091 -17 345.51933563 -17 349 C-18.34399414 351.65209961 -18.34399414 351.65209961 -21 354 C-24.49293093 354.75209069 -27.93488038 354.67651494 -31.49609375 354.62890625 C-32.5217897 354.63131821 -33.54748566 354.63373016 -34.60426331 354.63621521 C-36.77210355 354.63523631 -38.93996865 354.6218325 -41.10766602 354.59692383 C-44.42225333 354.56265762 -47.73416872 354.57625292 -51.04882812 354.59570312 C-53.15626133 354.58880349 -55.26368766 354.57913005 -57.37109375 354.56640625 C-58.36080673 354.57136612 -59.35051971 354.57632599 -60.370224 354.58143616 C-64.69584442 354.50759447 -67.28518048 354.43461073 -71.03930664 352.15209961 C-76.61407926 346.03310812 -76.15842912 339.97387156 -76.16796875 332.1328125 C-76.17129715 331.17986298 -76.17462555 330.22691345 -76.17805481 329.24508667 C-76.18310798 327.23289471 -76.18546363 325.2206944 -76.18530273 323.20849609 C-76.18748734 320.14276205 -76.20565509 317.07738911 -76.22460938 314.01171875 C-76.22754407 312.05208456 -76.22952836 310.09244866 -76.23046875 308.1328125 C-76.23765427 307.22218048 -76.24483978 306.31154846 -76.25224304 305.37332153 C-76.21085318 293.74663097 -76.21085318 293.74663097 -72.59765625 289.2578125 C-67.42646893 285.44192364 -64.39387588 284.90630018 -58.05078125 285.10546875 C-37.73039436 285.86218235 -37.73039436 285.86218235 -20.36645508 276.48120117 C-18.8746796 275.02370914 -17.43418121 273.51419991 -16 272 C-14.94089078 271.30742573 -14.94089078 271.30742573 -13.86038542 270.60086006 C-11.82727143 269.16648653 -11.82727143 269.16648653 -11.50139666 266.93281943 C-11.50237077 265.73026995 -11.50237077 265.73026995 -11.50336456 264.50342655 C-11.48989337 263.11351729 -11.48989337 263.11351729 -11.47615004 261.69552904 C-11.49188338 260.1660776 -11.49188338 260.1660776 -11.50793457 258.60572815 C-11.50325558 257.52384576 -11.49857659 256.44196338 -11.49375582 255.32729667 C-11.48277829 251.6835354 -11.50035091 248.04045768 -11.51757812 244.39672852 C-11.51539351 241.79196976 -11.51139869 239.18721198 -11.50572205 236.5824585 C-11.49603203 230.96430099 -11.50051889 225.34629846 -11.5141449 219.72815132 C-11.53348675 211.60086758 -11.52707896 203.47375856 -11.51357108 195.34647035 C-11.49197692 182.15536944 -11.48527917 168.96430969 -11.49072266 155.77319336 C-11.49104329 154.98342619 -11.49136392 154.19365902 -11.49169427 153.37995952 C-11.49440694 146.97211648 -11.49783808 140.56427386 -11.50129986 134.1564312 C-11.50429477 128.55668017 -11.50700306 122.9569291 -11.50927734 117.35717773 C-11.50960285 116.56867369 -11.50992837 115.78016964 -11.51026374 114.96777154 C-11.51520316 101.82784803 -11.50453983 88.68798172 -11.48270559 75.54807609 C-11.46999322 67.43973926 -11.47148211 59.33163774 -11.49115646 51.22331356 C-11.50523258 45.01346172 -11.49918072 38.80378283 -11.48565865 32.59393311 C-11.48352022 30.0429287 -11.48829312 27.49190806 -11.5003643 24.94093132 C-11.51587851 21.46740178 -11.50706625 17.99476719 -11.49206543 14.52125549 C-11.50255433 13.50385192 -11.51304322 12.48644835 -11.52384996 11.43821436 C-11.45838129 4.6643803 -11.45838129 4.6643803 -9.18799591 1.37367153 C-5.95290979 -0.65738606 -3.73517263 -0.53359609 0 0 Z " fill="#000000" transform="translate(194,158)"/>
<path d="M0 0 C13.77967405 3.53926832 27.55508513 7.07900318 41.24609375 10.94921875 C44.50922846 11.86262482 47.78102201 12.71843345 51.0625 13.5625 C60.11962773 16.08684494 66.66670557 18.90559946 72 27 C75.11568999 32.93521173 75.46323512 39.48292706 76.16137695 46.0402832 C76.8435125 51.89752616 78.49821265 56.7130197 81 62 C81.99 64.475 81.99 64.475 83 67 C73.76 76.24 64.52 85.48 55 95 C47.575 91.535 47.575 91.535 40 88 C35.88859975 87.17771995 32.34198916 86.84781656 28.1875 86.6875 C19.57692095 86.06796929 14.84829422 84.14962519 8.75 78.0625 C0.90077665 68.45591203 -0.64167944 53.81615898 -3.5625 41.9375 C-3.95213664 40.36384873 -4.34210918 38.7902806 -4.73242188 37.21679688 C-5.48108548 34.19688263 -6.22796929 31.17653856 -6.97314453 28.15576172 C-8.30310849 22.76742787 -9.64973231 17.38327805 -11 12 C-10.34 12 -9.68 12 -9 12 C-7.57226562 13.46435547 -7.57226562 13.46435547 -5.90625 15.4921875 C-3.33032078 18.52638628 -0.68009422 21.34269122 2.21875 24.0703125 C2.92257812 24.73933594 3.62640625 25.40835937 4.3515625 26.09765625 C5.80432956 27.46854008 7.26825874 28.82767568 8.7421875 30.17578125 C10.68483253 32.04259812 12.44350623 33.80042318 14 36 C13.98828125 39.16015625 13.98828125 39.16015625 13 42 C12.19118264 51.0826212 14.05437557 57.01509712 18.625 64.75 C23.68720477 69.54577294 29.50375167 72.27766852 36.5 72.625 C43.58617648 72.26366522 50.09858421 69.45975153 54.9375 64.1875 C59.53982119 57.07482179 61.1153084 50.50112851 60 42 C57.74931995 34.86074608 52.80448991 29.30621099 46.22265625 25.71875 C40.6696047 23.92303561 33.59345473 24.08155809 28.12109375 26.01953125 C24.27476574 25.99546161 23.70951818 25.20972758 20.9765625 22.625 C19.50797068 21.10053784 18.05801228 19.55795463 16.625 18 C15.18221336 16.47677022 13.73691486 14.95591556 12.2890625 13.4375 C11.58555664 12.69242187 10.88205078 11.94734375 10.15722656 11.1796875 C7.40492141 8.39872548 4.47013177 5.89040628 1.44677734 3.41015625 C0.96934082 2.94480469 0.4919043 2.47945313 0 2 C0 1.34 0 0.68 0 0 Z " fill="#FBCD6F" transform="translate(298,315)"/>
<path d="M0 0 C1.0332843 -0.00990463 2.0665686 -0.01980927 3.13116455 -0.03001404 C4.8307708 -0.02326157 4.8307708 -0.02326157 6.56471252 -0.01637268 C7.75841461 -0.02323593 8.9521167 -0.03009918 10.18199158 -0.03717041 C13.45688332 -0.05235134 16.73141902 -0.053928 20.00633121 -0.04822803 C22.73998545 -0.04514017 25.47358802 -0.05122415 28.20723492 -0.05726677 C34.65635311 -0.07132025 41.10533886 -0.06974414 47.55445862 -0.05836487 C54.2080138 -0.0468843 60.86116588 -0.06095599 67.51466793 -0.08776134 C73.22687445 -0.10991293 78.9389544 -0.11655694 84.65120083 -0.11068493 C88.06299016 -0.10731259 91.47452111 -0.10974822 94.88627434 -0.12693596 C98.69085275 -0.14176905 102.49453759 -0.131224 106.29908752 -0.11402893 C107.99565742 -0.12853088 107.99565742 -0.12853088 109.72650146 -0.14332581 C111.28065765 -0.1285746 111.28065765 -0.1285746 112.86621094 -0.11352539 C113.76567161 -0.11331611 114.66513227 -0.11310682 115.59184933 -0.1128912 C118.76157874 0.54691825 119.95436125 1.93661063 121.99659729 4.38768005 C122.93409729 6.26268005 122.93409729 6.26268005 122.99659729 8.38768005 C120.66326396 14.05434672 120.66326396 14.05434672 117.99659729 15.38768005 C116.35631053 15.48683023 114.71202798 15.52274251 113.0687561 15.52812195 C112.02698715 15.53383209 110.9852182 15.53954224 109.91188049 15.54542542 C108.19049866 15.5471022 108.19049866 15.5471022 106.43434143 15.54881287 C104.62696754 15.55626022 104.62696754 15.55626022 102.78308105 15.56385803 C99.47317006 15.57597859 96.16332233 15.58342769 92.85339665 15.58786869 C90.78662482 15.59079815 88.71985856 15.59490267 86.65308952 15.59937286 C80.18979545 15.61304796 73.72651408 15.62271502 67.26320654 15.62657475 C59.79612007 15.63105818 52.32921641 15.64861904 44.86218554 15.67757535 C39.09398937 15.69916939 33.32584472 15.70927778 27.55760854 15.71061587 C24.11065139 15.71166539 20.66386607 15.71760409 17.21695137 15.73543549 C13.37398967 15.75492904 9.53125776 15.75063631 5.68824768 15.74412537 C4.54268402 15.75334015 3.39712036 15.76255493 2.21684265 15.77204895 C0.64995949 15.76369522 0.64995949 15.76369522 -0.94857788 15.75517273 C-1.8576335 15.75663929 -2.76668913 15.75810585 -3.70329189 15.75961685 C-6.4618717 15.31354385 -7.31464539 14.56789555 -9.00340271 12.38768005 C-10.14934738 9.74319236 -10.07095253 8.61847526 -9.25340271 5.82518005 C-6.91397557 1.26329712 -5.15649021 0.01393611 0 0 Z " fill="#000000" transform="translate(224.00340270996094,496.61231994628906)"/>
<path d="M0 0 C4.66874537 3.89976721 9.09127809 7.95214644 13.37109375 12.2734375 C13.93828629 12.84204498 14.50547882 13.41065247 15.08985901 13.99649048 C16.87479913 15.78696236 18.65620256 17.58090484 20.4375 19.375 C21.65796939 20.60049323 22.87867053 21.82575572 24.09960938 23.05078125 C27.06908756 26.03119774 30.03540257 29.01472894 33 32 C27.75541414 38.36590304 21.97902678 44.13570612 16.125 49.9375 C15.14039081 50.91708237 14.156014 51.89689837 13.171875 52.87695312 C10.78351797 55.25360252 8.39284788 57.62787356 6 60 C1.33125463 56.10023279 -3.09127809 52.04785356 -7.37109375 47.7265625 C-7.93828629 47.15795502 -8.50547882 46.58934753 -9.08985901 46.00350952 C-10.87479913 44.21303764 -12.65620256 42.41909516 -14.4375 40.625 C-15.65796939 39.39950677 -16.87867053 38.17424428 -18.09960938 36.94921875 C-21.06908756 33.96880226 -24.03540257 30.98527106 -27 28 C-21.75541414 21.63409696 -15.97902678 15.86429388 -10.125 10.0625 C-9.14039081 9.08291763 -8.156014 8.10310163 -7.171875 7.12304688 C-4.78351797 4.74639748 -2.39284788 2.37212644 0 0 Z " fill="#FC6C5D" transform="translate(411,413)"/>
<path d="M0 0 C5.61 0 11.22 0 17 0 C17 29.37 17 58.74 17 89 C11.39 89 5.78 89 0 89 C0 59.63 0 30.26 0 0 Z " fill="#32BAD9" transform="translate(382,15)"/>
<path d="M0 0 C7.26 0 14.52 0 22 0 C25 3 25 3 25.36076355 4.99320984 C25.35410172 5.75043839 25.34743988 6.50766693 25.34057617 7.2878418 C25.34034958 8.14850754 25.34012299 9.00917328 25.33988953 9.8959198 C25.32440567 10.82100845 25.30892181 11.74609711 25.29296875 12.69921875 C25.28872391 13.64940384 25.28447906 14.59958893 25.28010559 15.5785675 C25.26330484 18.61516588 25.22564992 21.65110202 25.1875 24.6875 C25.17245497 26.74543313 25.15876625 28.80337665 25.14648438 30.86132812 C25.11594776 35.90801284 25.05722883 40.95326466 25 46 C16.75 46 8.5 46 0 46 C0 30.82 0 15.64 0 0 Z " fill="#34BDDD" transform="translate(314,451)"/>
<path d="M0 0 C3.21524305 1.40844718 5.32183868 3.10344786 7.75 5.625 C8.67039062 6.57246094 8.67039062 6.57246094 9.609375 7.5390625 C10.29773438 8.26222656 10.29773438 8.26222656 11 9 C6.56583328 14.31068805 1.88483314 19.24836617 -3.0234375 24.12109375 C-4.14270126 25.23823509 -4.14270126 25.23823509 -5.28457642 26.37794495 C-7.64569389 28.73350827 -10.01028162 31.08555216 -12.375 33.4375 C-13.98590856 35.04338763 -15.59658796 36.64950516 -17.20703125 38.25585938 C-21.13537513 42.17323513 -25.06656674 46.08773487 -29 50 C-31.96695379 48.57046772 -34.27796966 47.06179607 -36.75 44.875 C-37.36359375 44.33617187 -37.9771875 43.79734375 -38.609375 43.2421875 C-39.06828125 42.83226562 -39.5271875 42.42234375 -40 42 C-38.72532957 39.20807634 -37.40846031 37.15918369 -35.23779297 34.99487305 C-34.68316376 34.43716721 -34.12853455 33.87946136 -33.55709839 33.30485535 C-32.9581778 32.71312027 -32.3592572 32.12138519 -31.7421875 31.51171875 C-31.12030548 30.89029495 -30.49842346 30.26887115 -29.85769653 29.62861633 C-28.54030786 28.31424584 -27.22049249 27.00230375 -25.8984375 25.69262695 C-23.89793854 23.71023096 -21.90540487 21.72010482 -19.9140625 19.72851562 C-8.34463882 8.1937592 -8.34463882 8.1937592 -2.32470703 3.21020508 C-0.8585919 2.01611215 -0.8585919 2.01611215 0 0 Z " fill="#E1E5E9" transform="translate(397,386)"/>
<path d="M0 0 C13.77967405 3.53926832 27.55508513 7.07900318 41.24609375 10.94921875 C44.50922846 11.86262482 47.78102201 12.71843345 51.0625 13.5625 C60.11962773 16.08684494 66.66670557 18.90559946 72 27 C75.11568999 32.93521173 75.46323512 39.48292706 76.16137695 46.0402832 C76.8435125 51.89752616 78.49821265 56.7130197 81 62 C81.67555456 63.66308396 82.34444889 65.32892999 83 67 C81.625 68.5 81.625 68.5 80 70 C79.34 70 78.68 70 78 70 C74.41275335 63.14072669 73.15876582 56.75012577 72.1875 49.125 C70.71992187 39.27392848 69.33641515 30.96980102 61.09375 24.50488281 C55.75521555 20.69732037 50.69589232 18.6047451 44.375 17 C43.48562744 16.76071777 42.59625488 16.52143555 41.67993164 16.27490234 C39.78456062 15.76782264 37.88710411 15.26848337 35.98779297 14.77636719 C32.87301484 13.96700337 29.76650575 13.13015759 26.66015625 12.2890625 C24.58625444 11.73319119 22.51204264 11.17847493 20.4375 10.625 C19.4563623 10.36203125 18.47522461 10.0990625 17.46435547 9.828125 C16.5467041 9.58835937 15.62905273 9.34859375 14.68359375 9.1015625 C13.87462646 8.88838379 13.06565918 8.67520508 12.23217773 8.45556641 C9.72649708 7.86668773 9.72649708 7.86668773 6 8 C3.00824362 5.425698 1.25640898 3.76922693 0 0 Z " fill="#ECAE53" transform="translate(298,315)"/>
<path d="M0 0 C2.9838283 1.98921886 4.60276841 3.38502568 5.4765625 6.9375 C5.77773905 11.12226893 5.3197685 12.61463796 2.5625 15.9375 C1.2940625 16.9584375 1.2940625 16.9584375 0 18 C-0.33 18.33 -0.66 18.66 -1 19 C-5.73894483 18.84203517 -8.09988447 18.63758183 -12 15.875 C-14.5450671 12.21646605 -14.70316999 10.37527995 -14 6 C-10.30602342 0.33590258 -6.71359804 -1.10395685 0 0 Z " fill="#DFE3E7" transform="translate(339,354)"/>
<path d="M0 0 C4.66874537 3.89976721 9.09127809 7.95214644 13.37109375 12.2734375 C13.93828629 12.84204498 14.50547882 13.41065247 15.08985901 13.99649048 C16.87479913 15.78696236 18.65620256 17.58090484 20.4375 19.375 C21.65796939 20.60049323 22.87867053 21.82575572 24.09960938 23.05078125 C27.06908756 26.03119774 30.03540257 29.01472894 33 32 C31.35 33.65 29.7 35.3 28 37 C27.63173096 36.56026855 27.26346191 36.12053711 26.8840332 35.66748047 C21.31682757 29.15465097 15.26556277 23.15289343 9.1875 17.125 C8.12801993 16.07054885 7.06877352 15.01586287 6.00976562 13.9609375 C3.34235917 11.30475494 0.67129979 8.65226718 -2 6 C-2.66 5.34 -3.32 4.68 -4 4 C-2.68 2.68 -1.36 1.36 0 0 Z " fill="#F3584D" transform="translate(411,413)"/>
<path d="M0 0 C3.21524305 1.40844718 5.32183868 3.10344786 7.75 5.625 C8.67039062 6.57246094 8.67039062 6.57246094 9.609375 7.5390625 C10.29773438 8.26222656 10.29773438 8.26222656 11 9 C7.6189962 13.13621084 4.33409466 16.81316569 0 20 C-2.31 17.36 -4.62 14.72 -7 12 C-10.19771119 13.5988556 -11.66449155 14.41598693 -14.02441406 16.79736328 C-14.58469299 17.35779327 -15.14497192 17.91822327 -15.722229 18.49563599 C-16.31404968 19.09777924 -16.90587036 19.69992249 -17.515625 20.3203125 C-18.13145447 20.93897186 -18.74728394 21.55763123 -19.3817749 22.19503784 C-21.34260336 24.16703814 -23.29635301 26.14588737 -25.25 28.125 C-26.58026799 29.46530164 -27.910992 30.80515083 -29.2421875 32.14453125 C-32.5001015 35.42446589 -35.75168533 38.71055942 -39 42 C-39 38.05971948 -37.30542392 36.95384665 -34.63122559 34.26568604 C-34.00010864 33.64691589 -33.3689917 33.02814575 -32.71875 32.390625 C-31.74838806 31.42307281 -31.74838806 31.42307281 -30.75842285 30.43597412 C-29.3831251 29.06741032 -28.00422881 27.70245487 -26.62207031 26.34082031 C-24.52946728 24.27903334 -22.44740118 22.20709119 -20.3671875 20.1328125 C-19.02665523 18.80146525 -17.68552713 17.47071763 -16.34375 16.140625 C-15.7288269 15.52995178 -15.11390381 14.91927856 -14.48034668 14.2901001 C-10.6475436 10.51866819 -6.69576666 6.94803832 -2.58947754 3.4755249 C-0.88851955 2.06975231 -0.88851955 2.06975231 0 0 Z " fill="#C0C5CA" transform="translate(397,386)"/>
<path d="M0 0 C5.2295082 2.3442623 5.2295082 2.3442623 7 5 C7.2529766 7.71815286 7.1347974 10.25911949 7 13 C6.67 13 6.34 13 6 13 C5.7525 11.9275 5.505 10.855 5.25 9.75 C3.98470426 5.95411278 2.8930687 4.60376183 0 2 C0 1.34 0 0.68 0 0 Z " fill="#BDC2C8" transform="translate(337,354)"/>
</svg>
