<?xml version="1.0" encoding="UTF-8" standalone="no"?>
<!-- Created with Inkscape (http://www.inkscape.org/) -->

<svg
   width="210mm"
   height="297mm"
   viewBox="0 0 210 297"
   version="1.1"
   id="svg5"
   xml:space="preserve"
   inkscape:export-filename="bitmap.png"
   inkscape:export-xdpi="96"
   inkscape:export-ydpi="96"
   xmlns:inkscape="http://www.inkscape.org/namespaces/inkscape"
   xmlns:sodipodi="http://sodipodi.sourceforge.net/DTD/sodipodi-0.dtd"
   xmlns="http://www.w3.org/2000/svg"
   xmlns:svg="http://www.w3.org/2000/svg"><sodipodi:namedview
     id="namedview7"
     pagecolor="#505050"
     bordercolor="#eeeeee"
     borderopacity="1"
     inkscape:showpageshadow="0"
     inkscape:pageopacity="0"
     inkscape:pagecheckerboard="0"
     inkscape:deskcolor="#505050"
     inkscape:document-units="mm"
     showgrid="false" /><defs
     id="defs2" /><g
     inkscape:label="Layer 1"
     inkscape:groupmode="layer"
     id="layer1"><g
       id="g72"
       transform="matrix(-0.01103675,-0.4641745,0.49391511,-0.0103722,-34.586893,285.83657)"><g
         id="g18">
	<path fill="#808080"
   d="M 492.551,389.644 C 524.374,368.224 593.53,324.772 576.395,277.647 556.811,225.015 486.431,183.399 442.367,153.411 417.275,136.275 331.596,75.075 301.607,112.407 c -1.836,1.836 -2.448,4.896 -1.836,7.344 -12.24,25.092 -4.896,64.26 -4.896,91.188 0,4.896 0,9.792 0,14.688 -89.963,-0.612 -187.883,-29.988 -275.399,-4.284 -5.508,1.836 -7.956,5.508 -8.568,9.18 -0.612,0 -1.224,0.612 -1.836,0.612 -13.464,7.956 -7.956,38.556 -7.956,52.02 0,23.257 -0.612,47.737 3.672,70.38 1.224,5.509 4.896,8.568 9.18,9.181 2.448,3.06 4.896,4.284 8.568,4.284 92.412,-1.225 182.988,-12.24 275.399,-6.732 0,29.376 -1.224,58.752 -5.508,88.128 -0.612,3.672 0.611,6.732 1.836,9.18 -6.12,7.345 0.611,22.645 13.464,20.809 64.872,-9.182 131.58,-53.245 184.824,-88.741 z"
   id="path16" />
</g><g
         id="g20">
</g><g
         id="g22">
</g><g
         id="g24">
</g><g
         id="g26">
</g><g
         id="g28">
</g><g
         id="g30">
</g><g
         id="g32">
</g><g
         id="g34">
</g><g
         id="g36">
</g><g
         id="g38">
</g><g
         id="g40">
</g><g
         id="g42">
</g><g
         id="g44">
</g><g
         id="g46">
</g><g
         id="g48">
</g></g></g></svg>
