<?xml version="1.0" encoding="UTF-8" standalone="no"?>
<!-- Created with Inkscape (http://www.inkscape.org/) -->

<svg
   width="210mm"
   height="297mm"
   viewBox="0 0 210 297"
   version="1.1"
   id="svg5"
   xml:space="preserve"
   inkscape:export-filename="bitmap.png"
   inkscape:export-xdpi="96"
   inkscape:export-ydpi="96"
   sodipodi:docname="upvote-arrow-active.svg"
   xmlns:inkscape="http://www.inkscape.org/namespaces/inkscape"
   xmlns:sodipodi="http://sodipodi.sourceforge.net/DTD/sodipodi-0.dtd"
   xmlns="http://www.w3.org/2000/svg"
   xmlns:svg="http://www.w3.org/2000/svg"><sodipodi:namedview
     id="namedview7"
     pagecolor="#505050"
     bordercolor="#eeeeee"
     borderopacity="1"
     inkscape:showpageshadow="0"
     inkscape:pageopacity="0"
     inkscape:pagecheckerboard="0"
     inkscape:deskcolor="#505050"
     inkscape:document-units="mm"
     showgrid="false" /><defs
     id="defs2" /><g
     inkscape:label="Layer 1"
     inkscape:groupmode="layer"
     id="layer1"><g
       id="g72"
       transform="matrix(-0.01103675,-0.4641745,0.49391511,-0.0103722,-34.586893,285.83657)"><g
         id="g18">
</g><g
         id="g20">
</g><g
         id="g22">
</g><g
         id="g24">
</g><g
         id="g26">
</g><g
         id="g28">
</g><g
         id="g30">
</g><g
         id="g32">
</g><g
         id="g34">
</g><g
         id="g36">
</g><g
         id="g38">
</g><g
         id="g40">
</g><g
         id="g42">
</g><g
         id="g44">
</g><g
         id="g46">
</g><g
         id="g48">
</g></g><path
       style="fill:#ff8080;stroke:#000000;stroke-width:4.75644"
       d="m 326.33486,1065.01 c -26.48583,-4.3614 -43.18718,-25.4068 -52.98494,-66.76651 -12.13884,-51.24217 -14.254,-156.65928 -5.06151,-252.26005 4.19161,-43.59234 9.01823,-105.24202 10.7258,-136.99934 l 3.10468,-57.74051 -78.96619,3.33493 c -127.255265,5.37425 -155.588307,-5.0834 -155.588307,-57.42743 0,-48.97718 19.204811,-89.10684 100.534787,-210.07374 C 235.06746,157.72426 285.07215,102.31971 342.45262,71.736226 414.43223,33.371495 474.08913,68.07116 578.92849,209.28333 c 88.53175,119.24675 129.4855,188.68937 153.29224,259.92754 16.70462,49.98607 18.04541,66.05617 6.0471,72.47746 -5.09348,2.72596 -48.88345,3.48795 -109.3981,1.90367 l -100.90496,-2.64173 0.005,80.31225 c 0.003,44.17176 4.20955,135.96262 9.34722,203.97971 16.7117,221.24537 16.37518,202.72967 3.95759,217.75867 -9.79736,11.8577 -15.37785,13.6922 -53.74058,17.6666 -54.90594,5.6881 -139.23291,7.9598 -161.20017,4.3425 z"
       id="path874"
       transform="scale(0.26458333)" /></g></svg>
